<?xml version="1.0" encoding="UTF-8" standalone="no"?>
<svg xmlns="http://www.w3.org/2000/svg" height="182px" width="466px" version="1.1" xmlns:xlink="http://www.w3.org/1999/xlink" viewBox="0 0 466 182"><!-- Generator: Sketch 48.2 (47327) - http://www.bohemiancoding.com/sketch -->
 <title>Logo Copy 3</title>
 <desc>Created with Sketch.</desc>
 <g id="New-Logo-Copy-3" fill-rule="evenodd" transform="translate(-554 -267)" fill="none">
  <g id="Group" transform="translate(630 359) scale(1 -1) translate(-74 -74)">
   <path id="Combined-Shape" fill="#212121" d="m74 148c-40.869 0-74-33.13-74-74 0-40.869 33.131-74 74-74 40.87 0 74 33.131 74 74 0 40.87-33.13 74-74 74zm0.5-9c35.62 0 64.5-28.88 64.5-64.5 0-35.622-28.88-64.5-64.5-64.5-35.622 0-64.5 28.878-64.5 64.5 0 35.62 28.878 64.5 64.5 64.5z"/>
   <polygon id="Combined-Shape" points="74.5 9.1951 129.44 108.34 19.556 108.34" fill="#212121"/>
   <polygon id="Polygon-Copy" points="74.5 29 113.44 99 35.562 99" fill="#E53935"/>
  </g>
  <text id="POETIC" font-size="121" font-family="TeXGyreAdventor-Regular, TeX Gyre Adventor" letter-spacing="-11.344" fill="#212121">
   <tspan y="258" x="704">POETIC</tspan>
  </text>
  <polygon id="I" points="932 269 941 269 941 357 932 357" fill="#212121"/>
  <polygon id="T" points="887 278 887 269 935 269 935 278 915 278 915 357 907 357 907 278" fill="#212121"/>
  <polygon id="E" points="839 269 889 269 889 278 848 278 848 305 889 305 889 314 848 314 848 348 889 348 889 357 839 357" fill="#212121"/>
  <path id="P" fill="#212121" d="m712 269h17.52c10.1 0 16.89 0.44 20.37 1.31 5.07 1.26 9.19 3.81 12.36 7.65s4.75 8.68 4.75 14.54c0 5.81-1.55 10.63-4.66 14.45-3.11 3.81-7.4 6.38-12.86 7.68-4 0.95-11.46 1.43-22.39 1.43h-6.3v43.94h-8.79v-91zm8.26 8.99v29.77l14.89 0.18c5.95 0 10.31-0.54 13.09-1.62 2.77-1.09 4.96-2.86 6.55-5.32 1.6-2.46 2.4-5.17 2.4-8.13 0-2.99-0.8-5.71-2.4-8.15-1.59-2.44-3.69-4.17-6.29-5.2-2.6-1.02-6.85-1.53-12.76-1.53h-15.48z"/>
  <path id="R" fill="#212121" d="m759 360h17.43c9.72 0 16.32 0.4 19.79 1.19 5.19 1.18 9.43 3.75 12.7 7.68 3.26 3.94 4.9 8.77 4.9 14.51 0 4.83-1.12 9.04-3.37 12.64-2.24 3.6-5.46 6.34-9.66 8.22-4.19 1.88-9.95 2.82-17.28 2.82l31.49 40.94h-10.75l-31.49-40.94h-5.02v40.94h-8.74v-88zm8.79 9.04v29.78l15.07 0.12c5.83 0 10.15-0.55 12.97-1.65 2.81-1.11 5-2.88 6.56-5.32 1.55-2.44 2.33-5.18 2.33-8.21 0-2.92-0.8-5.58-2.39-7.98-1.6-2.4-3.68-4.13-6.24-5.17s-6.85-1.57-12.88-1.57h-15.42z"/>
  <path id="Combined-Shape" fill="#212121" d="m854.6 360l50.14 88h-100.27l50.13-88zm0.18 19l-34.16 59.78h68.32l-34.16-59.78z"/>
  <polygon id="X" points="897 360 907 360 928 394 949 360 959 360 933 403 961 448 951 448 928 411 905 448 895 448 923 403" fill="#212121"/>
  <polygon id="I" points="957 360 966 360 966 448 957 448" fill="#212121"/>
  <path id="P" fill="#212121" d="m712 360h17.52c10.1 0 16.89 0.44 20.37 1.31 5.07 1.26 9.19 3.81 12.36 7.65s4.75 8.68 4.75 14.54c0 5.81-1.55 10.63-4.66 14.45-3.11 3.81-7.4 6.38-12.86 7.68-4 0.95-11.46 1.43-22.39 1.43h-6.3v40.94h-8.79v-88zm8.26 8.99v29.77l14.89 0.18c5.95 0 10.31-0.54 13.09-1.62 2.77-1.09 4.96-2.86 6.55-5.32 1.6-2.46 2.4-5.17 2.4-8.13 0-2.99-0.8-5.71-2.4-8.15-1.59-2.44-3.69-4.17-6.29-5.2-2.6-1.02-6.85-1.53-12.76-1.53h-15.48z"/>
  <path id="S" fill="#212121" d="m957 429.56l9-4.49c6.33 9.65 13.64 14.47 21.93 14.47 3.57 0 6.93-0.69 10.07-2.07 3.1-1.37 5.5-3.21 7.1-5.49 1.7-2.29 2.5-4.73 2.5-7.33 0-2.91-1.2-5.79-3.6-8.62-3.3-3.9-9.4-8.59-18.21-14.06-8.86-5.52-14.34-9.52-16.43-12-3.76-4.09-5.65-8.56-5.65-13.41 0-3.82 1.1-7.29 3.29-10.4s5.3-5.58 9.32-7.41c4.03-1.83 8.39-2.75 13.11-2.75 4.95 0 9.59 1.03 13.97 3.1 4.3 2.07 8.9 5.84 13.7 11.32l-8.6 5.37c-4-4.33-7.3-7.2-10.14-8.59-2.81-1.4-5.88-2.1-9.22-2.1-4.24 0-7.71 1.07-10.43 3.22-2.71 2.15-4.07 4.77-4.07 7.89 0 1.89 0.48 3.74 1.43 5.55s2.72 3.74 5.29 5.79c1.38 1.14 5.95 4.08 13.71 8.8 9.13 5.6 15.43 10.58 18.83 14.95s5.1 8.74 5.1 13.12c0 6.38-2.9 11.91-8.8 16.6-5.8 4.69-12.87 7.03-21.2 7.03-6.48 0-12.33-1.42-17.57-4.25-5.24-2.84-10.05-7.59-14.43-14.24z"/>
  <path id="O" fill="#212121" d="m800.61 267.95c13.24 0 24.31 4.43 33.23 13.29 8.93 8.87 13.39 19.78 13.39 32.74 0 12.8-4.45 23.67-13.36 32.61-8.9 8.94-19.75 13.41-32.55 13.41-13 0-23.97-4.44-32.91-13.32-8.94-8.89-13.41-19.65-13.41-32.29 0-8.39 2.03-16.19 6.09-23.4 4.05-7.21 9.61-12.85 16.66-16.92 7.05-4.08 14.67-6.12 22.86-6.12zm0.36 8.63c-6.46 0-12.6 1.68-18.41 5.05s-10.33 7.91-13.56 13.65c-3.23 5.73-4.84 12.1-4.84 19.11 0 10.4 3.59 19.18 10.78 26.35s15.86 10.75 26.03 10.75c6.77 0 13.05-1.65 18.84-4.96s10.3-7.81 13.53-13.5 4.85-12.04 4.85-19.05c0-6.94-1.62-13.22-4.85-18.85s-7.78-10.13-13.65-13.5c-5.86-3.37-12.11-5.05-18.72-5.05z"/>
  <path id="C" fill="#212121" d="m1017.7 287.55l-7 5.2c-3.8-4.96-8.3-8.71-13.68-11.25-5.34-2.54-11.2-3.81-17.58-3.81-7.01 0-13.49 1.67-19.44 5.02-5.94 3.35-10.56 7.85-13.85 13.5s-4.93 12.02-4.93 19.11c0 10.67 3.66 19.59 10.99 26.73 7.32 7.15 16.56 10.73 27.71 10.73 12.28 0 22.58-4.81 30.78-14.42l7 5.26c-4.4 5.55-9.9 9.85-16.4 12.88-6.54 3.03-13.82 4.55-21.86 4.55-15.36 0-27.47-5.1-36.33-15.3-7.41-8.63-11.11-19.03-11.11-31.2 0-12.8 4.5-23.59 13.5-32.37 9-8.79 20.26-13.18 33.77-13.18 8.19 0 15.58 1.62 22.23 4.87 6.5 3.25 12 7.81 16.2 13.68z"/>
 </g>
</svg>
