<?xml version="1.0" encoding="UTF-8" standalone="no"?>
<svg width="465px" height="182px" viewBox="0 0 465 182" version="1.1" xmlns="http://www.w3.org/2000/svg" xmlns:xlink="http://www.w3.org/1999/xlink">
    <!-- Generator: Sketch 50.2 (55047) - http://www.bohemiancoding.com/sketch -->
    <title>Logo</title>
    <desc>Created with Sketch.</desc>
    <defs></defs>
    <g id="Page-1" stroke="none" stroke-width="1" fill="none" fill-rule="evenodd">
        <g id="Logo" transform="translate(1.000000, 0.000000)">
            <g id="Group" transform="translate(74.000000, 92.000000) scale(-1, 1) rotate(-180.000000) translate(-74.000000, -92.000000) translate(0.000000, 18.000000)" fill-rule="nonzero">
                <path d="M74,148 C33.131,148 0,114.87 0,74 C0,33.131 33.131,0 74,0 C114.87,0 148,33.131 148,74 C148,114.87 114.87,148 74,148 Z M74.5,139 C110.12,139 139,110.12 139,74.5 C139,38.878 110.12,10 74.5,10 C38.878,10 10,38.878 10,74.5 C10,110.12 38.878,139 74.5,139 Z" id="Combined-Shape" stroke="#FFFFFF" fill="#212121"></path>
                <polygon id="Combined-Shape" stroke="#FFFFFF" fill="#212121" points="74.5 9.1951 129.44 108.34 19.556 108.34"></polygon>
                <polygon id="Polygon-Copy" fill="#E53935" points="74.5 29 113.44 99 35.562 99"></polygon>
            </g>
            <polygon id="I" stroke="#FFFFFF" fill="#212121" fill-rule="nonzero" points="376 2 385 2 385 90 376 90"></polygon>
            <polygon id="T" stroke="#FFFFFF" fill="#212121" fill-rule="nonzero" points="331 11 331 2 379 2 379 11 359 11 359 90 351 90 351 11"></polygon>
            <polygon id="E" stroke="#FFFFFF" fill="#212121" fill-rule="nonzero" points="283 2 333 2 333 11 292 11 292 38 333 38 333 47 292 47 292 81 333 81 333 90 283 90"></polygon>
            <path d="M173.52,2 C183.62,2 190.41,2.44 193.89,3.31 C198.96,4.57 203.08,7.12 206.25,10.96 C209.42,14.8 211,19.64 211,25.5 C211,31.31 209.45,36.13 206.34,39.95 C203.23,43.76 198.94,46.33 193.48,47.63 C189.48,48.58 182.02,49.06 171.09,49.06 L164.79,49.06 L164.79,93 L160.753733,93 L156,93 L156,2 L173.52,2 Z M164.26,40.76 L179.15,40.94 C185.1,40.94 189.46,40.4 192.24,39.32 C195.01,38.23 197.2,36.46 198.79,34 C200.39,31.54 201.19,28.83 201.19,25.87 C201.19,22.88 200.39,20.16 198.79,17.72 C197.2,15.28 195.1,13.55 192.5,12.52 C189.9,11.5 185.65,10.99 179.74,10.99 L164.26,10.99 L164.26,40.76 Z" id="P" stroke="#FFFFFF" fill="#212121" fill-rule="nonzero"></path>
            <path d="M203,93 L220.43,93 C230.15,93 236.75,93.4 240.22,94.19 C245.41,95.37 249.65,97.94 252.92,101.87 C256.18,105.81 257.82,110.64 257.82,116.38 C257.82,121.21 256.7,125.42 254.45,129.02 C252.21,132.62 248.99,135.36 244.79,137.24 C240.6,139.12 234.84,140.06 227.51,140.06 L259,181 L248.25,181 L216.76,140.06 L211.74,140.06 L211.74,181 L203,181 L203,93 Z M211.79,102.04 L211.79,131.82 L226.86,131.94 C232.69,131.94 237.01,131.39 239.83,130.29 C242.64,129.18 244.83,127.41 246.39,124.97 C247.94,122.53 248.72,119.79 248.72,116.76 C248.72,113.84 247.92,111.18 246.33,108.78 C244.73,106.38 242.65,104.65 240.09,103.61 C237.53,102.57 233.24,102.04 227.21,102.04 L211.79,102.04 Z" id="R" stroke="#FFFFFF" fill="#212121" fill-rule="nonzero"></path>
            <path d="M298.6,93 L348.74,181 L248.47,181 L298.6,93 Z M298.78,112 L264.62,171.78 L332.94,171.78 L298.78,112 Z" id="Combined-Shape" stroke="#FFFFFF" fill="#212121" fill-rule="nonzero"></path>
            <polygon id="X" stroke="#FFFFFF" fill="#212121" fill-rule="nonzero" points="341 93 351 93 372 127 393 93 403 93 377 136 405 181 395 181 372 144 349 181 339 181 367 136"></polygon>
            <polygon id="I" stroke="#FFFFFF" fill="#212121" fill-rule="nonzero" points="401 93 410 93 410 181 401 181"></polygon>
            <path d="M156,93 L173.52,93 C183.62,93 190.41,93.44 193.89,94.31 C198.96,95.57 203.08,98.12 206.25,101.96 C209.42,105.8 211,110.64 211,116.5 C211,122.31 209.45,127.13 206.34,130.95 C203.23,134.76 198.94,137.33 193.48,138.63 C189.48,139.58 182.02,140.06 171.09,140.06 L164.79,140.06 L164.79,181 L156,181 L156,93 Z M164.26,101.99 L164.26,131.76 L179.15,131.94 C185.1,131.94 189.46,131.4 192.24,130.32 C195.01,129.23 197.2,127.46 198.79,125 C200.39,122.54 201.19,119.83 201.19,116.87 C201.19,113.88 200.39,111.16 198.79,108.72 C197.2,106.28 195.1,104.55 192.5,103.52 C189.9,102.5 185.65,101.99 179.74,101.99 L164.26,101.99 Z" id="P" stroke="#FFFFFF" fill="#212121" fill-rule="nonzero"></path>
            <rect id="Rectangle-2" fill="#212121" x="156.507222" y="90" width="7.80392643" height="6"></rect>
            <path d="M416.98914,93.7309529 C404.650287,92.4707218 394.690573,87.4770708 387.11,78.75 C379.7,70.12 376,59.72 376,47.55 C376,34.75 380.5,23.96 389.5,15.18 C398.5,6.39 409.76,2 423.27,2 C431.46,2 438.85,3.62 445.5,6.87 C452,10.12 457.5,14.68 461.7,20.55 L454.7,25.75 C450.9,20.79 446.4,17.04 441.02,14.5 C435.68,11.96 429.82,10.69 423.44,10.69 C416.43,10.69 409.95,12.36 404,15.71 C398.06,19.06 393.44,23.56 390.15,29.21 C386.86,34.86 385.22,41.23 385.22,48.32 C385.22,58.99 388.88,67.91 396.21,75.05 C403.53,82.2 412.77,85.78 423.92,85.78 C436.2,85.78 446.5,80.97 454.7,71.36 L461.7,76.62 C457.3,82.17 451.8,86.47 445.3,89.5 C444.660682,89.796198 444.014292,90.0779663 443.360812,90.3452956 C444.858725,90.8013659 446.326761,91.3694823 447.766698,92.05 C452.066698,94.12 456.666698,97.89 461.466698,103.37 L452.866698,108.74 C448.866698,104.41 445.566698,101.54 442.726698,100.15 C439.916698,98.75 436.846698,98.05 433.506698,98.05 C429.266698,98.05 425.796698,99.12 423.076698,101.27 C420.366698,103.42 419.006698,106.04 419.006698,109.16 C419.006698,111.05 419.486698,112.9 420.436698,114.71 C421.386698,116.52 423.156698,118.45 425.726698,120.5 C427.106698,121.64 431.676698,124.58 439.436698,129.3 C448.566698,134.9 454.866698,139.88 458.266698,144.25 C461.666698,148.62 463.366698,152.99 463.366698,157.37 C463.366698,163.75 460.466698,169.28 454.566698,173.97 C448.766698,178.66 441.696698,181 433.366698,181 C426.886698,181 421.036698,179.58 415.796698,176.75 C410.556698,173.91 405.746698,169.16 401.366698,162.51 L409.662719,158.406032 C415.992719,168.056032 424.006698,172.49 432.296698,172.49 C435.866698,172.49 439.226698,171.8 442.366698,170.42 C445.466698,169.05 447.866698,167.21 449.466698,164.93 C451.166698,162.64 451.966698,160.2 451.966698,157.6 C451.966698,154.69 450.766698,151.81 448.366698,148.98 C445.066698,145.08 438.966698,140.39 430.156698,134.92 C421.296698,129.4 415.816698,125.4 413.726698,122.92 C409.966698,118.83 408.076698,114.36 408.076698,109.51 C408.076698,105.69 409.176698,102.22 411.366698,99.11 C412.830705,97.0309764 414.705848,95.2379607 416.98914,93.7309529 Z" id="Combined-Shape" stroke="#FFFFFF" fill="#212121" fill-rule="nonzero"></path>
            <path d="M244.61,0.95 C257.85,0.95 268.92,5.38 277.84,14.24 C286.77,23.11 291.23,34.02 291.23,46.98 C291.23,59.78 286.78,70.65 277.87,79.59 C268.97,88.53 258.12,93 245.32,93 C232.32,93 221.35,88.56 212.41,79.68 C203.47,70.79 199,60.03 199,47.39 C199,39 201.03,31.2 205.09,23.99 C209.14,16.78 214.7,11.14 221.75,7.07 C228.8,2.99 236.42,0.95 244.61,0.95 Z M244.97,9.58 C238.51,9.58 232.37,11.26 226.56,14.63 C220.75,18 216.23,22.54 213,28.28 C209.77,34.01 208.16,40.38 208.16,47.39 C208.16,57.79 211.75,66.57 218.94,73.74 C226.13,80.91 234.8,84.49 244.97,84.49 C251.74,84.49 258.02,82.84 263.81,79.53 C269.6,76.22 274.11,71.72 277.34,66.03 C280.57,60.34 282.19,53.99 282.19,46.98 C282.19,40.04 280.57,33.76 277.34,28.13 C274.11,22.5 269.56,18 263.69,14.63 C257.83,11.26 251.58,9.58 244.97,9.58 Z" id="O" stroke="#FFFFFF" fill="#212121" fill-rule="nonzero"></path>
            <rect id="Rectangle-8" fill="#212121" x="401.493318" y="94.05" width="8" height="80.9017016"></rect>
            <rect id="Rectangle-4" fill="#212121" x="289" y="41" width="4" height="5.51606515"></rect>
            <rect id="Rectangle-5" fill="#212121" x="331.5" y="2.49180968" width="3" height="8.0041665"></rect>
            <path d="M208.89516,16.6259943 C205.977381,20.9089604 203.914064,24.3778085 202.705209,27.0325385 C201.496355,29.6872684 199.436472,35.9594819 196.525561,45.849179 C197.625331,45.58075 198.452186,45.3741772 199.006124,45.2294604 C199.560063,45.0847437 200.359143,44.6236494 201.403364,43.8461777 L210.437309,19.8010457 L208.89516,16.6259943 Z" id="Path-2" fill="#212121"></path>
            <rect id="Rectangle-3" fill="#212121" x="283.48775" y="19.1410308" width="8.01796171" height="55.1222228"></rect>
            <path d="M23.0884443,51.7359416 C21.8200728,53.3599173 20.6956607,54.9440414 19.7152081,56.4883137 C18.7347555,58.032586 17.8033772,59.61671 16.9210732,61.2406858 L16.9210732,54.3496535 L23.0884443,51.7359416 Z" id="Path-3" fill="#212121"></path>
            <path d="M132.088444,51.7359416 C130.820073,53.3599173 129.695661,54.9440414 128.715208,56.4883137 C127.734755,58.032586 126.803377,59.61671 125.921073,61.2406858 L125.921073,54.3496535 L132.088444,51.7359416 Z" id="Path-3" fill="#212121" transform="translate(129.004759, 56.488314) scale(-1, 1) translate(-129.004759, -56.488314) "></path>
            <path d="M78.0912323,151.539755 C76.8228608,153.163731 75.6984487,154.747855 74.7179961,156.292128 C73.7375435,157.8364 72.7806434,159.407213 71.847296,161.004566 L71.9238612,154.153467 L78.0912323,151.539755 Z" id="Path-3" fill="#212121" transform="translate(74.969264, 156.272161) scale(-1, 1) rotate(-123.000000) translate(-74.969264, -156.272161) "></path>
            <rect id="Rectangle-6" fill="#212121" x="376.504732" y="2.49180968" width="8" height="74.5082751"></rect>
            <rect id="Rectangle-7" fill="#212121" x="203.494457" y="97" width="7.80392643" height="40"></rect>
            <polygon id="Path-4" fill="#212121" points="252.334375 173.182005 248.319259 180.253422 248.533585 180.507492 257.999439 180.507492"></polygon>
            <polygon id="Path-4" fill="#212121" transform="translate(343.357927, 176.665424) scale(-1, 1) translate(-343.357927, -176.665424) " points="343.229925 172.823357 338.716414 180.253422 338.93074 180.507492 347.999439 180.507492"></polygon>
            <polygon id="Path-5" fill="#212121" points="400.062877 174.034947 404.300873 180.498611 398.382141 180.498611"></polygon>
            <polygon id="Path-6" fill="#212121" points="400.401937 96.326722 402.084106 93.5018616 399.145264 93.5018616"></polygon>
        </g>
    </g>
</svg>