<?xml version="1.0" encoding="UTF-8" standalone="no"?>
<svg width="463px" height="182px" viewBox="0 0 463 182" version="1.1" xmlns="http://www.w3.org/2000/svg" xmlns:xlink="http://www.w3.org/1999/xlink">
    <!-- Generator: Sketch 50.2 (55047) - http://www.bohemiancoding.com/sketch -->
    <title>Logo-white</title>
    <desc>Created with Sketch.</desc>
    <defs></defs>
    <g id="Page-1" stroke="none" stroke-width="1" fill="none" fill-rule="evenodd">
        <g id="Logo-white" fill-rule="nonzero">
            <g id="Group" transform="translate(74.000000, 92.000000) scale(-1, 1) rotate(-180.000000) translate(-74.000000, -92.000000) translate(0.000000, 18.000000)">
                <path d="M74,148 C33.131,148 0,114.87 0,74 C0,33.131 33.131,0 74,0 C114.87,0 148,33.131 148,74 C148,114.87 114.87,148 74,148 Z M74.5,139 C110.12,139 139,110.12 139,74.5 C139,38.878 110.12,10 74.5,10 C38.878,10 10,38.878 10,74.5 C10,110.12 38.878,139 74.5,139 Z" id="Combined-Shape" fill="#F9F8F7"></path>
                <polygon id="Combined-Shape" fill="#F9F8F7" points="74.5 9.1951 129.44 108.34 19.556 108.34"></polygon>
                <polygon id="Polygon-Copy" fill="#CF514E" points="74.5 29 113.44 99 35.562 99"></polygon>
            </g>
            <polygon id="I" fill="#F9F8F7" points="376 2 385 2 385 90 376 90"></polygon>
            <polygon id="T" fill="#F9F8F7" points="331 11 331 2 379 2 379 11 359 11 359 90 351 90 351 11"></polygon>
            <polygon id="E" fill="#F9F8F7" points="283 2 333 2 333 11 292 11 292 38 333 38 333 47 292 47 292 81 333 81 333 90 283 90"></polygon>
            <path d="M156,2 L173.52,2 C183.62,2 190.41,2.44 193.89,3.31 C198.96,4.57 203.08,7.12 206.25,10.96 C209.42,14.8 211,19.64 211,25.5 C211,31.31 209.45,36.13 206.34,39.95 C203.23,43.76 198.94,46.33 193.48,47.63 C189.48,48.58 182.02,49.06 171.09,49.06 L164.79,49.06 L164.79,93 L156,93 L156,2 Z M164.26,10.99 L164.26,40.76 L179.15,40.94 C185.1,40.94 189.46,40.4 192.24,39.32 C195.01,38.23 197.2,36.46 198.79,34 C200.39,31.54 201.19,28.83 201.19,25.87 C201.19,22.88 200.39,20.16 198.79,17.72 C197.2,15.28 195.1,13.55 192.5,12.52 C189.9,11.5 185.65,10.99 179.74,10.99 L164.26,10.99 Z" id="P" fill="#F9F8F7"></path>
            <path d="M203,93 L220.43,93 C230.15,93 236.75,93.4 240.22,94.19 C245.41,95.37 249.65,97.94 252.92,101.87 C256.18,105.81 257.82,110.64 257.82,116.38 C257.82,121.21 256.7,125.42 254.45,129.02 C252.21,132.62 248.99,135.36 244.79,137.24 C240.6,139.12 234.84,140.06 227.51,140.06 L259,181 L248.25,181 L216.76,140.06 L211.74,140.06 L211.74,181 L203,181 L203,93 Z M211.79,102.04 L211.79,131.82 L226.86,131.94 C232.69,131.94 237.01,131.39 239.83,130.29 C242.64,129.18 244.83,127.41 246.39,124.97 C247.94,122.53 248.72,119.79 248.72,116.76 C248.72,113.84 247.92,111.18 246.33,108.78 C244.73,106.38 242.65,104.65 240.09,103.61 C237.53,102.57 233.24,102.04 227.21,102.04 L211.79,102.04 Z" id="R" fill="#F9F8F7"></path>
            <path d="M298.6,93 L348.74,181 L248.47,181 L298.6,93 Z M298.78,112 L264.62,171.78 L332.94,171.78 L298.78,112 Z" id="Combined-Shape" fill="#F9F8F7"></path>
            <polygon id="X" fill="#F9F8F7" points="341 93 351 93 372 127 393 93 403 93 377 136 405 181 395 181 372 144 349 181 339 181 367 136"></polygon>
            <polygon id="I" fill="#F9F8F7" points="401 93 410 93 410 181 401 181"></polygon>
            <path d="M156,93 L173.52,93 C183.62,93 190.41,93.44 193.89,94.31 C198.96,95.57 203.08,98.12 206.25,101.96 C209.42,105.8 211,110.64 211,116.5 C211,122.31 209.45,127.13 206.34,130.95 C203.23,134.76 198.94,137.33 193.48,138.63 C189.48,139.58 182.02,140.06 171.09,140.06 L164.79,140.06 L164.79,181 L156,181 L156,93 Z M164.26,101.99 L164.26,131.76 L179.15,131.94 C185.1,131.94 189.46,131.4 192.24,130.32 C195.01,129.23 197.2,127.46 198.79,125 C200.39,122.54 201.19,119.83 201.19,116.87 C201.19,113.88 200.39,111.16 198.79,108.72 C197.2,106.28 195.1,104.55 192.5,103.52 C189.9,102.5 185.65,101.99 179.74,101.99 L164.26,101.99 Z" id="P" fill="#F9F8F7"></path>
            <path d="M401,162.56 L410,158.07 C416.33,167.72 423.64,172.54 431.93,172.54 C435.5,172.54 438.86,171.85 442,170.47 C445.1,169.1 447.5,167.26 449.1,164.98 C450.8,162.69 451.6,160.25 451.6,157.65 C451.6,154.74 450.4,151.86 448,149.03 C444.7,145.13 438.6,140.44 429.79,134.97 C420.93,129.45 415.45,125.45 413.36,122.97 C409.6,118.88 407.71,114.41 407.71,109.56 C407.71,105.74 408.81,102.27 411,99.16 C413.19,96.05 416.3,93.58 420.32,91.75 C424.35,89.92 428.71,89 433.43,89 C438.38,89 443.02,90.03 447.4,92.1 C451.7,94.17 456.3,97.94 461.1,103.42 L452.5,108.79 C448.5,104.46 445.2,101.59 442.36,100.2 C439.55,98.8 436.48,98.1 433.14,98.1 C428.9,98.1 425.43,99.17 422.71,101.32 C420,103.47 418.64,106.09 418.64,109.21 C418.64,111.1 419.12,112.95 420.07,114.76 C421.02,116.57 422.79,118.5 425.36,120.55 C426.74,121.69 431.31,124.63 439.07,129.35 C448.2,134.95 454.5,139.93 457.9,144.3 C461.3,148.67 463,153.04 463,157.42 C463,163.8 460.1,169.33 454.2,174.02 C448.4,178.71 441.33,181.05 433,181.05 C426.52,181.05 420.67,179.63 415.43,176.8 C410.19,173.96 405.38,169.21 401,162.56 Z" id="S" fill="#F9F8F7"></path>
            <path d="M244.61,0.95 C257.85,0.95 268.92,5.38 277.84,14.24 C286.77,23.11 291.23,34.02 291.23,46.98 C291.23,59.78 286.78,70.65 277.87,79.59 C268.97,88.53 258.12,93 245.32,93 C232.32,93 221.35,88.56 212.41,79.68 C203.47,70.79 199,60.03 199,47.39 C199,39 201.03,31.2 205.09,23.99 C209.14,16.78 214.7,11.14 221.75,7.07 C228.8,2.99 236.42,0.95 244.61,0.95 Z M244.97,9.58 C238.51,9.58 232.37,11.26 226.56,14.63 C220.75,18 216.23,22.54 213,28.28 C209.77,34.01 208.16,40.38 208.16,47.39 C208.16,57.79 211.75,66.57 218.94,73.74 C226.13,80.91 234.8,84.49 244.97,84.49 C251.74,84.49 258.02,82.84 263.81,79.53 C269.6,76.22 274.11,71.72 277.34,66.03 C280.57,60.34 282.19,53.99 282.19,46.98 C282.19,40.04 280.57,33.76 277.34,28.13 C274.11,22.5 269.56,18 263.69,14.63 C257.83,11.26 251.58,9.58 244.97,9.58 Z" id="O" fill="#F9F8F7"></path>
            <path d="M461.7,20.55 L454.7,25.75 C450.9,20.79 446.4,17.04 441.02,14.5 C435.68,11.96 429.82,10.69 423.44,10.69 C416.43,10.69 409.95,12.36 404,15.71 C398.06,19.06 393.44,23.56 390.15,29.21 C386.86,34.86 385.22,41.23 385.22,48.32 C385.22,58.99 388.88,67.91 396.21,75.05 C403.53,82.2 412.77,85.78 423.92,85.78 C436.2,85.78 446.5,80.97 454.7,71.36 L461.7,76.62 C457.3,82.17 451.8,86.47 445.3,89.5 C438.76,92.53 431.48,94.05 423.44,94.05 C408.08,94.05 395.97,88.95 387.11,78.75 C379.7,70.12 376,59.72 376,47.55 C376,34.75 380.5,23.96 389.5,15.18 C398.5,6.39 409.76,2 423.27,2 C431.46,2 438.85,3.62 445.5,6.87 C452,10.12 457.5,14.68 461.7,20.55 Z" id="C" fill="#F9F8F7"></path>
        </g>
    </g>
</svg>