<?xml version="1.0" standalone="no"?>
<!DOCTYPE svg PUBLIC "-//W3C//DTD SVG 1.1//EN" "http://www.w3.org/Graphics/SVG/1.1/DTD/svg11.dtd" >
<svg>
<metadata>
Created by FontForge 20090914 at Mon Jan  2 23:22:13 2017
 By www-data
Uyghur Computer Science Association. Free distributed and all rights reserved. http://www.ukij.org
</metadata>
<defs>
<font id="UKIJQolyazma" horiz-adv-x="1143" >
  <font-face 
    font-family="UKIJ Qolyazma"
    font-weight="400"
    font-stretch="normal"
    units-per-em="2048"
    panose-1="2 2 6 3 5 4 5 2 3 4"
    ascent="1638"
    descent="-410"
    x-height="1180"
    cap-height="1566"
    bbox="-115 -371.001 2155 1791"
    underline-thickness="180"
    underline-position="-720"
    unicode-range="U+0020-U+04E9"
  />
<missing-glyph horiz-adv-x="1620" 
d="M284 118v1313h1051v-1313h-1051zM318 150h984v1247h-984v-1247z" />
    <glyph glyph-name=".notdef" horiz-adv-x="1620" 
d="M284 118v1313h1051v-1313h-1051zM318 150h984v1247h-984v-1247z" />
    <glyph glyph-name="space" unicode=" " horiz-adv-x="512" 
 />
    <glyph glyph-name="exclam" unicode="!" horiz-adv-x="606" 
d="M375 1604v-1150h-147v1150h147zM303 305c34 0 63.167 -12.167 87.5 -36.5s36.5 -53.833 36.5 -88.5c0 -34 -12.167 -63.167 -36.5 -87.5s-53.5 -36.5 -87.5 -36.5c-34.667 0 -64 12.167 -88 36.5s-36 53.5 -36 87.5c0 34.667 12 64.167 36 88.5s53.333 36.5 88 36.5z" />
    <glyph glyph-name="quotedbl" unicode="&#x22;" horiz-adv-x="637" 
d="M566 1137h-104l-22 467h149zM175 1137h-105l-22 467h149z" />
    <glyph glyph-name="numbersign" unicode="#" horiz-adv-x="1484" 
d="M1241 690v-109h-249l-74 -498h-112l73 498h-336l-77 -498h-110l76 498h-248v109h265l52 336h-256v111h271l71 471h108l-68 -471h335l68 471h113l-70 -471h226v-111h-243l-48 -336h233zM946 1026h-337l-49 -336h334z" />
    <glyph glyph-name="dollar" unicode="$" 
d="M535 1670h131.999v-110c66 -12 122.333 -33.5 169 -64.5s91.334 -76.5 134.001 -136.5l-108 -88c-52 80 -117 128.333 -195 145v-504c176 -92.667 285.333 -167.667 328 -225c55.333 -74 83 -155.667 83 -245c0 -73.333 -20.333 -140.833 -61 -202.5
s-95.667 -109.834 -165 -144.501c-44.667 -22 -106.334 -38 -185.001 -48v-315h-132v315c-83.333 6.66699 -149.666 19.834 -198.999 39.501s-97.833 49 -145.5 88s-87.167 84.5 -118.5 136.5l108 82c93.333 -124 211.666 -193 354.999 -207v624
c-105.333 51.333 -172.333 86.666 -201 105.999c-57.333 39.333 -99.666 82.833 -126.999 130.5s-41 102.5 -41 164.5c0 60.667 15.167 116.834 45.5 168.501s71.5 93.667 123.5 126s118.667 52.5 200 60.5v104zM534.999 1426c-50 -4 -90.667 -15.1689 -122 -33.502
s-55.833 -43.166 -73.5 -74.499s-26.5 -65.666 -26.5 -102.999c0 -48.667 14 -90 42 -124c38 -45.333 98 -86.333 180 -123v458zM666.999 189.998c80.667 11.333 145.5 41 194.5 89s73.5 101.667 73.5 161c0 57.333 -18.667 110.333 -56 159s-108 101 -212 157v-566z" />
    <glyph glyph-name="percent" unicode="%" horiz-adv-x="1599" 
d="M1391 1631l-1080 -1651h-133l983 1505c-116 -28.667 -257.667 -43 -425 -43l-55 1c41.333 -58 62 -119.333 62 -184c0 -92 -32 -174.167 -96 -246.5s-149 -108.5 -255 -108.5c-98 0 -180.167 33.833 -246.5 101.5s-99.5 149.834 -99.5 246.501
c0 64 15.167 122.333 45.5 175s73.333 95.334 129 128.001s112.834 49 171.501 49c24.667 0 65.667 -6 123 -18c87.333 -19.333 181.666 -29 282.999 -29c76 0 147.5 4.83301 214.5 14.5s153.5 29.5 259.5 59.5h119zM395 1475c-61.333 0 -113.5 -21.5 -156.5 -64.5
s-64.5 -95.5 -64.5 -157.5c0 -60.667 21.5 -112.667 64.5 -156s95.167 -65 156.5 -65c60.667 0 112.667 21.667 156 65s65 95.333 65 156c0 62 -21.667 114.5 -65 157.5s-95.333 64.5 -156 64.5zM1204 736.998c96 0 178.167 -34 246.5 -102s102.5 -150 102.5 -246
c0 -96.667 -34.167 -179 -102.5 -247s-150.5 -102 -246.5 -102s-178 34 -246 102s-102 150.333 -102 247c0 96 34 178 102 246s150 102 246 102zM1204 609.998c-60.667 0 -112.667 -21.667 -156 -65s-65 -95.333 -65 -156c0 -61.333 21.667 -113.5 65 -156.5
s95.333 -64.5 156 -64.5c61.333 0 113.666 21.5 156.999 64.5s65 95.167 65 156.5c0 60.667 -21.667 112.667 -65 156s-95.666 65 -156.999 65z" />
    <glyph glyph-name="ampersand" unicode="&#x26;" horiz-adv-x="1560" 
d="M1301 632l100.999 -107.003l-174 -149c33.333 -36 82.333 -86.333 147 -151c51.333 -51.333 95.333 -98.666 132 -141.999h-206l-191 199c-127.333 -96.667 -229.666 -160.167 -306.999 -190.5s-159 -45.5 -245 -45.5c-114 0 -205.667 32.833 -275 98.5
s-104 147.167 -104 244.5c0 74.667 23.333 149 70 223s142 167.667 286 281c-81.333 98.667 -133.666 171.334 -156.999 218.001s-35 91.334 -35 134.001c0 73.333 28.667 134.333 86 183c66 56 148 84 246 84c62 0 118.5 -12.333 169.5 -37s89.833 -58 116.5 -100
s40 -86.667 40 -134c0 -49.333 -17.333 -102 -52 -158s-103.334 -127.667 -206.001 -215l224 -236l154 -155c74.667 62 134.667 113.667 180 155zM650.999 977.997c72 56 126 111 162 165c25.333 38 38 72 38 102c0 34 -16.667 63.5 -50 88.5s-77.333 37.5 -132 37.5
c-52 0 -94.667 -12.833 -128 -38.5s-50 -56.167 -50 -91.5c0 -26 6.66699 -51 20 -75c33.333 -57.333 80 -120 140 -188zM632.999 781.997c-126 -94.667 -208.501 -170.168 -247.501 -226.501s-58.5 -108.166 -58.5 -155.499c0 -56.667 24 -106.667 72 -150
s106.333 -65 175 -65c52.667 0 104.334 11 155.001 33c78.667 34 172 89.333 280 166l-241 249c-40.667 42 -85.667 91.667 -135 149z" />
    <glyph glyph-name="quotesingle" unicode="'" horiz-adv-x="406" 
d="M255 1137h-104l-22 467h149z" />
    <glyph glyph-name="parenleft" unicode="(" horiz-adv-x="759" 
d="M472 1631l163 0.000976562c-66 -135.333 -118.833 -293 -158.5 -473s-59.5 -365.333 -59.5 -556c0 -178 15 -349.333 45 -514s71 -309.334 123 -434.001h-155c-49.333 120 -88.833 261 -118.5 423s-44.5 330.333 -44.5 505c0 189.333 17.333 373.5 52 552.5
s85.667 344.5 153 496.5z" />
    <glyph glyph-name="parenright" unicode=")" horiz-adv-x="759" 
d="M287 -346l-162.999 -0.00292969c66.667 135.333 119.5 292.833 158.5 472.5s58.5 365.5 58.5 557.5c0 177.333 -14.833 348.333 -44.5 513s-70.834 309.334 -123.501 434.001h156c50.667 -119.333 90.5 -260.166 119.5 -422.499s43.5 -331.166 43.5 -506.499
c0 -188 -17.5 -371.5 -52.5 -550.5s-85.833 -344.833 -152.5 -497.5z" />
    <glyph glyph-name="asterisk" unicode="*" horiz-adv-x="876" 
d="M371 1604h131l-29 -300l249 177l66 -113l-280 -126l280 -123l-66 -114l-249 175l29 -300h-131l31 300l-248 -175l-66 114l283 123l-283 126l66 113l248 -177z" />
    <glyph glyph-name="plus" unicode="+" horiz-adv-x="1249" 
d="M555 893v438h138v-438h442v-138h-442v-437h-138v437h-440v138h440z" />
    <glyph glyph-name="comma" unicode="," horiz-adv-x="570" 
d="M296 356l137 -65l-205 -380l-100 42z" />
    <glyph glyph-name="hyphen" unicode="-" horiz-adv-x="987" 
d="M199 218h554v-124h-554v124z" />
    <glyph glyph-name="period" unicode="." horiz-adv-x="569" 
d="M311 305c34 0 63.167 -12.167 87.5 -36.5s36.5 -53.833 36.5 -88.5c0 -34 -12.167 -63.167 -36.5 -87.5s-53.5 -36.5 -87.5 -36.5c-34.667 0 -64 12.167 -88 36.5s-36 53.5 -36 87.5c0 34.667 12 64.167 36 88.5s53.333 36.5 88 36.5z" />
    <glyph glyph-name="slash" unicode="/" horiz-adv-x="901" 
d="M842 1604l-615 -1722h-155l614 1722h156z" />
    <glyph glyph-name="zero" unicode="0" 
d="M65 824c0 196 21 347.333 63 454s101.333 187.667 178 243s162.334 83 257.001 83c96 0 183 -27.833 261 -83.5s139.667 -139 185 -250s68 -259.833 68 -446.5c0 -186 -22.333 -334.167 -67 -444.5s-106.334 -193.5 -185.001 -249.5s-166 -84 -262 -84
c-94.667 0 -180 27.167 -256 81.5s-135.333 135.5 -178 243.5s-64 259 -64 453zM205 821c0 -167.333 15.001 -293.667 45.001 -379s74.333 -150.333 133 -195s120.334 -67 185.001 -67c65.333 0 126.666 21.667 183.999 65s100.666 108.333 129.999 195
c36.667 105.333 55 232.333 55 381s-16.333 270.667 -49 366s-78 165 -136 209s-119.333 66 -184 66c-66 0 -128 -22 -186 -66s-102 -108.833 -132 -194.5s-45 -212.5 -45 -380.5z" />
    <glyph glyph-name="one" unicode="1" horiz-adv-x="1138" 
d="M380 1566h291v-1483h-147v1338h-233z" />
    <glyph glyph-name="two" unicode="2" 
d="M239 1101l-142.997 0.000976562c4 147.333 53 268 147 362s209.667 141 347 141c136.667 0 247 -44 331 -132s126 -192 126 -312c0 -84 -20 -162.833 -60 -236.5s-118.333 -173.5 -235 -299.5l-368 -398h684v-143h-1007l566 612
c115.333 123.333 190.166 214.666 224.499 273.999s51.5 122 51.5 188c0 83.333 -31 155 -93 215s-138 90 -228 90c-94.667 0 -173.334 -31.667 -236.001 -95s-98.334 -152 -107.001 -266z" />
    <glyph glyph-name="three" unicode="3" horiz-adv-x="1142" 
d="M272 1222l-150.998 0.00292969c28 122.667 80.833 217 158.5 283s169.834 99 276.501 99c77.333 0 149.333 -17.667 216 -53s118.5 -83 155.5 -143s55.5 -122.333 55.5 -187c0 -128 -63.667 -229.333 -191 -304c71.333 -28.667 129.666 -71 174.999 -127
c64.667 -78.667 97 -166.667 97 -264c0 -84 -22.167 -164.167 -66.5 -240.5s-104.833 -135.333 -181.5 -177s-162.334 -62.5 -257.001 -62.5c-128 0 -234.5 36.833 -319.5 110.5s-140.833 181.5 -167.5 323.5h145c26 -96 63 -165.333 111 -208
c60.667 -54.667 138 -82 232 -82c108 0 194.667 32.167 260 96.5s98 140.166 98 227.499c0 57.333 -16.333 111.333 -49 162s-76.5 88.667 -131.5 114s-139.5 41 -253.5 47v137c68 0 129.667 11.667 185 35s95.666 53.666 120.999 90.999s38 77.666 38 120.999
c0 64.667 -25.833 120.667 -77.5 168s-116.5 71 -194.5 71c-64 0 -119.333 -18 -166 -54s-86 -97.333 -118 -184z" />
    <glyph glyph-name="four" unicode="4" 
d="M879 1604h30v-1034h180v-142h-180v-345h-148v345h-709zM761 570v618l-437 -618h437z" />
    <glyph glyph-name="five" unicode="5" 
d="M1014 1566l0.000976562 -141.003h-528l-73 -405c64 19.333 122 29 174 29c135.333 0 246.833 -45.167 334.5 -135.5s131.5 -206.166 131.5 -347.499c0 -97.333 -22.5 -186.666 -67.5 -267.999s-106 -143.666 -183 -186.999s-166.167 -65 -267.5 -65
c-120 0 -221.333 36.833 -304 110.5s-132 168.834 -148 285.501h152c11.333 -56.667 30.666 -102.834 57.999 -138.501s63.833 -64.5 109.5 -86.5s93.167 -33 142.5 -33c97.333 0 180.833 37 250.5 111s104.5 166.333 104.5 277c0 100.667 -31.5 182.167 -94.5 244.5
s-147.5 93.5 -253.5 93.5c-87.333 0 -193 -26.667 -317 -80l137 736h642z" />
    <glyph glyph-name="six" unicode="6" horiz-adv-x="1142" 
d="M756 1604l122.004 -81.001l-400 -606c53.333 18 103.666 27 150.999 27c117.333 0 217 -42.5 299 -127.5s123 -189.833 123 -314.5c0 -84.667 -19.833 -161.5 -59.5 -230.5s-95.834 -123.833 -168.501 -164.5s-151 -61 -235 -61c-81.333 0 -156.833 19.667 -226.5 59
s-124.334 94.5 -164.001 165.5s-59.5 147.5 -59.5 229.5c0 60.667 12.167 124.334 36.5 191.001s68.166 147 131.499 241zM594.004 813.999c-86.667 0 -160.334 -30.333 -221.001 -91s-91 -134.334 -91 -221.001s30.333 -160.334 91 -221.001s134.334 -91 221.001 -91
c85.333 0 158.5 30.333 219.5 91s91.5 134.334 91.5 221.001s-30.5 160.334 -91.5 221.001s-134.167 91 -219.5 91z" />
    <glyph glyph-name="seven" unicode="7" horiz-adv-x="1142" 
d="M147 1566h941l-793 -1520l-123 62l685 1318h-710v140z" />
    <glyph glyph-name="eight" unicode="8" 
d="M793 897c100 -50 171.669 -107.002 215.002 -171.002s65 -136.333 65 -217c0 -114 -37.333 -214.667 -112 -302c-91.333 -107.333 -222 -161 -392 -161c-164 0 -288.333 46.833 -373 140.5s-127 196.834 -127 309.501c0 83.333 22.167 158 66.5 224
s118.166 125 221.499 177c-72 37.333 -126.167 83.833 -162.5 139.5s-54.5 115.5 -54.5 179.5c0 64.667 19.167 127.834 57.5 189.501s91.666 110.167 159.999 145.5s142.166 53 221.499 53c77.333 0 148.833 -17.833 214.5 -53.5s117.334 -84.167 155.001 -145.5
s56.5 -125.666 56.5 -192.999c0 -66.667 -17.833 -126.334 -53.5 -179.001s-88.5 -98 -158.5 -136zM572.002 1460c-80.667 0 -147.833 -24 -201.5 -72s-80.5 -105.667 -80.5 -173c0 -66 28.833 -125.667 86.5 -179s124.5 -80 200.5 -80c49.333 0 95.833 12.167 139.5 36.5
s77.667 57.5 102 99.5s36.5 84 36.5 126c0 60 -24.167 115.333 -72.5 166s-118.5 76 -210.5 76zM579.003 821.998c-102.667 0 -188.501 -33.167 -257.501 -99.5s-103.5 -143.5 -103.5 -231.5c0 -54 14.833 -105.333 44.5 -154s71 -86 124 -112s114.5 -39 184.5 -39
c108.667 0 194.834 31.833 258.501 95.5s95.5 138.5 95.5 224.5c0 82 -33.833 155.167 -101.5 219.5s-149.167 96.5 -244.5 96.5z" />
    <glyph glyph-name="nine" unicode="9" horiz-adv-x="1142" 
d="M395 46l-122.002 78.001l401 607c-54 -17.333 -104.667 -26 -152 -26c-117.333 0 -217 42.5 -299 127.5s-123 189.5 -123 313.5c0 86 19.833 163.167 59.5 231.5s95.834 123.166 168.501 164.499s151 62 235 62c82 0 157.667 -19.833 227 -59.5
s123.833 -95.167 163.5 -166.5s59.5 -147.333 59.5 -228c0 -61.333 -12.167 -125.5 -36.5 -192.5s-68.166 -147.167 -131.499 -240.5zM556.998 836.001c86.667 0 160.334 30.333 221.001 91s91 133.667 91 219c0 86.667 -30.333 160.334 -91 221.001
s-134.334 91 -221.001 91c-86 0 -159.5 -30.333 -220.5 -91s-91.5 -134.334 -91.5 -221.001c0 -85.333 30.5 -158.333 91.5 -219s134.5 -91 220.5 -91z" />
    <glyph glyph-name="colon" unicode=":" horiz-adv-x="569" 
d="M311 1208c34 0 63.167 -12 87.5 -36s36.5 -53.667 36.5 -89c0 -34.667 -12.167 -64.167 -36.5 -88.5s-53.5 -36.5 -87.5 -36.5c-34.667 0 -64 12.167 -88 36.5s-36 53.833 -36 88.5c0 34 12 63.333 36 88s53.333 37 88 37zM311 305c34 0 63.167 -12.167 87.5 -36.5
s36.5 -53.833 36.5 -88.5c0 -34 -12.167 -63.167 -36.5 -87.5s-53.5 -36.5 -87.5 -36.5c-34.667 0 -64 12.167 -88 36.5s-36 53.5 -36 87.5c0 34.667 12 64.167 36 88.5s53.333 36.5 88 36.5z" />
    <glyph glyph-name="semicolon" unicode=";" horiz-adv-x="569" 
d="M312 1208c34 0 63 -12 87 -36s36 -53.667 36 -89c0 -34.667 -12 -64.167 -36 -88.5s-53 -36.5 -87 -36.5c-34.667 0 -64 12.167 -88 36.5s-36 53.833 -36 88.5c0 34 12 63.333 36 88s53.333 37 88 37zM296 356l137 -65l-205 -380l-100 42z" />
    <glyph glyph-name="less" unicode="&#x3c;" horiz-adv-x="1249" 
d="M1146 434v-148l-1042 473v131l1042 475v-149l-846 -392z" />
    <glyph glyph-name="equal" unicode="=" horiz-adv-x="1249" 
d="M1135 1115v-138h-1020v138h1020zM1135 672v-138h-1020v138h1020z" />
    <glyph glyph-name="greater" unicode="&#x3e;" horiz-adv-x="1249" 
d="M104 434l846 390l-846 392v149l1042 -475v-131l-1042 -473v148z" />
    <glyph glyph-name="question" unicode="?" horiz-adv-x="1216" 
d="M316 1163l-146.001 0.00292969c1.33301 135.333 41.833 242.666 121.5 321.999s186.5 119 320.5 119c132 0 235.5 -33.5 310.5 -100.5s112.5 -149.5 112.5 -247.5c0 -47.333 -10.333 -91 -31 -131s-51.834 -76 -93.501 -108s-114.5 -68.333 -218.5 -109
c-131.333 -52 -210.666 -91 -237.999 -117c-28 -26 -42 -57.667 -42 -95c0 -38.667 19 -73.5 57 -104.5s87 -46.5 147 -46.5c66.667 0 117.834 17 153.501 51s57.5 88.333 65.5 163h147c-4.66699 -112 -39.334 -199.167 -104.001 -261.5s-152 -93.5 -262 -93.5
c-108.667 0 -195.167 28.167 -259.5 84.5s-96.5 126.166 -96.5 209.499c0 40 8.83301 78 26.5 114s42.834 66 75.501 90s94 54.667 184 92c145.333 58.667 238.333 102.667 279 132c40 29.333 60 71.666 60 126.999c0 58.667 -24.5 108.167 -73.5 148.5
s-114.833 60.5 -197.5 60.5c-100.667 0 -179 -33.333 -235 -100c-39.333 -46 -60.333 -112.333 -63 -199zM609.999 305.003c34.667 0 64 -12.167 88 -36.5s36 -53.833 36 -88.5c0 -34 -12 -63.167 -36 -87.5s-53.333 -36.5 -88 -36.5c-34 0 -63 12.167 -87 36.5
s-36 53.5 -36 87.5c0 34.667 12 64.167 36 88.5s53 36.5 87 36.5z" />
    <glyph glyph-name="at" unicode="@" horiz-adv-x="1788" 
d="M1455 387l106.003 -0.000976562c-90 -112 -173 -191 -249 -237c-108.667 -62.667 -232.667 -94 -372 -94c-147.333 0 -283.166 34.667 -407.499 104s-221.333 164.333 -291 285s-104.5 252 -104.5 394c0 144.667 35.167 279 105.5 403s166 220.667 287 290
s253.5 104 397.5 104c202 0 373 -65 513 -195s210 -281.333 210 -454c0 -126 -29 -234.5 -87 -325.5s-137 -161.833 -237 -212.5c-76 -39.333 -140.667 -59 -194 -59c-39.333 0 -70.333 10.667 -93 32c-17.333 16 -26.333 42.667 -27 80
c-22.667 -28.667 -54 -52.667 -94 -72s-81.667 -29 -125 -29c-96.667 0 -176.5 33.5 -239.5 100.5s-94.5 155.5 -94.5 265.5c0 118.667 38.167 227.167 114.5 325.5s181.5 147.5 315.5 147.5c59.333 0 109 -11.167 149 -33.5s78 -61.166 114 -116.499l27 139h108l-117 -659
c-3.33301 -21.333 -5 -35.333 -5 -42c0 -14.667 4.66699 -26.5 14 -35.5s21.666 -13.5 36.999 -13.5c39.333 0 90.666 23 153.999 69s112.666 105.167 147.999 177.5s53 152.5 53 240.5c0 170.667 -66 312.334 -198 425.001c-124 104 -274.333 156 -451 156
c-132 0 -251.667 -30.167 -359 -90.5s-192 -145.166 -254 -254.499s-93 -227 -93 -353c0 -128.667 31.167 -247.334 93.5 -356.001s148.833 -194 259.5 -256s232.334 -93 365.001 -93c97.333 0 185.666 17.667 264.999 53s164.666 98.666 255.999 189.999zM844.003 514.999
c44 0 85.5 13.832 124.5 41.499s69.833 69.5 92.5 125.5c29.333 73.333 44 147 44 221c0 68 -19 123.167 -57 165.5s-87 63.5 -147 63.5c-80.667 0 -150.334 -33.167 -209.001 -99.5s-88 -148.833 -88 -247.5c0 -83.333 22.333 -149.166 67 -197.499
s102.334 -72.5 173.001 -72.5z" />
    <glyph glyph-name="A" unicode="A" horiz-adv-x="1527" 
d="M786 1566l691 -1483h-158l-233 489h-640l-231 -489h-166l701 1483h36zM768 1252l-256 -538h508z" />
    <glyph glyph-name="B" unicode="B" horiz-adv-x="1183" 
d="M183 1566l293.003 -0.000976562c117.333 0 207.666 -14 270.999 -42s113.166 -71 149.499 -129s54.5 -122 54.5 -192c0 -66 -16.167 -126 -48.5 -180s-79.833 -97.667 -142.5 -131c78 -26.667 137.667 -57.5 179 -92.5s73.666 -77.5 96.999 -127.5s35 -104.333 35 -163
c0 -119.333 -43.667 -220.166 -131 -302.499s-204 -123.5 -350 -123.5h-407v1483zM328.003 1421v-475h85c102.667 0 178.167 9.66699 226.5 29s86.666 49.5 114.999 90.5s42.5 86.833 42.5 137.5c0 68 -23.667 121.333 -71 160s-122.666 58 -225.999 58h-172z
M328.003 796.999l0.000976562 -568.999h184c108 0 187.167 10.667 237.5 32s90.833 54.333 121.5 99s46 93.667 46 147c0 65.333 -21.5 122.666 -64.5 171.999s-102.167 83 -177.5 101c-50.667 12 -138.334 18 -263.001 18h-84z" />
    <glyph glyph-name="C" unicode="C" horiz-adv-x="1677" 
d="M1561 1290l-117.999 -88c-64 84 -141.167 147.5 -231.5 190.5s-189.5 64.5 -297.5 64.5c-118.667 0 -228.334 -28.333 -329.001 -85s-178.834 -132.834 -234.501 -228.501s-83.5 -203.5 -83.5 -323.5c0 -180.667 62 -331.5 186 -452.5s280.333 -181.5 469 -181.5
c208 0 381.667 81.333 521 244l118 -89c-74 -94 -166.333 -166.667 -277 -218s-234 -77 -370 -77c-260 0 -465 86.333 -615 259c-125.333 146 -188 322 -188 528c0 216.667 76.167 399.334 228.5 548.001s342.833 223 571.5 223c138.667 0 263.834 -27.5 375.501 -82.5
s203.167 -132.167 274.5 -231.5z" />
    <glyph glyph-name="D" unicode="D" horiz-adv-x="1534" 
d="M179 83l-0.000976562 1483h307c222 0 383.333 -18 484 -54c143.333 -50 255.5 -137.167 336.5 -261.5s121.5 -272.5 121.5 -444.5c0 -148 -32.167 -278.667 -96.5 -392s-147.666 -196.833 -249.999 -250.5s-245.833 -80.5 -430.5 -80.5h-472zM320.999 224l171 0.00195312
c204.667 0 347 12.667 427 38c111.333 36 199 101.167 263 195.5s96 209.833 96 346.5c0 143.333 -34.5 265.666 -103.5 366.999s-165.5 170.666 -289.5 207.999c-93.333 28.667 -246.333 43 -459 43h-105v-1198z" />
    <glyph glyph-name="E" unicode="E" horiz-adv-x="1105" 
d="M180 1566h850v-146h-702v-464h696v-144h-696v-582h696v-147h-844v1483z" />
    <glyph glyph-name="F" unicode="F" horiz-adv-x="999" 
d="M179 1566h743v-146h-595v-464h595v-146h-595v-727h-148v1483z" />
    <glyph glyph-name="G" unicode="G" horiz-adv-x="1798" 
d="M1610 1317l-114.999 -109.004c-82.667 81.333 -173.167 143 -271.5 185s-194.5 63 -288.5 63c-116 0 -226.5 -28.667 -331.5 -86s-186.5 -134.666 -244.5 -231.999s-87 -200.666 -87 -309.999c0 -112 30 -218.167 90 -318.5s142.833 -179 248.5 -236
s221.167 -85.5 346.5 -85.5c152 0 280.833 43 386.5 129s168.5 197.333 188.5 334h-473v143h638c-1.33301 -229.333 -69.166 -411.333 -203.499 -546s-314.833 -202 -541.5 -202c-273.333 0 -490 93.333 -650 280c-123.333 144 -185 310.333 -185 499
c0 140.667 35.167 271.334 105.5 392.001s167.166 215.334 290.499 284.001s262.666 103 417.999 103c125.333 0 243.333 -22.833 354 -68.5s219 -118.5 325 -218.5z" />
    <glyph glyph-name="H" unicode="H" horiz-adv-x="1407" 
d="M177 1566h149v-622h755v622h148v-1483h-148v715h-755v-715h-149v1483z" />
    <glyph glyph-name="I" unicode="I" horiz-adv-x="465" 
d="M158 1566h148v-1483h-148v1483z" />
    <glyph glyph-name="J" unicode="J" horiz-adv-x="993" 
d="M664 1566l148.999 0.000976562v-1000c0 -154.667 -11.833 -262 -35.5 -322s-63.5 -108 -119.5 -144s-123.333 -54 -202 -54c-59.333 0 -118.166 11.667 -176.499 35s-122.833 64 -193.5 122l79 118c76.667 -54.667 140.667 -92.667 192 -114c34 -15.333 67 -23 99 -23
c42 0 80.5 12.833 115.5 38.5s59.167 59.667 72.5 102s20 124.166 20 245.499v996z" />
    <glyph glyph-name="K" unicode="K" horiz-adv-x="1218" 
d="M179 1566h151v-556l592 556h200l-713 -666l768 -817h-195l-652 691v-691h-151v1483z" />
    <glyph glyph-name="L" unicode="L" horiz-adv-x="952" 
d="M179 1566h149v-1340h570v-143h-719v1483z" />
    <glyph glyph-name="M" unicode="M" horiz-adv-x="1895" 
d="M112 83l211 1483h24l603 -1216l596 1216h24l214 -1483h-147l-145 1061l-524 -1061h-38l-531 1068l-144 -1068h-143z" />
    <glyph glyph-name="N" unicode="N" horiz-adv-x="1524" 
d="M180 83v1483h32l986 -1135v1135h146v-1483h-34l-976 1121v-1121h-154z" />
    <glyph glyph-name="O" unicode="O" horiz-adv-x="1792" 
d="M887 1604c224 0 411.501 -75 562.501 -225s226.5 -334.667 226.5 -554c0 -216.667 -75.333 -400.667 -226 -552s-334.334 -227 -551.001 -227c-220 0 -405.667 75.167 -557 225.5s-227 332.5 -227 546.5c0 142 34.333 274 103 396s162.667 217.5 282 286.5
s248.333 103.5 387 103.5zM893.001 1458c-109.333 0 -213.167 -28.499 -311.5 -85.499s-174.833 -134 -229.5 -231s-82 -204.833 -82 -323.5c0 -176 60.833 -324.667 182.5 -446s268.5 -182 440.5 -182c114.667 0 221 28 319 84s174.333 132.167 229 228.5
s82 203.833 82 322.5c0 117.333 -27.333 223.666 -82 318.999s-131.667 171.5 -231 228.5s-205 85.5 -317 85.5z" />
    <glyph glyph-name="P" unicode="P" horiz-adv-x="1219" 
d="M178 1566l295.001 0.000976562c170 0 284.333 -7.33301 343 -22c85.333 -21.333 154.666 -64.333 207.999 -129s80 -146.334 80 -245.001c0 -98 -26.167 -179.167 -78.5 -243.5s-124.5 -107.5 -216.5 -129.5c-67.333 -16 -193 -24 -377 -24h-106v-690h-148v1483z
M326.001 1422v-503.999l252 -3c100.667 0 174.5 9.16699 221.5 27.5s84 48.333 111 90s40.5 87.5 40.5 137.5c0 50.667 -13.5 96.667 -40.5 138s-62.5 70.666 -106.5 87.999s-116 26 -216 26h-262z" />
    <glyph glyph-name="Q" unicode="Q" horiz-adv-x="1796" 
d="M1424 244l219 -276.999h-182l-151 191c-120.667 -74.667 -257 -112 -409 -112c-220 0 -405.667 75.167 -557 225.5s-227 332.5 -227 546.5c0 142 34.667 274 104 396s163.5 217.5 282.5 286.5s249.833 103.5 392.5 103.5c220 0 405.333 -75.333 556 -226
s226 -335.334 226 -554.001c0 -114 -20.5 -218.333 -61.5 -313s-105.167 -183.667 -192.5 -267zM1331 360.001c129.333 126 194 281.001 194 465.001c0 117.333 -27.333 223.666 -82 318.999s-131.667 171.5 -231 228.5s-204.333 85.5 -315 85.5
s-215.167 -28.333 -313.5 -85s-174.833 -133.667 -229.5 -231s-82 -205.333 -82 -324c0 -176 60.833 -324.667 182.5 -446s268.5 -182 440.5 -182c117.333 0 224.333 28.333 321 85l-330 420h180z" />
    <glyph glyph-name="R" unicode="R" horiz-adv-x="1251" 
d="M187 1566l294.999 0.000976562c164.667 0 276.334 -6.66699 335.001 -20c88 -20 159.667 -63.167 215 -129.5s83 -147.833 83 -244.5c0 -81.333 -19 -152.333 -57 -213s-92.5 -106.834 -163.5 -138.501s-168.5 -47.5 -292.5 -47.5l533 -690h-182l-533 690h-85v-690h-148
v1483zM334.999 1421l-0.000976562 -504l255 -2c98.667 0 171.834 9.33301 219.501 28s84.667 48.667 111 90s39.5 87.666 39.5 138.999c0 49.333 -13.5 94.333 -40.5 135s-62.167 69.834 -105.5 87.501s-116 26.5 -218 26.5h-261z" />
    <glyph glyph-name="S" unicode="S" horiz-adv-x="1027" 
d="M27 359l125.999 76c88.667 -163.333 191 -245 307 -245c50 0 97 11.667 141 35s77.333 54.333 100 93s34 80 34 124c0 49.333 -16.667 98 -50 146c-46.667 66 -131.667 145.333 -255 238c-124 93.333 -200.667 161 -230 203c-52.667 69.333 -79 145 -79 227
c0 64.667 15.333 123.334 46 176.001s74.167 94.5 130.5 125.5s117.5 46.5 183.5 46.5c69.333 0 134.333 -17.5 195 -52.5s125 -98.833 193 -191.5l-121 -91c-55.333 73.333 -102.666 121.833 -141.999 145.5s-82.333 35.5 -129 35.5c-59.333 0 -108 -18.167 -146 -54.5
s-57 -80.833 -57 -133.5c0 -32 6.66699 -63.333 20 -94s38 -63.334 74 -98.001c19.333 -19.333 83.333 -69 192 -149c128 -94.667 215.833 -179 263.5 -253s71.5 -148 71.5 -222c0 -108 -40.833 -201.667 -122.5 -281s-180.834 -119 -297.501 -119
c-90.667 0 -172.667 24 -246 72s-140.666 128.333 -201.999 241z" />
    <glyph glyph-name="T" unicode="T" horiz-adv-x="879" 
d="M33 1422v144h814v-144h-332v-1339h-151v1339h-331z" />
    <glyph glyph-name="U" unicode="U" horiz-adv-x="1349" 
d="M184 1566l147.998 0.000976562v-895c0 -106 2.33301 -172.333 7 -199c7.33301 -58.667 24.333 -107.5 51 -146.5s67.834 -71.667 123.501 -98s111.834 -39.5 168.501 -39.5c48.667 0 95.667 10.333 141 31s83 49.334 113 86.001s52 81.667 66 135
c10.667 37.333 16 114.333 16 231v895h148v-895c0 -132.667 -13 -239.834 -39 -321.501s-77.833 -152.667 -155.5 -213s-171.5 -90.5 -281.5 -90.5c-120 0 -222.5 28.667 -307.5 86s-141.833 132.666 -170.5 225.999c-18.667 58.667 -28 163 -28 313v895z" />
    <glyph glyph-name="V" unicode="V" horiz-adv-x="1448" 
d="M67 1566h161l491 -1146l500 1146h162l-646 -1483h-32z" />
    <glyph glyph-name="W" unicode="W" horiz-adv-x="1980" 
d="M96 1566h152l302 -1069l424 1069h32l420 -1069l307 1069h151l-425 -1483h-29l-439 1122l-449 -1122h-27z" />
    <glyph glyph-name="X" unicode="X" horiz-adv-x="1255" 
d="M101 1566h173l355 -578l358 578h172l-442 -718l470 -765h-172l-386 622l-387 -622h-173l473 765z" />
    <glyph glyph-name="Y" unicode="Y" horiz-adv-x="1220" 
d="M63 1566h172l379 -610l372 610h171l-469 -774v-709h-146v709z" />
    <glyph glyph-name="Z" unicode="Z" horiz-adv-x="990" 
d="M122 1422v144h782l-619 -1339h588v-144h-817l624 1339h-558z" />
    <glyph glyph-name="bracketleft" unicode="[" horiz-adv-x="721" 
d="M290 1604h338v-144h-196v-1639h196v-138h-338v1921z" />
    <glyph glyph-name="backslash" unicode="\" horiz-adv-x="1248" 
d="M221 1604l960 -1722h-154l-961 1722h155z" />
    <glyph glyph-name="bracketright" unicode="]" horiz-adv-x="721" 
d="M431 -317h-338v143h197v1640h-197v138h338v-1921z" />
    <glyph glyph-name="asciicircum" unicode="^" horiz-adv-x="1385" 
d="M634 1566h118l514 -1114h-134l-442 958l-440 -958h-130z" />
    <glyph glyph-name="underscore" unicode="_" horiz-adv-x="1055" 
d="M1 212h1056v-129h-1056v129z" />
    <glyph glyph-name="grave" unicode="`" horiz-adv-x="777" 
d="M328 1694l220 -310h-139l-298 310h217z" />
    <glyph glyph-name="a" unicode="a" horiz-adv-x="1407" 
d="M1249 1180l-0.00292969 -1097h-139v189c-59.333 -72 -125.666 -126 -198.999 -162s-153.666 -54 -240.999 -54c-155.333 0 -288 56.167 -398 168.5s-165 249.166 -165 410.499c0 158 55.333 293 166 405s244 168 400 168c90.667 0 172.334 -19 245.001 -57
s136.667 -95.667 192 -173v202h139zM683.997 1072c-78 0 -150.33 -19.3301 -216.997 -57.9971s-119.667 -92.834 -159 -162.501s-59 -143.834 -59 -222.501c0 -76.667 20 -150.334 60 -221.001s93.333 -125.667 160 -165s138 -59 214 -59
c77.333 0 150.666 19.333 219.999 58s122.666 91.5 159.999 158.5s56 142.167 56 225.5c0 126.667 -41.833 232.667 -125.5 318s-186.834 128 -309.501 128z" />
    <glyph glyph-name="b" unicode="b" horiz-adv-x="1405" 
d="M165 83l0.00195312 1521h140v-612c59.333 72.667 125.666 126.834 198.999 162.501s153.666 53.5 240.999 53.5c154.667 0 287 -56.333 397 -169s165 -249.334 165 -410.001c0 -158 -55.333 -293 -166 -405s-244 -168 -400 -168c-89.333 0 -170.5 19 -243.5 57
s-137.167 95.333 -192.5 172v-202h-140zM729.002 191c79.333 0 152.166 19.499 218.499 58.499s119.166 93.167 158.499 162.5s59 143.333 59 222c0 77.333 -19.833 151.5 -59.5 222.5s-93 126 -160 165s-138.5 58.5 -214.5 58.5c-77.333 0 -150.666 -19.5 -219.999 -58.5
s-122.666 -92 -159.999 -159s-56 -141.833 -56 -224.5c0 -127.333 42 -233.666 126 -318.999s186.667 -128 308 -128z" />
    <glyph glyph-name="c" unicode="c" horiz-adv-x="1334" 
d="M1221 952l-112.002 -70c-96.667 129.333 -228.667 194 -396 194c-134 0 -245.167 -43 -333.5 -129s-132.5 -190.667 -132.5 -314c0 -80 20.333 -155.5 61 -226.5s96.334 -125.833 167.001 -164.5s150 -58 238 -58c162 0 294 64 396 192l112 -73
c-52.667 -78.667 -123.167 -139.5 -211.5 -182.5s-189.166 -64.5 -302.499 -64.5c-172.667 0 -316.167 55 -430.5 165s-171.5 243.667 -171.5 401c0 106.667 26.833 205.5 80.5 296.5s127 162 220 213s197.5 76.5 313.5 76.5c72 0 141.833 -11 209.5 -33
s125.167 -50.833 172.5 -86.5s87.333 -81.167 120 -136.5z" />
    <glyph glyph-name="d" unicode="d" horiz-adv-x="1411" 
d="M1251 1604l-0.00292969 -1521h-139v189c-59.333 -72 -125.666 -126 -198.999 -162s-153.666 -54 -240.999 -54c-155.333 0 -288 56.167 -398 168.5s-165 249.166 -165 410.499c0 158 55.333 293 166 405s244 168 400 168c90.667 0 172.334 -19 245.001 -57
s136.667 -95.667 192 -173v626h139zM685.997 1072c-78 0 -150.33 -19.3301 -216.997 -57.9971s-119.667 -92.834 -159 -162.501s-59 -143.834 -59 -222.501c0 -76.667 20 -150.334 60 -221.001s93.333 -125.667 160 -165s138 -59 214 -59
c77.333 0 150.666 19.333 219.999 58s122.666 91.5 159.999 158.5s56 142.167 56 225.5c0 126.667 -41.833 232.667 -125.5 318s-186.834 128 -309.501 128z" />
    <glyph glyph-name="e" unicode="e" horiz-adv-x="1340" 
d="M1080 447l118 -62.999c-38 -76.667 -82.667 -138.334 -134 -185.001s-109 -82.167 -173 -106.5s-136.333 -36.5 -217 -36.5c-178.667 0 -318.334 58.5 -419.001 175.5s-151 249.167 -151 396.5c0 139.333 42.667 263.333 128 372c108 138.667 253 208 435 208
c186 0 335 -71 447 -213c79.333 -100 119.333 -224.667 120 -374h-985c2.66699 -128 43.334 -232.833 122.001 -314.5s175.667 -122.5 291 -122.5c56 0 110.333 9.83301 163 29.5s97.5 45.5 134.5 77.5s77.167 84 120.5 156zM1080 742.001
c-18.667 75.333 -46.002 135.501 -82.002 180.501s-83.667 81.333 -143 109s-121.666 41.5 -186.999 41.5c-107.333 0 -199.666 -34.667 -276.999 -104c-56 -50.667 -98.333 -126.334 -127 -227.001h816z" />
    <glyph glyph-name="f" unicode="f" horiz-adv-x="647" 
d="M608 1604l-0.00195312 -137.998c-52 21.333 -96.333 32 -133 32c-27.333 0 -50.166 -5.33301 -68.499 -16s-29.666 -23.334 -33.999 -38.001s-6.5 -53.334 -6.5 -116.001v-148h228v-121h-229v-976h-142v976h-144v121h144v172c0 78 7.16699 133.833 21.5 167.5
s39 60.667 74 81s76.833 30.5 125.5 30.5c45.333 0 100 -9 164 -27z" />
    <glyph glyph-name="g" unicode="g" horiz-adv-x="1387" 
d="M1101 1180l143.001 0.000976562v-874c0 -154 -13.667 -266.667 -41 -338c-36.667 -100.667 -100.834 -178.167 -192.501 -232.5s-201.5 -81.5 -329.5 -81.5c-94.667 0 -179.334 13.333 -254.001 40s-135.667 62.334 -183 107.001s-90.666 110 -129.999 196h153
c42 -72.667 95.833 -126.334 161.5 -161.001s147.5 -52 245.5 -52c96 0 177.167 18 243.5 54s113.5 81 141.5 135s42 141.667 42 263v56c-52.667 -67.333 -117.5 -119 -194.5 -155s-158.167 -54 -243.5 -54c-100.667 0 -195.5 25 -284.5 75s-157.667 117.5 -206 202.5
s-72.5 178.167 -72.5 279.5s25.167 195.833 75.5 283.5s120.166 157 209.499 208s183 76.5 281 76.5c82.667 0 159.334 -16.833 230.001 -50.5s139 -89.834 205 -168.501v191zM684.001 1072c-80 0 -154.17 -19.334 -222.503 -58.001s-122 -92 -161 -160
s-58.5 -141.667 -58.5 -221c0 -120.667 40.333 -220.334 121 -299.001s185 -118 313 -118c130.667 0 235.334 39 314.001 117s118 180.667 118 308c0 82.667 -18.167 156.334 -54.5 221.001s-87.666 115.834 -153.999 153.501s-138.166 56.5 -215.499 56.5z" />
    <glyph glyph-name="h" unicode="h" horiz-adv-x="1256" 
d="M156 1604l142 -0.000976562v-621c56.667 75.333 119.167 131.666 187.5 168.999s142.5 56 222.5 56c82.667 0 155.667 -20.833 219 -62.5s110 -97.5 140 -167.5s45 -180.333 45 -331v-564h-140v523c0 126.667 -5.33301 211.334 -16 254.001
c-17.333 72.667 -49 127.167 -95 163.5s-106.333 54.5 -181 54.5c-85.333 0 -161.833 -28.167 -229.5 -84.5s-112.167 -126.166 -133.5 -209.499c-12.667 -53.333 -19 -153 -19 -299v-402h-142v1521z" />
    <glyph glyph-name="i" unicode="i" horiz-adv-x="412" 
d="M206 1631c32 0 59.5 -11.333 82.5 -34s34.5 -50 34.5 -82s-11.5 -59.5 -34.5 -82.5s-50.5 -34.5 -82.5 -34.5s-59.333 11.5 -82 34.5s-34 50.5 -34 82.5s11.333 59.333 34 82s50 34 82 34zM136 1180h141v-1097h-141v1097z" />
    <glyph glyph-name="j" unicode="j" horiz-adv-x="419" 
d="M210 1631c32.667 0 60.167 -11.333 82.5 -34s33.5 -50 33.5 -82s-11.167 -59.5 -33.5 -82.5s-49.833 -34.5 -82.5 -34.5c-32 0 -59.333 11.5 -82 34.5s-34 50.5 -34 82.5s11.333 59.333 34 82s50 34 82 34zM141 1180h143v-1262c0 -92 -16.667 -159 -50 -201
s-79 -63 -137 -63c-47.333 0 -101 11.667 -161 35v127c38.667 -20 72.667 -30 102 -30c38.667 0 67 16 85 48c12 20 18 62 18 126v1220z" />
    <glyph glyph-name="k" unicode="k" horiz-adv-x="1035" 
d="M155 1604h142v-866l507 442h208l-601 -523l636 -574h-200l-550 493v-493h-142v1521z" />
    <glyph glyph-name="l" unicode="l" horiz-adv-x="412" 
d="M135 1604h142v-1521h-142v1521z" />
    <glyph glyph-name="m" unicode="m" horiz-adv-x="1934" 
d="M155 1180l140.003 -0.00292969v-190c49.333 70 100 121.333 152 154c70.667 42.667 145.334 64 224.001 64c52.667 0 103 -10.5 151 -31.5s87 -48.667 117 -83s56.333 -83.833 79 -148.5c47.333 86 106.166 151.333 176.499 196s146.166 67 227.499 67
c76 0 143 -19 201 -57s101.167 -91.5 129.5 -160.5s42.5 -171.833 42.5 -308.5v-599h-144v599c0 117.333 -8.33301 198 -25 242s-45.334 79.5 -86.001 106.5s-89.667 40.5 -147 40.5c-68 0 -130.333 -20.167 -187 -60.5s-98.167 -94.166 -124.5 -161.499
s-39.5 -179.333 -39.5 -336v-430h-141v562c0 132 -8.16699 221.833 -24.5 269.5s-44.833 85.667 -85.5 114s-89.334 42.5 -146.001 42.5c-65.333 0 -126.333 -19.667 -183 -59s-98.667 -92.166 -126 -158.499s-41 -168.166 -41 -305.499v-465h-140v1097z" />
    <glyph glyph-name="n" unicode="n" horiz-adv-x="1256" 
d="M156 1180h142v-197c56 75.333 118.333 131.666 187 168.999s143 56 223 56c82.667 0 155.667 -20.833 219 -62.5s110 -97.667 140 -168s45 -180.5 45 -330.5v-564h-140v523c0 126.667 -5.33301 211.334 -16 254.001c-16.667 72.667 -48.167 127.167 -94.5 163.5
s-106.833 54.5 -181.5 54.5c-85.333 0 -161.833 -28.167 -229.5 -84.5s-112.167 -126.166 -133.5 -209.499c-12.667 -54.667 -19 -154.334 -19 -299.001v-402h-142v1097z" />
    <glyph glyph-name="o" unicode="o" horiz-adv-x="1349" 
d="M675 1208c168.667 0 308.667 -61 420 -183c100.667 -112 151 -244.333 151 -397s-53.333 -286.167 -160 -400.5s-243.667 -171.5 -411 -171.5c-168 0 -305.167 57.167 -411.5 171.5s-159.5 247.833 -159.5 400.5c0 152 50.333 284 151 396
c111.333 122.667 251.333 184 420 184zM675 1070c-116.667 0 -216.998 -43.333 -300.998 -130s-126 -191.334 -126 -314.001c0 -79.333 19.167 -153.5 57.5 -222.5s90.166 -122 155.499 -159s136.666 -55.5 213.999 -55.5c78.667 0 150.5 18.5 215.5 55.5
s116.5 90 154.5 159s57 143.167 57 222.5c0 122.667 -42 227.334 -126 314.001s-184.333 130 -301 130z" />
    <glyph glyph-name="p" unicode="p" horiz-adv-x="1405" 
d="M158 1180l139.998 -0.000976562v-202c55.333 77.333 119.5 135 192.5 173s154.167 57 243.5 57c156 0 289.333 -56 400 -168s166 -247 166 -405c0 -161.333 -55 -298.166 -165 -410.499s-242.333 -168.5 -397 -168.5c-87.333 0 -167.666 18 -240.999 54
s-139.666 90 -198.999 162v-589h-140v1497zM721.998 1072c-121.333 0 -224 -42.6699 -308 -128.003s-126 -191.333 -126 -318c0 -83.333 18.667 -158.5 56 -225.5s90.666 -119.833 159.999 -158.5s142.666 -58 219.999 -58c76 0 147.5 19.667 214.5 59
s120.333 94.333 160 165s59.5 144.334 59.5 221.001c0 78.667 -19.667 152.834 -59 222.501s-92.166 123.834 -158.499 162.501s-139.166 58 -218.499 58z" />
    <glyph glyph-name="q" unicode="q" horiz-adv-x="1405" 
d="M1248 1180l-0.00292969 -1497h-139v589c-59.333 -72 -125.666 -126 -198.999 -162s-153.666 -54 -240.999 -54c-155.333 0 -288 56.167 -398 168.5s-165 249.166 -165 410.499c0 158 55.333 293 166 405s244 168 400 168c90.667 0 172.334 -19 245.001 -57
s136.667 -95.667 192 -173v202h139zM682.997 1072c-78 0 -150.33 -19.3301 -216.997 -57.9971s-119.667 -92.834 -159 -162.501s-59 -143.834 -59 -222.501c0 -76.667 20 -150.334 60 -221.001s93.333 -125.667 160 -165s138 -59 214 -59
c77.333 0 150.666 19.333 219.999 58s122.666 91.5 159.999 158.5s56 142.167 56 225.5c0 126.667 -41.833 232.667 -125.5 318s-186.834 128 -309.501 128z" />
    <glyph glyph-name="r" unicode="r" horiz-adv-x="620" 
d="M103 1180l144 0.000976562v-161c43.333 63.333 88.833 110.666 136.5 141.999s97.5 47 149.5 47c38.667 0 80 -12.667 124 -38l-73 -118c-29.333 12.667 -54 19 -74 19c-47.333 0 -92.833 -19.167 -136.5 -57.5s-77.167 -98.5 -100.5 -180.5
c-17.333 -62 -26 -188.333 -26 -379v-371h-144v1097z" />
    <glyph glyph-name="s" unicode="s" horiz-adv-x="800" 
d="M708 1060l-90.001 -94c-76 73.333 -149.667 110 -221 110c-46 0 -85.333 -15 -118 -45s-49 -65.667 -49 -107c0 -34.667 13.667 -68 41 -100c26.667 -34 83 -73 169 -117c105.333 -54 176.666 -106.333 213.999 -157c36.667 -51.333 55 -109 55 -173
c0 -89.333 -31.5 -165.166 -94.5 -227.499s-141.833 -93.5 -236.5 -93.5c-63.333 0 -123.833 13.5 -181.5 40.5s-105.167 64.833 -142.5 113.5l89 101c72 -81.333 148.333 -122 229 -122c56 0 103.833 18.167 143.5 54.5s59.5 78.833 59.5 127.5
c0 40.667 -13 76.667 -39 108s-85 70.666 -177 117.999c-99.333 50 -166.666 100.333 -201.999 151c-36 49.333 -54 106 -54 170c0 83.333 28.5 152.5 85.5 207.5s128.5 82.5 214.5 82.5c100.667 0 202.334 -49.333 305.001 -148z" />
    <glyph glyph-name="t" unicode="t" horiz-adv-x="698" 
d="M279 1587h143v-407h223v-121h-223v-976h-143v976h-192v121h192v407z" />
    <glyph glyph-name="u" unicode="u" horiz-adv-x="1253" 
d="M138 1180l141.998 -0.000976562v-512c0 -125.333 6.66699 -211.333 20 -258c20 -67.333 58.333 -120.5 115 -159.5s124.667 -58.5 204 -58.5c78.667 0 145.334 19 200.001 57s92.334 88 113.001 150c14.667 42 22 131.667 22 269v512h144v-539
c0 -151.333 -17.833 -265.166 -53.5 -341.499s-88.834 -136 -159.501 -179s-159.334 -64.5 -266.001 -64.5c-107.333 0 -196.666 21.5 -267.999 64.5s-124.666 103.333 -159.999 181s-53 194.5 -53 350.5v528z" />
    <glyph glyph-name="v" unicode="v" 
d="M53 1180h150l367 -798l364 798h151l-502 -1097h-25z" />
    <glyph glyph-name="w" unicode="w" horiz-adv-x="1715" 
d="M9 1180h145l336 -797l352 797h25l350 -797l342 797h148l-476 -1097h-28l-348 785l-352 -785h-26z" />
    <glyph glyph-name="x" unicode="x" horiz-adv-x="991" 
d="M33 1180h169l290 -407l291 407h169l-376 -521l423 -576h-171l-336 461l-331 -461h-168l415 576z" />
    <glyph glyph-name="y" unicode="y" horiz-adv-x="1106" 
d="M39 1180h149l377 -845l366 845h151l-655 -1497h-149l211 483z" />
    <glyph glyph-name="z" unicode="z" horiz-adv-x="877" 
d="M68 1180h805l-622 -972h602v-125h-844l620 973h-561v124z" />
    <glyph glyph-name="braceleft" unicode="{" horiz-adv-x="723" 
d="M75 678c40.667 2 74.002 10.6641 100.002 25.9971c32.667 18.667 57.5 45.334 74.5 80.001s27.167 83 30.5 145c2 30.667 3.5 101.5 4.5 212.5s8.16699 190.333 21.5 238s34.166 85.5 62.499 113.5s64.166 48.333 107.499 61c26 8 68 12 126 12h56v-158h-31
c-70.667 0 -117.167 -13 -139.5 -39s-33.5 -82.333 -33.5 -169c0 -156.667 -2.33301 -256.667 -7 -300c-8.66699 -82 -28.167 -145 -58.5 -189s-78.833 -82 -145.5 -114c74.667 -31.333 128.5 -78.833 161.5 -142.5s49.5 -167.5 49.5 -311.5
c0 -129.333 1.33301 -205.666 4 -228.999c4 -36 12.333 -64 25 -84c9.33301 -13.333 24.333 -23.833 45 -31.5s64 -11.5 130 -11.5v-158h-56c-67.333 0 -116.333 5.66699 -147 17c-45.333 16.667 -81.666 43.834 -108.999 81.501s-45 87.5 -53 149.5
c-5.33301 44 -8.33301 126.333 -9 247c-0.666992 124 -7.66699 207.833 -21 251.5s-35.833 77.5 -67.5 101.5s-71.834 36.667 -120.501 38v163z" />
    <glyph glyph-name="bar" unicode="|" horiz-adv-x="1377" 
d="M616 1604h144v-1921h-144v1921z" />
    <glyph glyph-name="braceright" unicode="}" horiz-adv-x="723" 
d="M648 678l-0.00195312 -163.002c-40.667 -0.666992 -73.667 -8.66699 -99 -24c-33.333 -19.333 -58.5 -46.166 -75.5 -80.499s-27.167 -82.5 -30.5 -144.5c-1.33301 -31.333 -2.5 -102.5 -3.5 -213.5s-8.33301 -190.167 -22 -237.5s-34.5 -85.166 -62.5 -113.499
s-64 -48.833 -108 -61.5c-26 -7.33301 -68 -11 -126 -11h-56v158h31c70.667 0 117.334 12.833 140.001 38.5s34 81.834 34 168.501c0 160 2.33301 262 7 306c10 81.333 31.5 145 64.5 191s79.167 81.333 138.5 106c-78 37.333 -132.5 86.833 -163.5 148.5
s-46.5 163.167 -46.5 304.5c0 149.333 -3 236.666 -9 261.999c-7.33301 34.667 -21.666 59.334 -42.999 74.001s-62 22 -122 22h-31v158h56c67.333 0 116.666 -6 147.999 -18c44.667 -16.667 80.667 -43.834 108 -81.501s45 -87.167 53 -148.5c6 -44 9 -126.667 9 -248
c1.33301 -123.333 8.5 -207 21.5 -251s35.333 -78 67 -102s71.834 -37 120.501 -39z" />
    <glyph glyph-name="asciitilde" unicode="~" horiz-adv-x="1250" 
d="M1136 927v-163c-75.333 -42.667 -129.166 -69.667 -161.499 -81s-63.166 -17 -92.499 -17c-64 0 -153 26 -267 78c-88.667 40 -145.334 64 -170.001 72s-47.667 12 -69 12c-29.333 0 -61.833 -6.33301 -97.5 -19s-91.167 -41.334 -166.5 -86.001v161
c73.333 41.333 126.666 67.833 159.999 79.5s65.333 17.5 96 17.5c65.333 0 155.333 -27.333 270 -82c80 -37.333 134.5 -60.666 163.5 -69.999s55.167 -14 78.5 -14c28 0 56.667 5.66699 86 17s86 43 170 95z" />
    <glyph glyph-name="afii10023" unicode="&#x401;" horiz-adv-x="1145" 
d="M180 1470h850v-136h-702v-434h696v-136h-696v-544h696v-137h-844v1387zM419 1791c32 0 59.5 -10.667 82.5 -32s34.5 -47 34.5 -77c0 -30.667 -11.5 -56.667 -34.5 -78s-50.5 -32 -82.5 -32s-59.5 10.667 -82.5 32s-34.5 47.333 -34.5 78c0 30 11.5 55.667 34.5 77
s50.5 32 82.5 32zM830 1791c32 0 59.5 -10.667 82.5 -32s34.5 -47 34.5 -77c0 -30.667 -11.5 -56.667 -34.5 -78s-50.5 -32 -82.5 -32c-32.667 0 -60.334 10.667 -83.001 32s-34 47.333 -34 78c0 30 11.333 55.667 34 77s50.334 32 83.001 32z" />
    <glyph glyph-name="afii10051" unicode="&#x402;" horiz-adv-x="1384" 
d="M514 1422l-0.000976562 -478.001h137c158.667 0 277.5 -11.833 356.5 -35.5s142.333 -73 190 -148s71.5 -168.5 71.5 -280.5c0 -137.333 -30.167 -243.666 -90.5 -318.999s-146.166 -113 -257.499 -113c-97.333 0 -179.333 33.333 -246 100l91 102
c44 -40.667 91.667 -61 143 -61c66 0 117 26 153 78s54 123 54 213c0 90.667 -14.833 158.667 -44.5 204s-71.667 76 -126 92s-137.5 24 -249.5 24h-182v-717h-151v1339h-331v144h814v-144h-332z" />
    <glyph glyph-name="afii10052" unicode="&#x403;" horiz-adv-x="1070" 
d="M325 83h-148v1335h743v-132h-595v-1203zM610 1782h216l-296 -278h-139z" />
    <glyph glyph-name="afii10053" unicode="&#x404;" horiz-adv-x="1907" 
d="M503.5 325.5c123 -93 264.169 -139.5 423.502 -139.5c208.667 0 382.334 81.333 521.001 244l118 -89c-155.333 -196.667 -371.333 -295 -648 -295c-245.333 0 -440.333 76.167 -585 228.5s-217 338.5 -217 558.5c0 218 76.333 401 229 549s342.667 222 570 222
c138.667 0 265 -28 379 -84s204.667 -132.667 272 -230l-118 -88c-130.667 170 -307.334 255 -530.001 255c-154.667 0 -295.834 -50 -423.501 -150s-197.834 -234.333 -210.501 -403h695v-146h-701c27.333 -195.333 102.5 -339.5 225.5 -432.5z" />
    <glyph glyph-name="afii10054" unicode="&#x405;" horiz-adv-x="1165" 
d="M27 359l125.999 76c88.667 -163.333 191 -245 307 -245c50 0 97 11.667 141 35s77.333 54.333 100 93s34 80 34 124c0 49.333 -16.667 98 -50 146c-46.667 66 -131.667 145.333 -255 238c-124 93.333 -200.667 161 -230 203c-52.667 69.333 -79 145 -79 227
c0 64.667 15.333 123.334 46 176.001s74.167 94.5 130.5 125.5s117.5 46.5 183.5 46.5c69.333 0 134.333 -17.5 195 -52.5s125 -98.833 193 -191.5l-121 -91c-55.333 73.333 -102.666 121.833 -141.999 145.5s-82.333 35.5 -129 35.5c-59.333 0 -108 -18.167 -146 -54.5
s-57 -80.833 -57 -133.5c0 -32 6.66699 -63.333 20 -94s38 -63.334 74 -98.001c19.333 -19.333 83.333 -69 192 -149c128 -94.667 215.833 -179 263.5 -253s71.5 -148 71.5 -222c0 -108 -40.833 -201.667 -122.5 -281s-180.834 -119 -297.501 -119
c-90.667 0 -172.667 24 -246 72s-140.666 128.333 -201.999 241z" />
    <glyph glyph-name="afii10055" unicode="&#x406;" horiz-adv-x="488" 
d="M158 1566h148v-1483h-148v1483z" />
    <glyph glyph-name="afii10056" unicode="&#x407;" horiz-adv-x="571" 
d="M160 1409h148v-1326h-148v1326zM28 1772c33.333 0 61.333 -10.333 84 -31s34 -45.334 34 -74.001s-11.333 -53.167 -34 -73.5s-50.667 -30.5 -84 -30.5c-30.667 0 -57.667 10.167 -81 30.5s-35 44.833 -35 73.5s11.667 53.334 35 74.001s50.333 31 81 31zM440 1772
c32 0 59.667 -10.333 83 -31s35 -45.334 35 -74.001s-11.667 -53.167 -35 -73.5s-51 -30.5 -83 -30.5s-59.333 10.167 -82 30.5s-34 44.833 -34 73.5s11.333 53.334 34 74.001s50 31 82 31z" />
    <glyph glyph-name="afii10057" unicode="&#x408;" horiz-adv-x="1108" 
d="M664 1566l148.999 0.000976562v-1000c0 -154.667 -11.833 -262 -35.5 -322s-63.5 -108 -119.5 -144s-123.333 -54 -202 -54c-59.333 0 -118.166 11.667 -176.499 35s-122.833 64 -193.5 122l79 118c76.667 -54.667 140.667 -92.667 192 -114c34 -15.333 67 -23 99 -23
c42 0 80.5 12.833 115.5 38.5s59.167 59.667 72.5 102s20 124.166 20 245.499v996z" />
    <glyph glyph-name="afii10058" unicode="&#x409;" horiz-adv-x="2197" 
d="M786 1566l309.001 -635.998h338c160 0 283.667 -12.333 371 -37s155.666 -70.834 204.999 -138.501s74 -151.167 74 -250.5c0 -102 -25.333 -186.833 -76 -254.5s-115.5 -112.334 -194.5 -134.001s-190.833 -32.5 -335.5 -32.5h-158l-551 1169l-556 -1169h-163l701 1483
h36zM1411 226.002l73.002 0.000976562c124.667 0 214 7.16699 268 21.5s96.333 44.166 127 89.499s46 100.666 46 165.999c0 68.667 -16.333 125.834 -49 171.501s-76.334 75.5 -131.001 89.5s-152.334 21 -293.001 21h-304z" />
    <glyph glyph-name="afii10059" unicode="&#x40a;" horiz-adv-x="2151" 
d="M326 945h754.999v621h148v-621h106c143.333 0 250.333 -3.5 321 -10.5s135.834 -26.5 195.501 -58.5s105.5 -77.5 137.5 -136.5s48 -129.833 48 -212.5c0 -113.333 -24 -204.5 -72 -273.5s-111.833 -114.667 -191.5 -137s-212.167 -33.5 -397.5 -33.5h-295v717h-755v-717
h-149v1483h149v-621zM1229 226l158 0.00195312c142 0 242.667 5.66699 302 17s106 39.666 140 84.999s51 108.666 51 189.999c0 74 -17.833 133.833 -53.5 179.5s-82.5 74.167 -140.5 85.5s-168.667 17 -332 17h-125v-574z" />
    <glyph glyph-name="afii10060" unicode="&#x40b;" horiz-adv-x="1401" 
d="M515 83h-150.999v1339h-331v144h814v-144h-332v-478h310c110.667 0 198.167 -15.333 262.5 -46s110.833 -77.167 139.5 -139.5s43 -163.5 43 -303.5v-372h-151v381c0 105.333 -8.33301 178 -25 218s-45.834 69.667 -87.501 89s-100.5 29 -176.5 29h-315v-717z" />
    <glyph glyph-name="afii10061" unicode="&#x40c;" horiz-adv-x="1165" 
d="M179 1566h151v-556l592 556h200l-713 -666l768 -817h-195l-652 691v-691h-151v1483zM631 1761h218l-298 -310h-139z" />
    <glyph glyph-name="afii10062" unicode="&#x40e;" horiz-adv-x="1322" 
d="M67 1562h166.998l449 -1007l410 1011h162l-562 -1333c-52.667 -124.667 -145.667 -187 -279 -187c-54 0 -105 11 -153 33s-108.333 73.333 -181 154l108 89c74.667 -72.667 124.334 -114.167 149.001 -124.5s50 -15.5 76 -15.5c38.667 0 72.334 10.333 101.001 31
s60 73 94 157zM308.998 1770h132.003c23.333 -34.667 54.166 -60.667 92.499 -78s84.166 -26 137.499 -26s96.666 7.66699 129.999 23s64.666 42.333 93.999 81h128c-14 -60.667 -51.5 -111.167 -112.5 -151.5s-141.5 -60.5 -241.5 -60.5c-98 0 -178.167 20 -240.5 60
s-102.166 90.667 -119.499 152z" />
    <glyph glyph-name="afii10145" unicode="&#x40f;" horiz-adv-x="1337" 
d="M602 83h-425v1483h149v-1342h685v1342h149v-1483h-420v-221h-138v221z" />
    <glyph glyph-name="afii10017" unicode="&#x410;" horiz-adv-x="1538" 
d="M786 1566l691 -1483h-158l-233 489h-640l-231 -489h-166l701 1483h36zM768 1252l-256 -538h508z" />
    <glyph glyph-name="afii10018" unicode="&#x411;" horiz-adv-x="1180" 
d="M178 83l-0.000976562 1483h743v-146h-597v-474h70c184.667 0 318.834 -16.167 402.501 -48.5s149.5 -83.666 197.5 -153.999s72 -148.5 72 -234.5c0 -113.333 -42.333 -212.666 -127 -297.999s-202.667 -128 -354 -128h-407zM323.999 796.998l-0.000976562 -569.001h183
c108 0 187.167 10.667 237.5 32s90.5 54 120.5 98s45 93.333 45 148c0 68.667 -21.167 126.834 -63.5 174.501s-95.166 79 -158.499 94s-157 22.5 -281 22.5h-83z" />
    <glyph glyph-name="afii10019" unicode="&#x412;" horiz-adv-x="1149" 
d="M183 1566l293.003 -0.000976562c117.333 0 207.666 -14 270.999 -42s113.166 -71 149.499 -129s54.5 -122 54.5 -192c0 -66 -16.167 -126 -48.5 -180s-79.833 -97.667 -142.5 -131c78 -26.667 137.667 -57.5 179 -92.5s73.666 -77.5 96.999 -127.5s35 -104.333 35 -163
c0 -119.333 -43.667 -220.166 -131 -302.499s-204 -123.5 -350 -123.5h-407v1483zM328.003 1421v-475h85c102.667 0 178.167 9.66699 226.5 29s86.666 49.5 114.999 90.5s42.5 86.833 42.5 137.5c0 68 -23.667 121.333 -71 160s-122.666 58 -225.999 58h-172z
M328.003 796.999l0.000976562 -568.999h184c108 0 187.167 10.667 237.5 32s90.833 54.333 121.5 99s46 93.667 46 147c0 65.333 -21.5 122.666 -64.5 171.999s-102.167 83 -177.5 101c-50.667 12 -138.334 18 -263.001 18h-84z" />
    <glyph glyph-name="afii10020" unicode="&#x413;" horiz-adv-x="952" 
d="M325 83h-148v1483h743v-146h-595v-1337z" />
    <glyph glyph-name="afii10021" unicode="&#x414;" horiz-adv-x="1544" 
d="M176 -138h-146v359h121l581 1345h52l614 -1345h115v-359h-145v221h-1192v-221zM318 221h905l-465 1038z" />
    <glyph glyph-name="afii10022" unicode="&#x415;" horiz-adv-x="1139" 
d="M180 1566h850v-146h-702v-464h696v-144h-696v-582h696v-147h-844v1483z" />
    <glyph glyph-name="afii10024" unicode="&#x416;" horiz-adv-x="1929" 
d="M1038 772v-689h-150v689l-45 41l-606 -730h-197l708 822l-652 661h200l592 -627v627h150v-627l594 627h201l-651 -661l707 -822h-197l-608 730z" />
    <glyph glyph-name="afii10025" unicode="&#x417;" horiz-adv-x="1198" 
d="M209 1422c105.333 121.333 234.333 182.001 387 182.001c121.333 0 221.666 -35.333 300.999 -106s119 -161.334 119 -272.001c0 -158.667 -74 -272 -222 -340c195.333 -60.667 293 -192 293 -394c0 -134 -43.667 -242 -131 -324s-207 -123 -359 -123
c-106.667 0 -199 22 -277 66s-151.667 121 -221 231l115 68c68 -101.333 132 -166.166 192 -194.499s122.333 -42.5 187 -42.5c94 0 174 27.167 240 81.5s99 134.5 99 240.5c0 55.333 -11.167 103.666 -33.5 144.999s-54.166 74.833 -95.499 100.5s-80.333 41.667 -117 48
s-97.667 9.5 -183 9.5h-25v131h49c220 0 330 89 330 267c0 82.667 -25 148.5 -75 197.5s-113.333 73.5 -190 73.5c-100 0 -193.667 -45.333 -281 -136z" />
    <glyph glyph-name="afii10026" unicode="&#x418;" horiz-adv-x="1465" 
d="M1344 83h-154v1137l-976 -1137h-34v1483h148v-1156l982 1156h34v-1483z" />
    <glyph glyph-name="afii10027" unicode="&#x419;" horiz-adv-x="1495" 
d="M1344 83h-154v1137l-976 -1137h-34v1483h148v-1156l982 1156h34v-1483zM404 1779l133.998 0.000976562c22.667 -35.333 53 -61.666 91 -78.999s84 -26 138 -26c53.333 0 96.5 7.66699 129.5 23s64.167 42.666 93.5 81.999h130
c-15.333 -60.667 -53.5 -111.334 -114.5 -152.001s-140.833 -61 -239.5 -61c-99.333 0 -180.166 20 -242.499 60s-102.166 91 -119.499 153z" />
    <glyph glyph-name="afii10028" unicode="&#x41a;" horiz-adv-x="1226" 
d="M179 1566h151v-556l592 556h200l-713 -666l768 -817h-195l-652 691v-691h-151v1483z" />
    <glyph glyph-name="afii10029" unicode="&#x41b;" horiz-adv-x="1447" 
d="M1385 81h-162l-491 1145l-500 -1145h-161l646 1482h31z" />
    <glyph glyph-name="afii10030" unicode="&#x41c;" horiz-adv-x="1882" 
d="M112 83l211 1483h24l603 -1216l596 1216h24l214 -1483h-147l-145 1061l-524 -1061h-38l-531 1068l-144 -1068h-143z" />
    <glyph glyph-name="afii10031" unicode="&#x41d;" horiz-adv-x="1374" 
d="M177 1566h149v-622h755v622h148v-1483h-148v715h-755v-715h-149v1483z" />
    <glyph glyph-name="afii10032" unicode="&#x41e;" horiz-adv-x="1792" 
d="M887 1604c224 0 411.501 -75 562.501 -225s226.5 -334.667 226.5 -554c0 -216.667 -75.333 -400.667 -226 -552s-334.334 -227 -551.001 -227c-220 0 -405.667 75.167 -557 225.5s-227 332.5 -227 546.5c0 142 34.333 274 103 396s162.667 217.5 282 286.5
s248.333 103.5 387 103.5zM893.001 1458c-109.333 0 -213.167 -28.499 -311.5 -85.499s-174.833 -134 -229.5 -231s-82 -204.833 -82 -323.5c0 -176 60.833 -324.667 182.5 -446s268.5 -182 440.5 -182c114.667 0 221 28 319 84s174.333 132.167 229 228.5
s82 203.833 82 322.5c0 117.333 -27.333 223.666 -82 318.999s-131.667 171.5 -231 228.5s-205 85.5 -317 85.5z" />
    <glyph glyph-name="afii10033" unicode="&#x41f;" horiz-adv-x="1407" 
d="M177 1566h1052v-1483h-148v1342h-755v-1342h-149v1483z" />
    <glyph glyph-name="afii10034" unicode="&#x420;" horiz-adv-x="1205" 
d="M178 1566l295.001 0.000976562c170 0 284.333 -7.33301 343 -22c85.333 -21.333 154.666 -64.333 207.999 -129s80 -146.334 80 -245.001c0 -98 -26.167 -179.167 -78.5 -243.5s-124.5 -107.5 -216.5 -129.5c-67.333 -16 -193 -24 -377 -24h-106v-690h-148v1483z
M326.001 1422v-503.999l252 -3c100.667 0 174.5 9.16699 221.5 27.5s84 48.333 111 90s40.5 87.5 40.5 137.5c0 50.667 -13.5 96.667 -40.5 138s-62.5 70.666 -106.5 87.999s-116 26 -216 26h-262z" />
    <glyph glyph-name="afii10035" unicode="&#x421;" horiz-adv-x="1673" 
d="M1561 1290l-117.999 -88c-64 84 -141.167 147.5 -231.5 190.5s-189.5 64.5 -297.5 64.5c-118.667 0 -228.334 -28.333 -329.001 -85s-178.834 -132.834 -234.501 -228.501s-83.5 -203.5 -83.5 -323.5c0 -180.667 62 -331.5 186 -452.5s280.333 -181.5 469 -181.5
c208 0 381.667 81.333 521 244l118 -89c-74 -94 -166.333 -166.667 -277 -218s-234 -77 -370 -77c-260 0 -465 86.333 -615 259c-125.333 146 -188 322 -188 528c0 216.667 76.167 399.334 228.5 548.001s342.833 223 571.5 223c138.667 0 263.834 -27.5 375.501 -82.5
s203.167 -132.167 274.5 -231.5z" />
    <glyph glyph-name="afii10036" unicode="&#x422;" horiz-adv-x="901" 
d="M33 1422v144h814v-144h-332v-1339h-151v1339h-331z" />
    <glyph glyph-name="afii10037" unicode="&#x423;" horiz-adv-x="1332" 
d="M67 1562h166.998l449 -1007l410 1011h162l-562 -1333c-52.667 -124.667 -145.667 -187 -279 -187c-54 0 -105 11 -153 33s-108.333 73.333 -181 154l108 89c74.667 -72.667 124.334 -114.167 149.001 -124.5s50 -15.5 76 -15.5c38.667 0 72.334 10.333 101.001 31
s60 73 94 157z" />
    <glyph glyph-name="afii10038" unicode="&#x424;" horiz-adv-x="1796" 
d="M824 1566l148 -0.00390625v-189h114c223.333 0 378.333 -43.667 465 -131s130 -191.666 130 -312.999c0 -110.667 -38.167 -209.167 -114.5 -295.5s-220.833 -129.5 -433.5 -129.5h-161v-425h-148v425h-159c-113.333 0 -207 10.833 -281 32.5
s-137.333 68.334 -190 140.001s-79 155.834 -79 252.501c0 120.667 43 224.834 129 312.501s241.333 131.5 466 131.5h114v189zM972 1233v-582h156l80 -1c103.333 0 182.333 27 237 81s82 122 82 204c0 90.667 -32.167 163 -96.5 217s-161.5 81 -291.5 81h-167zM824 1233
l-167 -0.000976562c-121.333 0 -216.333 -25.667 -285 -77s-103 -124.666 -103 -219.999c0 -82 27.167 -150.167 81.5 -204.5s135.5 -81.5 243.5 -81.5l74 1h156v582z" />
    <glyph glyph-name="afii10039" unicode="&#x425;" horiz-adv-x="1254" 
d="M101 1566h173l355 -578l358 578h172l-442 -718l470 -765h-172l-386 622l-387 -622h-173l473 765z" />
    <glyph glyph-name="afii10040" unicode="&#x426;" horiz-adv-x="1460" 
d="M1277 83h-1099v1483h149v-1344h685v1344h149v-1344h254v-360h-138v221z" />
    <glyph glyph-name="afii10041" unicode="&#x427;" horiz-adv-x="1045" 
d="M786 926v639.999h148v-1483h-148v699h-107c-148 0 -256 6 -324 18s-128.833 38.333 -182.5 79s-90.5 90.334 -110.5 149.001s-30 139.667 -30 243v295h145v-303c0 -124.667 25 -212 75 -262s133.333 -75 250 -75l106 1l44 -1h134z" />
    <glyph glyph-name="afii10042" unicode="&#x428;" horiz-adv-x="2038" 
d="M326 224h633v1342h149v-1342h643v1342h149v-1483h-1723v1483h149v-1342z" />
    <glyph glyph-name="afii10043" unicode="&#x429;" horiz-adv-x="2199" 
d="M1900 224h255v-362h-140v221h-1838v1483h149v-1342h633v1342h149v-1342h643v1342h149v-1342z" />
    <glyph glyph-name="afii10044" unicode="&#x42a;" horiz-adv-x="1411" 
d="M340 1427l-308 -0.000976562v139h457v-636h106c194 0 333.5 -9.33301 418.5 -28s153.333 -61.834 205 -129.501s77.5 -155.167 77.5 -262.5c0 -105.333 -25.333 -192.166 -76 -260.499s-115 -113.166 -193 -134.499s-208.333 -32 -391 -32h-296v1344zM489 225.999
l157 0.000976562c167.333 0 276.5 8 327.5 24s91.167 45.333 120.5 88s44 97.667 44 165c0 74.667 -18.667 135.167 -56 181.5s-85 74.666 -143 84.999s-166.333 15.5 -325 15.5h-125v-559z" />
    <glyph glyph-name="afii10045" unicode="&#x42b;" horiz-adv-x="1614" 
d="M178 1566l147.999 0.00195312v-636h108c193.333 0 332.333 -9.33301 417 -28s152.834 -61.834 204.501 -129.501s77.5 -155.167 77.5 -262.5c0 -104.667 -25.167 -191.334 -75.5 -260.001s-114.5 -113.667 -192.5 -135s-208.667 -32 -392 -32h-295v1483zM325.999 226.002
l157.999 0.000976562c167.333 0 276.333 8 327 24s90.834 45.333 120.501 88s44.5 97.667 44.5 165c0 74.667 -18.833 135.167 -56.5 181.5s-85.5 74.666 -143.5 84.999s-166 15.5 -324 15.5h-126v-559zM1308 1566h148v-1483h-148v1483z" />
    <glyph glyph-name="afii10046" unicode="&#x42c;" horiz-adv-x="1248" 
d="M178 1566l147.999 0.00195312v-636h108c193.333 0 332.333 -9.33301 417 -28s152.834 -61.834 204.501 -129.501s77.5 -155.167 77.5 -262.5c0 -104.667 -25.167 -191.334 -75.5 -260.001s-114.5 -113.667 -192.5 -135s-208.667 -32 -392 -32h-295v1483zM325.999 226.002
l157.999 0.000976562c167.333 0 276.333 8 327 24s90.834 45.333 120.501 88s44.5 97.667 44.5 165c0 74.667 -18.833 135.167 -56.5 181.5s-85.5 74.666 -143.5 84.999s-166 15.5 -324 15.5h-126v-559z" />
    <glyph glyph-name="afii10047" unicode="&#x42d;" horiz-adv-x="1677" 
d="M1399 758h-700.999v146h695c-13.333 168.667 -83.666 303 -210.999 403s-268.333 150 -423 150c-223.333 0 -400 -85 -530 -255l-118 88c67.333 97.333 158 174 272 230s240 84 378 84c227.333 0 417.5 -74 570.5 -222s229.5 -331 229.5 -549
c0 -220 -72.5 -406.167 -217.5 -558.5s-339.833 -228.5 -584.5 -228.5c-276.667 0 -492.667 98.333 -648 295l118 89c138 -162.667 311.333 -244 520 -244c159.333 0 300.666 46.5 423.999 139.5s198.666 237.167 225.999 432.5z" />
    <glyph glyph-name="afii10048" unicode="&#x42e;" horiz-adv-x="2259" 
d="M325 904l260 -0.000976562c37.333 237.333 131.5 413.333 282.5 528s312.5 172 484.5 172c224 0 412 -75 564 -225s228 -334.667 228 -554c0 -216 -75.167 -399.833 -225.5 -551.5s-334.833 -227.5 -553.5 -227.5c-200.667 0 -375.167 64.333 -523.5 193
s-233.833 304.334 -256.5 527.001h-260v-683h-148v1483h148v-662zM1990 824.999c0 184 -63.334 335.834 -190.001 455.501s-273.334 179.5 -440.001 179.5c-165.333 0 -310.666 -60.833 -435.999 -182.5s-188 -274.834 -188 -459.501c0 -180 62 -329.667 186 -449
s270 -179 438 -179c174.667 0 323.334 60.167 446.001 180.5s184 271.833 184 454.5z" />
    <glyph glyph-name="afii10049" unicode="&#x42f;" horiz-adv-x="1108" 
d="M1020 83l-148 -0.000976562v690h-85l-531 -690h-184l533 690c-124 0 -221.167 15.833 -291.5 47.5s-124.5 77.834 -162.5 138.501s-57 131.667 -57 213c0 96.667 27.333 178.167 82 244.5s126 109.5 214 129.5c59.333 13.333 171 20 335 20h295v-1483zM611 1421
c-100.667 0 -173 -8.83301 -217 -26.5s-79.5 -46.834 -106.5 -87.501s-40.5 -85.667 -40.5 -135c0 -51.333 13.5 -97.666 40.5 -138.999s64 -71.333 111 -90s119.833 -28 218.5 -28l255 2v504h-261z" />
    <glyph glyph-name="afii10065" unicode="&#x430;" horiz-adv-x="1355" 
d="M1249 1180l-0.00292969 -1097h-139v189c-59.333 -72 -125.666 -126 -198.999 -162s-153.666 -54 -240.999 -54c-155.333 0 -288 56.167 -398 168.5s-165 249.166 -165 410.499c0 158 55.333 293 166 405s244 168 400 168c90.667 0 172.334 -19 245.001 -57
s136.667 -95.667 192 -173v202h139zM683.997 1072c-78 0 -150.33 -19.3301 -216.997 -57.9971s-119.667 -92.834 -159 -162.501s-59 -143.834 -59 -222.501c0 -76.667 20 -150.334 60 -221.001s93.333 -125.667 160 -165s138 -59 214 -59
c77.333 0 150.666 19.333 219.999 58s122.666 91.5 159.999 158.5s56 142.167 56 225.5c0 126.667 -41.833 232.667 -125.5 318s-186.834 128 -309.501 128z" />
    <glyph glyph-name="afii10066" unicode="&#x431;" horiz-adv-x="1379" 
d="M1206 1626l-0.00195312 -134.002c-67.333 -12 -182.666 -20.333 -345.999 -25c-118.667 -4 -210 -11.833 -274 -23.5s-120 -34.167 -168 -67.5s-88.167 -83.666 -120.5 -150.999s-52.5 -142.666 -60.5 -225.999l-14 -155c38 125.333 100.833 217.333 188.5 276
s185.167 88 292.5 88c162.667 0 298.5 -57 407.5 -171s163.5 -250.333 163.5 -409c0 -156 -54.333 -290.333 -163 -403s-244.667 -169 -408 -169c-167.333 0 -309.166 62.333 -425.499 187s-174.5 321.334 -174.5 590.001c0 187.333 21.333 329.166 64 425.499
s91.5 165.666 146.5 207.999s126.333 75.833 214 100.5s251.5 39.667 491.5 45c73.333 2.66699 135.333 7.33398 186 14.001zM1132 625.998c0 121.333 -42.333 225.666 -127 312.999s-185 131 -301 131s-216.167 -43.667 -300.5 -131s-126.5 -191.666 -126.5 -312.999
s40.833 -224.5 122.5 -309.5s183.167 -127.5 304.5 -127.5c122.667 0 224.667 42.5 306 127.5s122 188.167 122 309.5z" />
    <glyph glyph-name="afii10067" unicode="&#x432;" horiz-adv-x="964" 
d="M474 83l-318 -0.000976562v1097h313c120 0 206.5 -27.667 259.5 -83s79.5 -119.666 79.5 -192.999c0 -112 -49.333 -187.667 -148 -227c142.667 -50 214 -147 214 -291c0 -202 -133.333 -303 -400 -303zM298 1058l0.00195312 -342h92c83.333 0 137.833 3.33301 163.5 10
s49.667 23.167 72 49.5s33.5 61.166 33.5 104.499c0 46.667 -11.833 85.334 -35.5 116.001s-48.334 48.667 -74.001 54s-78.834 8 -159.501 8h-92zM298.002 585.999v-384h151c71.333 0 122.333 4.66699 153 14s57 29 79 59s33 68 33 114c0 60 -19 107.833 -57 143.5
s-87.667 53.5 -149 53.5h-210z" />
    <glyph glyph-name="afii10068" unicode="&#x433;" horiz-adv-x="743" 
d="M296 1056v-973h-140v1097h554v-124h-414z" />
    <glyph glyph-name="afii10069" unicode="&#x434;" horiz-adv-x="1248" 
d="M166 203l424 977h73l420 -977h132v-260h-136v140h-907v-146h-139v266h133zM623 963l-320 -760h628z" />
    <glyph glyph-name="afii10070" unicode="&#x435;" horiz-adv-x="1374" 
d="M1080 447l118 -62.999c-38 -76.667 -82.667 -138.334 -134 -185.001s-109 -82.167 -173 -106.5s-136.333 -36.5 -217 -36.5c-178.667 0 -318.334 58.5 -419.001 175.5s-151 249.167 -151 396.5c0 139.333 42.667 263.333 128 372c108 138.667 253 208 435 208
c186 0 335 -71 447 -213c79.333 -100 119.333 -224.667 120 -374h-985c2.66699 -128 43.334 -232.833 122.001 -314.5s175.667 -122.5 291 -122.5c56 0 110.333 9.83301 163 29.5s97.5 45.5 134.5 77.5s77.167 84 120.5 156zM1080 742.001
c-18.667 75.333 -46.002 135.501 -82.002 180.501s-83.667 81.333 -143 109s-121.666 41.5 -186.999 41.5c-107.333 0 -199.666 -34.667 -276.999 -104c-56 -50.667 -98.333 -126.334 -127 -227.001h816z" />
    <glyph glyph-name="afii10072" unicode="&#x436;" horiz-adv-x="1587" 
d="M720 1180h143v-485l524 485h173l-518 -488l556 -609h-180l-475 531l-80 -68v-463h-143v463l-79 68l-473 -531h-180l551 609l-510 488h173l518 -485v485z" />
    <glyph glyph-name="afii10073" unicode="&#x437;" horiz-adv-x="872" 
d="M341 718l73.001 0.000976562c47.333 0 90.5 15.667 129.5 47s58.5 75.666 58.5 132.999c0 48.667 -15.833 90.667 -47.5 126s-79.834 53 -144.501 53c-76 0 -152.333 -29.667 -229 -89l-79 98c98 82.667 202.667 124 314 124c91.333 0 168 -27.167 230 -81.5
s93 -124.5 93 -210.5c0 -114 -50.333 -191.333 -151 -232c131.333 -55.333 197 -152.333 197 -291c0 -87.333 -30.833 -166 -92.5 -236s-153.5 -105 -275.5 -105c-150 0 -270.667 48.667 -362 146l89 100c68 -76 154.667 -114 260 -114c72 0 128.167 19 168.5 57
s60.5 88.667 60.5 152c0 60.667 -20.333 109.5 -61 146.5s-89 55.5 -145 55.5h-86v121z" />
    <glyph glyph-name="afii10074" unicode="&#x438;" horiz-adv-x="1270" 
d="M298 1180v-811l805 811h11v-1097h-142v804l-799 -804h-17v1097h142z" />
    <glyph glyph-name="afii10075" unicode="&#x439;" horiz-adv-x="1203" 
d="M298 1180v-811l805 811h11v-1097h-142v804l-799 -804h-17v1097h142zM278 1620h134.002c22 -34.667 52.167 -60.667 90.5 -78s84.166 -26 137.499 -26s96.666 7.66699 129.999 23s64.666 42.333 93.999 81h128c-14 -60.667 -51.5 -111.167 -112.5 -151.5
s-141.5 -60.5 -241.5 -60.5c-98 0 -178.167 20 -240.5 60s-102.166 90.667 -119.499 152z" />
    <glyph glyph-name="afii10076" unicode="&#x43a;" horiz-adv-x="1034" 
d="M156 1180h142v-462l507 462h197l-556 -502l600 -595h-200l-504 508l-44 -40v-468h-142v1097z" />
    <glyph glyph-name="afii10077" unicode="&#x43b;" 
d="M1085 83h-150l-367 798l-364 -798h-151l502 1097h25z" />
    <glyph glyph-name="afii10078" unicode="&#x43c;" horiz-adv-x="1814" 
d="M1348 1180h39l372 -1097h-146l-271 808l-422 -808h-26l-422 808l-270 -808h-148l374 1097h39l440 -858z" />
    <glyph glyph-name="afii10079" unicode="&#x43d;" horiz-adv-x="1232" 
d="M935 611h-637v-528h-142v1097h142v-436h637v436h141v-1097h-141v528z" />
    <glyph glyph-name="afii10080" unicode="&#x43e;" horiz-adv-x="1351" 
d="M675 1208c168.667 0 308.667 -61 420 -183c100.667 -112 151 -244.333 151 -397s-53.333 -286.167 -160 -400.5s-243.667 -171.5 -411 -171.5c-168 0 -305.167 57.167 -411.5 171.5s-159.5 247.833 -159.5 400.5c0 152 50.333 284 151 396
c111.333 122.667 251.333 184 420 184zM675 1070c-116.667 0 -216.998 -43.333 -300.998 -130s-126 -191.334 -126 -314.001c0 -79.333 19.167 -153.5 57.5 -222.5s90.166 -122 155.499 -159s136.666 -55.5 213.999 -55.5c78.667 0 150.5 18.5 215.5 55.5
s116.5 90 154.5 159s57 143.167 57 222.5c0 122.667 -42 227.334 -126 314.001s-184.333 130 -301 130z" />
    <glyph glyph-name="afii10081" unicode="&#x43f;" horiz-adv-x="1232" 
d="M156 1180h920v-1097h-141v964h-637v-964h-142v1097z" />
    <glyph glyph-name="afii10082" unicode="&#x440;" horiz-adv-x="1414" 
d="M158 1180l139.998 -0.000976562v-202c55.333 77.333 119.5 135 192.5 173s154.167 57 243.5 57c156 0 289.333 -56 400 -168s166 -247 166 -405c0 -161.333 -55 -298.166 -165 -410.499s-242.333 -168.5 -397 -168.5c-87.333 0 -167.666 18 -240.999 54
s-139.666 90 -198.999 162v-589h-140v1497zM721.998 1072c-121.333 0 -224 -42.6699 -308 -128.003s-126 -191.333 -126 -318c0 -83.333 18.667 -158.5 56 -225.5s90.666 -119.833 159.999 -158.5s142.666 -58 219.999 -58c76 0 147.5 19.667 214.5 59
s120.333 94.333 160 165s59.5 144.334 59.5 221.001c0 78.667 -19.667 152.834 -59 222.501s-92.166 123.834 -158.499 162.501s-139.166 58 -218.499 58z" />
    <glyph glyph-name="afii10083" unicode="&#x441;" horiz-adv-x="1288" 
d="M1221 952l-112.002 -70c-96.667 129.333 -228.667 194 -396 194c-134 0 -245.167 -43 -333.5 -129s-132.5 -190.667 -132.5 -314c0 -80 20.333 -155.5 61 -226.5s96.334 -125.833 167.001 -164.5s150 -58 238 -58c162 0 294 64 396 192l112 -73
c-52.667 -78.667 -123.167 -139.5 -211.5 -182.5s-189.166 -64.5 -302.499 -64.5c-172.667 0 -316.167 55 -430.5 165s-171.5 243.667 -171.5 401c0 106.667 26.833 205.5 80.5 296.5s127 162 220 213s197.5 76.5 313.5 76.5c72 0 141.833 -11 209.5 -33
s125.167 -50.833 172.5 -86.5s87.333 -81.167 120 -136.5z" />
    <glyph glyph-name="afii10084" unicode="&#x442;" horiz-adv-x="790" 
d="M34 1180h721v-122h-289v-975h-143v975h-289v122z" />
    <glyph glyph-name="afii10085" unicode="&#x443;" horiz-adv-x="1141" 
d="M39 1180h149l377 -845l366 845h151l-655 -1497h-149l211 483z" />
    <glyph glyph-name="afii10086" unicode="&#x444;" horiz-adv-x="2232" 
d="M1046 1604l140.001 -0.000976562v-590c88 125.333 215 188 381 188c159.333 0 293 -54 401 -162s162 -247 162 -417c0 -167.333 -54.667 -304.666 -164 -411.999s-241.333 -161 -396 -161c-168.667 0 -296.667 66 -384 198v-565h-140v565
c-84.667 -133.333 -213.334 -200 -386.001 -200c-152 0 -282.667 53.833 -392 161.5s-164 245.5 -164 413.5c0 170 54 309 162 417s241.667 162 401 162c168.667 0 295 -62.667 379 -188v590zM1183 604.999c0 -131.333 37.168 -234.166 111.501 -308.499
s159.833 -111.5 256.5 -111.5c132 0 237.667 43.667 317 131s119 192.666 119 315.999c0 126.667 -41.833 232 -125.5 316s-183.834 126 -300.501 126c-106 0 -195.5 -37.5 -268.5 -112.5s-109.5 -193.833 -109.5 -356.5zM246.002 629.999c0 -122 39.5 -226.667 118.5 -314
s184.5 -131 316.5 -131c46 0 95.167 11.667 147.5 35s94.5 52.5 126.5 87.5s56.167 75.833 72.5 122.5s24.5 114.667 24.5 204c0 142.667 -37 251.667 -111 327s-163.333 113 -268 113c-118 0 -218.667 -42 -302 -126s-125 -190 -125 -318z" />
    <glyph glyph-name="afii10087" unicode="&#x445;" horiz-adv-x="1063" 
d="M33 1180h169l290 -407l291 407h169l-376 -521l423 -576h-171l-336 461l-331 -461h-168l415 576z" />
    <glyph glyph-name="afii10088" unicode="&#x446;" horiz-adv-x="1346" 
d="M1181 83h-1025v1097h142v-964h637v964h143v-964h236v-305h-133v172z" />
    <glyph glyph-name="afii10089" unicode="&#x447;" horiz-adv-x="876" 
d="M647 578h-246.999c-112.667 0 -196 29 -250 87s-81 138 -81 240v275h138v-199c0 -127.333 18.167 -206.333 54.5 -237s96.166 -46 179.499 -46h206v482h141v-1097h-141v495z" />
    <glyph glyph-name="afii10090" unicode="&#x448;" horiz-adv-x="1950" 
d="M1795 83h-1639v1097h142v-964h604v964h144v-964h605v964h144v-1097z" />
    <glyph glyph-name="afii10091" unicode="&#x449;" horiz-adv-x="2065" 
d="M1898 83h-1742v1097h142v-964h604v964h144v-964h605v964h144v-964h238v-305h-135v172z" />
    <glyph glyph-name="afii10092" unicode="&#x44a;" horiz-adv-x="1071" 
d="M396 746h134.001c107.333 0 191.166 -8.5 251.499 -25.5s112.333 -54.333 156 -112s65.5 -123.5 65.5 -197.5c0 -90.667 -31.667 -168 -95 -232s-159 -96 -287 -96h-364v967h-202v130h341v-434zM396.001 627v-425h162c193.333 0 290 70 290 210
c0 48 -13 89.833 -39 125.5s-60 59.5 -102 71.5s-105.667 18 -191 18h-120z" />
    <glyph glyph-name="afii10093" unicode="&#x44b;" horiz-adv-x="1383" 
d="M296 746h134c106.667 0 190.334 -8.5 251.001 -25.5s112.667 -54.333 156 -112s65 -123.5 65 -197.5c0 -90.667 -31.333 -168 -94 -232s-158.334 -96 -287.001 -96h-365v1097h140v-434zM301 616v-414h162c191.333 0 287 67.333 287 202c0 38 -10.167 75.5 -30.5 112.5
s-50.333 62.833 -90 77.5s-109.167 22 -208.5 22h-120zM1098 1180h142v-1097h-142v1097z" />
    <glyph glyph-name="afii10094" unicode="&#x44c;" horiz-adv-x="971" 
d="M296 746h134c106.667 0 190.334 -8.5 251.001 -25.5s112.667 -54.333 156 -112s65 -123.5 65 -197.5c0 -90.667 -31.333 -168 -94 -232s-158.334 -96 -287.001 -96h-365v1097h140v-434zM301 616v-414h162c191.333 0 287 67.333 287 202c0 38 -10.167 75.5 -30.5 112.5
s-50.333 62.833 -90 77.5s-109.167 22 -208.5 22h-120z" />
    <glyph glyph-name="afii10095" unicode="&#x44d;" horiz-adv-x="1288" 
d="M588 591l0.00195312 120h488c-24 107.333 -78 195 -162 263s-184.667 102 -302 102c-167.333 0 -299.333 -64.667 -396 -194l-112 70c45.333 81.333 114.666 144.333 207.999 189s191.333 67 294 67c177.333 0 324 -56.667 440 -170s174 -252 174 -416
c0 -154.667 -56.333 -287.667 -169 -399s-257 -167 -433 -167c-103.333 0 -201.666 20.333 -294.999 61s-166.333 102.667 -219 186l112 73c102 -128 234 -192 396 -192c121.333 0 225.666 37 312.999 111s137.666 172.667 150.999 296h-488z" />
    <glyph glyph-name="afii10096" unicode="&#x44e;" horiz-adv-x="1724" 
d="M299 83l-142.001 -0.000976562v1097h142v-461h183c24.667 146.667 90 264.834 196 354.501s229.667 134.5 371 134.5c162 0 297.667 -57 407 -171s164 -250.333 164 -409c0 -156 -54.5 -290.333 -163.5 -403s-244.833 -169 -407.5 -169
c-145.333 0 -272.166 47.333 -380.499 142s-170.5 222 -186.5 382h-183v-497zM1477 625.999c0 121.333 -42.332 225.666 -126.999 312.999s-185 131 -301 131s-216.5 -43.667 -301.5 -131s-127.5 -191.666 -127.5 -312.999s40.667 -224.5 122 -309.5
s183.666 -127.5 306.999 -127.5c121.333 0 223 42.5 305 127.5s123 188.167 123 309.5z" />
    <glyph glyph-name="afii10097" unicode="&#x44f;" horiz-adv-x="862" 
d="M619 574h-100.999l-312 -491h-152l330 505c-82.667 10 -149.334 41.167 -200.001 93.5s-76 116.833 -76 193.5c0 96.667 29.333 171.667 88 225s135.667 80 231 80h334v-1097h-142v491zM619.001 1058h-92c-90.667 0 -151.334 -5.66699 -182.001 -17s-55 -31 -73 -59
s-27 -65.667 -27 -113c0 -44.667 11.833 -81.667 35.5 -111s49.834 -47.333 78.501 -54s84.667 -10 168 -10h92v364z" />
    <glyph glyph-name="afii10071" unicode="&#x451;" horiz-adv-x="1319" 
d="M1080 447l118 -62.999c-38 -76.667 -82.667 -138.334 -134 -185.001s-109 -82.167 -173 -106.5s-136.333 -36.5 -217 -36.5c-178.667 0 -318.334 58.5 -419.001 175.5s-151 249.167 -151 396.5c0 139.333 42.667 263.333 128 372c108 138.667 253 208 435 208
c186 0 335 -71 447 -213c79.333 -100 119.333 -224.667 120 -374h-985c2.66699 -128 43.334 -232.833 122.001 -314.5s175.667 -122.5 291 -122.5c56 0 110.333 9.83301 163 29.5s97.5 45.5 134.5 77.5s77.167 84 120.5 156zM1080 742.001
c-18.667 75.333 -46.002 135.501 -82.002 180.501s-83.667 81.333 -143 109s-121.666 41.5 -186.999 41.5c-107.333 0 -199.666 -34.667 -276.999 -104c-56 -50.667 -98.333 -126.334 -127 -227.001h816zM464.998 1613c32 0 59.5 -11.333 82.5 -34s34.5 -50 34.5 -82
c0 -32.667 -11.5 -60.5 -34.5 -83.5s-50.5 -34.5 -82.5 -34.5c-32.667 0 -60.334 11.5 -83.001 34.5s-34 50.833 -34 83.5c0 32 11.333 59.333 34 82s50.334 34 83.001 34zM876.998 1613c32 0 59.333 -11.333 82 -34s34 -50 34 -82c0 -32.667 -11.333 -60.5 -34 -83.5
s-50 -34.5 -82 -34.5c-32.667 0 -60.5 11.5 -83.5 34.5s-34.5 50.833 -34.5 83.5c0 32 11.5 59.333 34.5 82s50.833 34 83.5 34z" />
    <glyph glyph-name="afii10099" unicode="&#x452;" horiz-adv-x="1293" 
d="M331 1604l0.000976562 -136.998h484v-121h-484v-363c114.667 150 252 225 412 225c95.333 0 176.166 -26.333 242.499 -79s109.833 -114.5 130.5 -185.5s31 -169.833 31 -296.5v-564l3 -165c0 -176 -62.333 -264 -187 -264c-50 0 -103.667 11.667 -161 35v127
c36.667 -20 70.667 -30 102 -30c32.667 0 57.334 10.833 74.001 32.5s25.667 46.334 27 74.001s2 91.167 2 190.5v523c0 127.333 -7 219.666 -21 276.999s-44 104.166 -90 140.499s-106.333 54.5 -181 54.5c-64.667 0 -122.334 -14.833 -173.001 -44.5
s-93 -69.334 -127 -119.001s-56.5 -101 -67.5 -154s-16.5 -144.833 -16.5 -275.5v-402h-140v1263h-156v121h156v137h140z" />
    <glyph glyph-name="afii10100" unicode="&#x453;" horiz-adv-x="840" 
d="M296 1056v-973h-140v1097h554v-124h-414zM542 1694h218l-298 -310h-139z" />
    <glyph glyph-name="afii10101" unicode="&#x454;" horiz-adv-x="1324" 
d="M248 591c13.333 -123.333 63.668 -222 151.001 -296s191.666 -111 312.999 -111c162 0 294 64 396 192l112 -73c-52.667 -83.333 -125.667 -145.333 -219 -186s-191.666 -61 -294.999 -61c-176.667 0 -321.167 55.667 -433.5 167s-168.5 244.333 -168.5 399
c0 164 58 302.667 174 416s262.667 170 440 170c102.667 0 200.667 -22.333 294 -67s162.666 -107.667 207.999 -189l-112 -70c-96.667 129.333 -228.667 194 -396 194c-117.333 0 -218 -34 -302 -102s-138 -155.667 -162 -263h488v-120h-488z" />
    <glyph glyph-name="afii10102" unicode="&#x455;" horiz-adv-x="904" 
d="M708 1060l-90.001 -94c-76 73.333 -149.667 110 -221 110c-46 0 -85.333 -15 -118 -45s-49 -65.667 -49 -107c0 -34.667 13.667 -68 41 -100c26.667 -34 83 -73 169 -117c105.333 -54 176.666 -106.333 213.999 -157c36.667 -51.333 55 -109 55 -173
c0 -89.333 -31.5 -165.166 -94.5 -227.499s-141.833 -93.5 -236.5 -93.5c-63.333 0 -123.833 13.5 -181.5 40.5s-105.167 64.833 -142.5 113.5l89 101c72 -81.333 148.333 -122 229 -122c56 0 103.833 18.167 143.5 54.5s59.5 78.833 59.5 127.5
c0 40.667 -13 76.667 -39 108s-85 70.666 -177 117.999c-99.333 50 -166.666 100.333 -201.999 151c-36 49.333 -54 106 -54 170c0 83.333 28.5 152.5 85.5 207.5s128.5 82.5 214.5 82.5c100.667 0 202.334 -49.333 305.001 -148z" />
    <glyph glyph-name="afii10103" unicode="&#x456;" horiz-adv-x="449" 
d="M206 1631c32 0 59.5 -11.333 82.5 -34s34.5 -50 34.5 -82s-11.5 -59.5 -34.5 -82.5s-50.5 -34.5 -82.5 -34.5s-59.333 11.5 -82 34.5s-34 50.5 -34 82.5s11.333 59.333 34 82s50 34 82 34zM136 1180h141v-1097h-141v1097z" />
    <glyph glyph-name="afii10104" unicode="&#x457;" horiz-adv-x="518" 
d="M137 1180h142v-1097h-142v1097zM3 1613c32 0 59.333 -11.333 82 -34s34 -50 34 -82c0 -32.667 -11.333 -60.5 -34 -83.5s-50 -34.5 -82 -34.5s-59.667 11.5 -83 34.5s-35 50.833 -35 83.5c0 32 11.667 59.333 35 82s51 34 83 34zM413 1613c32 0 59.667 -11.333 83 -34
s35 -50 35 -82c0 -32.667 -11.667 -60.5 -35 -83.5s-51 -34.5 -83 -34.5s-59.333 11.5 -82 34.5s-34 50.833 -34 83.5c0 32 11.333 59.333 34 82s50 34 82 34z" />
    <glyph glyph-name="afii10105" unicode="&#x458;" horiz-adv-x="481" 
d="M210 1631c32.667 0 60.167 -11.333 82.5 -34s33.5 -50 33.5 -82s-11.167 -59.5 -33.5 -82.5s-49.833 -34.5 -82.5 -34.5c-32 0 -59.333 11.5 -82 34.5s-34 50.5 -34 82.5s11.333 59.333 34 82s50 34 82 34zM141 1180h143v-1262c0 -92 -16.667 -159 -50 -201
s-79 -63 -137 -63c-47.333 0 -101 11.667 -161 35v127c38.667 -20 72.667 -30 102 -30c38.667 0 67 16 85 48c12 20 18 62 18 126v1220z" />
    <glyph glyph-name="afii10106" unicode="&#x459;" horiz-adv-x="1634" 
d="M581 1180l201 -434h314c106.667 0 190.5 -8.66699 251.5 -26s113 -54.833 156 -112.5s64.5 -124.167 64.5 -199.5c0 -70 -23.5 -137 -70.5 -201s-128.167 -105.333 -243.5 -124h-318l-372 835l-368 -835h-142l502 1097h25zM839 616l187 -414h102
c191.333 0 287 67.333 287 202c0 48 -12.667 89.5 -38 124.5s-58 58.333 -98 70s-104.333 17.5 -193 17.5h-247zM1080 83z" />
    <glyph glyph-name="afii10107" unicode="&#x45a;" horiz-adv-x="1745" 
d="M1076 744h129c106 0 189.5 -8.5 250.5 -25.5s113.333 -54.167 157 -111.5s65.5 -123 65.5 -197c0 -90 -31.667 -167 -95 -231s-159 -96 -287 -96h-361v528h-636v-528h-143v1097h143v-436h636v436h141v-436zM1076 611v-409h161c191.333 0 287 66.333 287 199
c0 38 -10.167 75.167 -30.5 111.5s-50.333 61.833 -90 76.5s-109.167 22 -208.5 22h-119z" />
    <glyph glyph-name="afii10108" unicode="&#x45b;" horiz-adv-x="1292" 
d="M192 1346l-155.998 0.00292969v121h156v137h140v-137h484v-121h-484v-363c114.667 150 252 225 412 225c95.333 0 176.166 -26.333 242.499 -79s109.833 -114.5 130.5 -185.5s31 -169.833 31 -296.5v-564h-140v523c0 127.333 -7 219.666 -21 276.999
s-44 104.166 -90 140.499s-106.333 54.5 -181 54.5c-64.667 0 -122.334 -14.833 -173.001 -44.5s-93 -69.334 -127 -119.001s-56.5 -101 -67.5 -154s-16.5 -144.833 -16.5 -275.5v-402h-140v1263z" />
    <glyph glyph-name="afii10109" unicode="&#x45c;" horiz-adv-x="1176" 
d="M156 1180h142v-462l507 462h197l-556 -502l600 -595h-200l-504 508l-44 -40v-468h-142v1097zM668 1694h216l-297 -310h-138z" />
    <glyph glyph-name="afii10110" unicode="&#x45e;" horiz-adv-x="1272" 
d="M39 1180h149l377 -845l366 845h151l-655 -1497h-149l211 483zM195 1620h133c22.667 -34.667 53.167 -60.667 91.5 -78s84.166 -26 137.499 -26c54 0 97.333 7.66699 130 23s64 42.333 94 81h129c-15.333 -60.667 -53.333 -111.167 -114 -151.5s-140.667 -60.5 -240 -60.5
s-180.166 20 -242.499 60s-101.833 90.667 -118.5 152z" />
    <glyph glyph-name="afii10193" unicode="&#x45f;" horiz-adv-x="1235" 
d="M545 83h-388v1097h142v-964h637v964h143v-1097h-402v-172h-132v172z" />
    <glyph glyph-name="uni0472" unicode="&#x472;" horiz-adv-x="1593" 
 />
    <glyph glyph-name="uni0473" unicode="&#x473;" horiz-adv-x="1024" 
 />
    <glyph glyph-name="afii10050" unicode="&#x490;" horiz-adv-x="834" 
d="M325 83h-148v1483h479v215h146v-361h-477v-1337z" />
    <glyph glyph-name="afii10098" unicode="&#x491;" horiz-adv-x="733" 
d="M296 1056v-973h-140v1097h385v136h138v-260h-383z" />
    <glyph glyph-name="uni0492" unicode="&#x492;" horiz-adv-x="1129" 
 />
    <glyph glyph-name="uni0493" unicode="&#x493;" horiz-adv-x="805" 
 />
    <glyph glyph-name="uni0496" unicode="&#x496;" horiz-adv-x="1741" 
 />
    <glyph glyph-name="uni0497" unicode="&#x497;" horiz-adv-x="1273" 
 />
    <glyph glyph-name="uni049a" unicode="&#x49a;" horiz-adv-x="1281" 
 />
    <glyph glyph-name="uni049b" unicode="&#x49b;" horiz-adv-x="1023" 
 />
    <glyph glyph-name="uni049c" unicode="&#x49c;" horiz-adv-x="1281" 
 />
    <glyph glyph-name="uni049d" unicode="&#x49d;" horiz-adv-x="1023" 
 />
    <glyph glyph-name="uni04a2" unicode="&#x4a2;" horiz-adv-x="1374" 
 />
    <glyph glyph-name="uni04a3" unicode="&#x4a3;" horiz-adv-x="1029" 
 />
    <glyph glyph-name="uni04ae" unicode="&#x4ae;" horiz-adv-x="1479" 
 />
    <glyph glyph-name="uni04af" unicode="&#x4af;" horiz-adv-x="881" 
 />
    <glyph glyph-name="uni04b0" unicode="&#x4b0;" horiz-adv-x="1270" 
 />
    <glyph glyph-name="uni04b1" unicode="&#x4b1;" horiz-adv-x="881" 
 />
    <glyph glyph-name="uni04b2" unicode="&#x4b2;" horiz-adv-x="1269" 
 />
    <glyph glyph-name="uni04b3" unicode="&#x4b3;" horiz-adv-x="888" 
 />
    <glyph glyph-name="uni04b8" unicode="&#x4b8;" horiz-adv-x="1293" 
 />
    <glyph glyph-name="uni04b9" unicode="&#x4b9;" horiz-adv-x="1007" 
 />
    <glyph glyph-name="uni04ba" unicode="&#x4ba;" horiz-adv-x="1293" 
 />
    <glyph glyph-name="uni04bb" unicode="&#x4bb;" horiz-adv-x="1007" 
 />
    <glyph glyph-name="uni018f" unicode="&#x4d8;" horiz-adv-x="1689" 
d="M398 1521.5c111.333 55 236.333 82.5 375 82.5c228.667 0 419.167 -74.333 571.5 -223s228.5 -331.334 228.5 -548.001c0 -206 -62.667 -382 -188 -528c-149.333 -172.667 -354 -259 -614 -259c-136 0 -259.5 25.667 -370.5 77s-198.5 133 -262.5 245
c-60.667 105.333 -91 246.333 -91 423v34l1372 -1l-2 -126l-1209 -2c20.667 -160 74.834 -283.5 162.501 -370.5s218.167 -133.5 391.5 -139.5c188.667 0 345 60.5 469 181.5s186 271.833 186 452.5c0 120 -27.667 227.833 -83 323.5s-133.5 171.834 -234.5 228.501
s-210.5 85 -328.5 85c-108 0 -207.333 -21.5 -298 -64.5s-168 -106.5 -232 -190.5l-117 88c71.333 99.333 162.666 176.5 273.999 231.5z" />
    <glyph glyph-name="uni0259" unicode="&#x4d9;" horiz-adv-x="1340" 
d="M259 816l-119 62.9971c38.667 76.667 83.5 138.334 134.5 185.001s108.5 82.334 172.5 107.001s136.333 37 217 37c178.667 0 318.334 -58.667 419.001 -176s151 -249.666 151 -396.999c0 -139.333 -42.667 -263.333 -128 -372c-108 -138 -252.667 -207 -434 -207
c-186.667 0 -336 70.667 -448 212c-79.333 100 -119.333 224.667 -120 374h985c-2 128 -42.5 232.833 -121.5 314.5s-176.167 122.5 -291.5 122.5c-56 0 -110.333 -9.83301 -163 -29.5s-97.334 -45.5 -134.001 -77.5s-76.667 -84 -120 -156zM259 520.997
c18 -75.333 45.001 -135.501 81.001 -180.501s83.667 -81.333 143 -109s121.666 -41.5 186.999 -41.5c107.333 0 200 34.667 278 104c56 50.667 98.333 126.334 127 227.001h-816z" />
    <glyph glyph-name="uni04e8" unicode="&#x4e8;" horiz-adv-x="1797" 
d="M887 1604c224 0 411.501 -75 562.501 -225s226.5 -334.667 226.5 -554c0 -216.667 -75.333 -400.667 -226 -552s-334.334 -227 -551.001 -227c-220 0 -405.667 75.167 -557 225.5s-227 332.5 -227 546.5c0 142 34.333 274 103 396s162.667 217.5 282 286.5
s248.333 103.5 387 103.5zM893.001 1458c-109.333 0 -213.167 -28.499 -311.5 -85.499s-174.833 -134 -229.5 -231s-82 -204.833 -82 -323.5c0 -176 60.833 -324.667 182.5 -446s268.5 -182 440.5 -182c114.667 0 221 28 319 84s174.333 132.167 229 228.5
s82 203.833 82 322.5c0 117.333 -27.333 223.666 -82 318.999s-131.667 171.5 -231 228.5s-205 85.5 -317 85.5zM248 796.001h1297v103h-1297v-103z" />
    <glyph glyph-name="uni04e9" unicode="&#x4e9;" horiz-adv-x="1349" 
d="M675 1208c168.667 0 308.667 -61 420 -183c100.667 -112 151 -244.333 151 -397s-53.333 -286.167 -160 -400.5s-243.667 -171.5 -411 -171.5c-168 0 -305.167 57.167 -411.5 171.5s-159.5 247.833 -159.5 400.5c0 152 50.333 284 151 396
c111.333 122.667 251.333 184 420 184zM675 1070c-116.667 0 -216.998 -43.333 -300.998 -130s-126 -191.334 -126 -314.001c0 -79.333 19.167 -153.5 57.5 -222.5s90.166 -122 155.499 -159s136.666 -55.5 213.999 -55.5c78.667 0 150.5 18.5 215.5 55.5
s116.5 90 154.5 159s57 143.167 57 222.5c0 122.667 -42 227.334 -126 314.001s-184.333 130 -301 130zM224.002 581h931v103h-931v-103z" />
    <glyph glyph-name=".null" horiz-adv-x="0" 
 />
    <glyph glyph-name="nonmarkingreturn" horiz-adv-x="512" 
 />
    </font>
</defs>
</svg>
