<?xml version="1.0" encoding="UTF-8" standalone="no"?>
<svg xmlns="http://www.w3.org/2000/svg" height="152px" width="205px" version="1.1" xmlns:xlink="http://www.w3.org/1999/xlink" viewBox="0 0 205 152"><!-- Generator: Sketch 3.8.3 (29802) - http://www.bohemiancoding.com/sketch -->
 <title>Logo + Sign</title>
 <desc>Created with Sketch.</desc>
 <g id="Page-1" fill-rule="evenodd" fill="none">
  <g id="New-Logo" transform="translate(-238 -101)">
   <g id="Logo-+-Sign" transform="translate(262 119)">
    <g id="Logo" transform="translate(0)">
     <g id="POETIC" fill="#212121">
      <path id="P" d="m25.619 7.3502c0.656 1.4271 0.984 2.9728 0.984 4.6378 0.043 1.784-0.381 3.37-1.27 4.757-0.888 1.387-1.989 2.557-3.301 3.508-0.381 0.278-0.836 0.565-1.365 0.862-0.529 0.298-1.217 0.565-2.064 0.803-0.846 0.238-1.873 0.436-3.079 0.595-1.206 0.158-2.635 0.238-4.286 0.238h-4.3808v19.249h-6.8572v-41.25h11.492c2.498 0 4.667 0.2577 6.508 0.773s3.376 1.2289 4.603 2.1406c1.376 1.0307 2.36 2.2595 3.016 3.6866zm-7.22 8.5448c1.168-0.746 1.817-2.042 1.947-3.887-0.087-2.042-0.627-3.4949-1.622-4.3588-0.693-0.4712-1.634-0.8639-2.823-1.178-1.19-0.3141-2.564-0.4712-4.121-0.4712h-4.7372v11.25h6.6192c0.779 0 1.59-0.108 2.433-0.324 0.844-0.216 1.612-0.56 2.304-1.031z"/>
      <path id="o" d="m45.445 40c-3.071 0-5.865-0.518-8.382-1.553s-4.671-2.483-6.463-4.342h0.064c-1.92-1.902-3.381-4.047-4.383-6.435-1.003-2.387-1.526-4.934-1.568-7.638 0-2.747 0.512-5.315 1.536-7.702 1.023-2.3881 2.495-4.5328 4.415-6.4346h-0.064c1.792-1.8595 3.946-3.3069 6.463-4.3423s5.311-1.5531 8.382-1.5531c3.072 0 5.855 0.51769 8.351 1.5531 2.495 1.0354 4.66 2.4828 6.495 4.3423 1.834 1.9018 3.284 4.0465 4.351 6.4346 1.066 2.387 1.6 4.955 1.6 7.702 0 2.704-0.523 5.261-1.568 7.67s-2.485 4.543-4.319 6.403c-1.835 1.859-4.01 3.307-6.527 4.342s-5.311 1.553-8.383 1.553zm-13.544-19.968c0 1.992 0.343 3.857 1.03 5.594 0.687 1.738 1.653 3.253 2.898 4.546s2.727 2.321 4.444 3.084c1.718 0.763 3.586 1.144 5.604 1.144s3.885-0.381 5.603-1.144c1.717-0.763 3.199-1.791 4.444-3.084s2.211-2.808 2.898-4.546c0.687-1.737 1.031-3.602 1.031-5.594s-0.344-3.868-1.031-5.627-1.653-3.284-2.898-4.5772c-1.245-1.2927-2.727-2.3205-4.444-3.0834-1.718-0.7629-3.585-1.1444-5.603-1.1444s-3.886 0.3815-5.604 1.1444c-1.717 0.7629-3.199 1.7907-4.444 3.0834-1.245 1.2932-2.211 2.8182-2.898 4.5772s-1.03 3.635-1.03 5.627z"/>
      <polygon id="E" points="92.006 37.5 65.459 37.5 65.4 0.75 91.032 0.75 91.032 6.1119 71.814 6.1119 71.814 15.269 88.025 15.269 88.025 20.631 71.814 20.631 71.814 32.138 92.006 32.138"/>
      <polygon id="T" points="120.09 6.1119 108.64 6.1119 108.64 37.5 102.21 37.5 102.21 6.1119 89.982 6.1119 89.982 0.75 120.09 0.75"/>
      <polygon id="I" points="125.81 37.5 119.07 37.5 119.07 0.75 125.81 0.75"/>
      <path id="C" d="m158 31.707c-2.14 2.225-4.52 3.997-7.15 5.315-2.64 1.319-5.38 1.978-8.23 1.978-2.81-0.082-5.36-0.597-7.65-1.545-2.3-0.948-4.34-2.349-6.12-4.203-1.7-1.854-3.01-3.956-3.92-6.304-0.91-2.349-1.36-4.821-1.36-7.417-0.04-2.678 0.4-5.192 1.33-7.541 0.93-2.3482 2.25-4.4496 3.95-6.3038 1.66-1.7718 3.67-3.1624 6.03-4.1719 2.35-1.0096 4.95-1.5143 7.8-1.5143s5.57 0.64896 8.17 1.9469c2.59 1.298 4.95 3.0594 7.09 5.2845l-3.98 4.4496c-1.86-1.9362-3.75-3.4504-5.67-4.5423-1.92-1.092-3.79-1.6379-5.61-1.6379-1.86 0-3.58 0.3708-5.16 1.1125-1.59 0.7417-2.95 1.7409-4.1 2.9976-1.15 1.2571-2.04 2.7401-2.67 4.4501s-0.95 3.533-0.95 5.47 0.32 3.749 0.95 5.439c0.63 1.689 1.52 3.162 2.67 4.419s2.51 2.256 4.1 2.998c1.58 0.741 3.3 1.112 5.16 1.112 1.78 0 3.64-0.556 5.58-1.669 1.94-1.112 3.82-2.616 5.64-4.511l4.1 4.388z"/>
     </g>
     <g id="PRAXIS" transform="translate(0 36.5)">
      <path id="S" fill="#212121" d="m135.3 40.786c-1.75-0.476-3.36-1.139-4.84-1.988-1.48-0.848-2.8-1.853-3.95-3.012-1.16-1.159-2.14-2.401-2.95-3.726l6.05-3.851c0.38 0.704 0.98 1.501 1.82 2.391 0.83 0.89 1.76 1.739 2.78 2.547 1.02 0.807 2.11 1.48 3.27 2.018 1.15 0.538 2.3 0.807 3.43 0.807 1.77 0 3.21-0.175 4.31-0.527s1.98-0.797 2.62-1.336c0.65-0.538 1.08-1.087 1.29-1.646 0.22-0.559 0.33-1.066 0.33-1.521 0-0.456-0.07-0.963-0.21-1.522-0.13-0.559-0.49-1.159-1.09-1.801-0.59-0.642-1.49-1.294-2.7-1.956-1.21-0.663-2.89-1.325-5.04-1.988-3.12-0.993-5.67-1.935-7.66-2.826-1.99-0.89-3.56-1.78-4.72-2.67s-1.96-1.801-2.42-2.733c-0.46-0.931-0.68-1.936-0.68-3.012 0-1.118 0.28-2.298 0.84-3.5401 0.57-1.2422 1.48-2.3704 2.74-3.3849 1.27-1.0144 2.94-1.8528 5.01-2.5153s4.63-0.9937 7.7-0.9937c4.14 0 7.55 0.7763 10.24 2.329s4.76 3.7368 6.21 6.552l-7.34 1.801c-1.66-3.2706-4.7-4.9061-9.11-4.9061-2.42 0-4.22 0.352-5.41 1.0559-1.18 0.7038-1.77 1.6352-1.77 2.7952 0 0.703 0.31 1.335 0.93 1.894s1.46 1.097 2.54 1.615c1.07 0.517 2.32 1.014 3.75 1.49 1.42 0.476 2.97 0.984 4.64 1.522 2.79 0.952 5 1.946 6.61 2.981s2.82 2.091 3.63 3.167c0.81 1.077 1.32 2.133 1.53 3.168 0.22 1.035 0.33 2.008 0.33 2.919 0 0.952-0.27 2.07-0.81 3.354-0.54 1.283-1.45 2.505-2.74 3.664s-3.04 2.132-5.25 2.919c-2.2 0.787-4.97 1.18-8.3 1.18-1.99 0-3.86-0.238-5.61-0.714z"/>
      <polygon id="I" points="125.81 41.5 119.13 41.5 119.07 4.75 125.81 4.75" fill="#212121"/>
      <g id="X" fill="#212121" transform="translate(87.872 4.75)">
       <path id="x" d="m27.826 36.75l-10.805-14.399-9.7778 14.399h-7.2432l13.158-19.399c-0.925-1.326-1.931-2.741-3.018-4.248-1.086-1.506-2.1926-3.022-3.3193-4.5481-1.1268-1.5262-2.2132-3.0223-3.2595-4.4883-1.0462-1.466-2.012-2.8215-2.8972-4.0666h7.3035l9.1145 12.531c1.368-2.008 2.796-4.1166 4.285-6.3257 1.489-2.209 2.877-4.2774 4.165-6.2053h7.243l-11.77 17.532 14.185 19.218h-7.364z"/>
      </g>
      <path id="R" fill="#212121" d="m45 41.5l-12.128-14.459h-1.389v14.459h-6.464l-0.06-36.75h10.148c2.296 0 4.329 0.2611 6.101 0.7832s3.242 1.2451 4.41 2.1688c1.289 1.0845 2.245 2.35 2.869 3.796 0.624 1.445 0.936 2.992 0.936 4.638 0.041 1.848-0.352 3.475-1.177 4.88-0.826 1.406-1.863 2.591-3.111 3.555-0.443 0.321-1.047 0.653-1.813 0.994-0.765 0.341-1.792 0.653-3.08 0.934 0.966 1.205 2.043 2.46 3.231 3.765s2.366 2.621 3.534 3.946c1.168 1.326 2.316 2.611 3.443 3.856 1.128 1.245 2.115 2.39 2.96 3.434h-8.41zm-8.128-19.5c2.038 0 3.538-0.49 4.498-1.469 0.96-0.98 1.48-2.347 1.558-4.102-0.039-1.266-0.235-2.317-0.588-3.153-0.353-0.837-0.852-1.49-1.499-1.96-0.647-0.469-1.441-0.796-2.382-0.979-0.94-0.184-2.018-0.296-3.234-0.337h-3.528v12h5.175z"/>
      <path id="P" fill="#212121" d="m22.219 7.702c1.286 1.0443 2.251 2.2894 2.894 3.735 0.643 1.446 0.965 3.013 0.965 4.699 0.041 1.808-0.374 3.414-1.245 4.82-0.872 1.406-1.95 2.591-3.237 3.555-0.373 0.281-0.819 0.572-1.338 0.873-0.518 0.301-1.193 0.573-2.022 0.814-0.83 0.241-1.836 0.441-3.019 0.602-1.182 0.161-2.583 0.241-4.201 0.241h-4.2943v14.459h-6.6595l-0.0622-36.75h11.265c2.448 0 4.574 0.2611 6.379 0.7832s3.309 1.2451 4.513 2.1688h0.062zm-4.312 12.193c1.111-0.746 1.727-2.042 1.851-3.887-0.082-2.042-0.596-3.495-1.542-4.359-0.658-0.471-1.553-0.864-2.683-1.178-1.131-0.314-2.437-0.471-3.917-0.471h-4.5032v11.25h6.2912c0.741 0 1.512-0.108 2.314-0.324 0.801-0.216 1.531-0.56 2.189-1.031z"/>
      <g id="A" transform="translate(45 0.5)">
       <polygon points="2 41 18.444 0 35 41"/>
       <polygon id="Triangle-9" points="25 0 50 41 0 41" fill="#212121"/>
       <polygon id="Triangle-9" points="25 11 43 41 7 41" fill="#E53935"/>
       <rect id="Rectangle-11" height="6" width="38" y="35" x="6" fill="#212121"/>
      </g>
     </g>
    </g>
   </g>
  </g>
 </g>
</svg>
