<?xml version="1.0" encoding="UTF-8" standalone="no"?>
<svg width="272px" height="152px" viewBox="0 0 272 152" version="1.1" xmlns="http://www.w3.org/2000/svg" xmlns:xlink="http://www.w3.org/1999/xlink" xmlns:sketch="http://www.bohemiancoding.com/sketch/ns">
    <!-- Generator: Sketch 3.4.4 (17249) - http://www.bohemiancoding.com/sketch -->
    <title>Logo + Sign</title>
    <desc>Created with Sketch.</desc>
    <defs>
        <filter x="-50%" y="-50%" width="200%" height="200%" filterUnits="objectBoundingBox" id="filter-1">
            <feOffset dx="0" dy="19" in="SourceAlpha" result="shadowOffsetOuter1"></feOffset>
            <feGaussianBlur stdDeviation="19" in="shadowOffsetOuter1" result="shadowBlurOuter1"></feGaussianBlur>
            <feColorMatrix values="0 0 0 0 0   0 0 0 0 0   0 0 0 0 0  0 0 0 0.21 0" in="shadowBlurOuter1" type="matrix" result="shadowMatrixOuter1"></feColorMatrix>
            <feOffset dx="0" dy="15" in="SourceAlpha" result="shadowOffsetOuter2"></feOffset>
            <feGaussianBlur stdDeviation="6" in="shadowOffsetOuter2" result="shadowBlurOuter2"></feGaussianBlur>
            <feColorMatrix values="0 0 0 0 0   0 0 0 0 0   0 0 0 0 0  0 0 0 0.154 0" in="shadowBlurOuter2" type="matrix" result="shadowMatrixOuter2"></feColorMatrix>
            <feMerge>
                <feMergeNode in="shadowMatrixOuter1"></feMergeNode>
                <feMergeNode in="shadowMatrixOuter2"></feMergeNode>
                <feMergeNode in="SourceGraphic"></feMergeNode>
            </feMerge>
        </filter>
        <path d="M24.5120461,7.35018781 C25.1397845,8.77726258 25.4536489,10.3232371 25.4536489,11.9881576 C25.4941482,13.7720011 25.0891618,15.3576159 24.2386776,16.7450497 C23.3881934,18.1324835 22.3352288,19.3018745 21.0797522,20.2532577 C20.715259,20.5307444 20.2798986,20.8181371 19.773658,21.1154444 C19.2674175,21.4127516 18.6093146,21.6803241 17.7993297,21.9181699 C16.9893447,22.1560157 16.0072528,22.3542176 14.8530242,22.5127814 C13.6987957,22.6713453 12.3319667,22.750626 10.7524961,22.750626 L6.56084506,22.750626 L6.56084533,42 L-2.84217094e-14,42 L-2.84217094e-14,0.75 L10.9954903,0.75 C13.3849459,0.75 15.4605011,1.00766241 17.2222183,1.52299497 C18.9839355,2.03832752 20.4520111,2.75185421 21.6264893,3.66359642 C22.9427145,4.69426153 23.8843078,5.92311304 24.5120461,7.35018781 Z M17.6040025,15.895288 C18.7216066,15.1492109 19.3424884,13.8534124 19.4666667,12.0078534 C19.3838812,9.96595838 18.8664796,8.51309332 17.9144465,7.64921466 C17.2521626,7.17800812 16.3518839,6.78534188 15.2135835,6.47120419 C14.075283,6.15706649 12.7610831,6 11.2709443,6 L6.73846154,6 L6.73846154,17.25 L13.0715197,17.25 C13.8165891,17.25 14.5926914,17.1420168 15.3998499,16.9260471 C16.2070084,16.7100775 16.9417186,16.3664945 17.6040025,15.895288 L17.6040025,15.895288 Z" id="path-2"></path>
        <filter x="-50%" y="-50%" width="200%" height="200%" filterUnits="objectBoundingBox" id="filter-3">
            <feOffset dx="0" dy="19" in="SourceAlpha" result="shadowOffsetOuter1"></feOffset>
            <feGaussianBlur stdDeviation="19" in="shadowOffsetOuter1" result="shadowBlurOuter1"></feGaussianBlur>
            <feColorMatrix values="0 0 0 0 0   0 0 0 0 0   0 0 0 0 0  0 0 0 0.21 0" in="shadowBlurOuter1" type="matrix" result="shadowMatrixOuter1"></feColorMatrix>
            <feOffset dx="0" dy="15" in="SourceAlpha" result="shadowOffsetOuter2"></feOffset>
            <feGaussianBlur stdDeviation="6" in="shadowOffsetOuter2" result="shadowBlurOuter2"></feGaussianBlur>
            <feColorMatrix values="0 0 0 0 0   0 0 0 0 0   0 0 0 0 0  0 0 0 0.154 0" in="shadowBlurOuter2" type="matrix" result="shadowMatrixOuter2"></feColorMatrix>
            <feMerge>
                <feMergeNode in="shadowMatrixOuter1"></feMergeNode>
                <feMergeNode in="shadowMatrixOuter2"></feMergeNode>
                <feMergeNode in="SourceGraphic"></feMergeNode>
            </feMerge>
        </filter>
        <path d="M41.1494923,37.5 C38.269971,37.5 35.6504457,37.0146641 33.290838,36.0439778 C30.9312302,35.0732915 28.9115962,33.716332 27.2318755,31.9730586 L27.2918652,31.9730586 C25.4921644,30.1901654 24.1224126,28.1794882 23.1825688,25.9409667 C22.2427251,23.7024452 21.7528139,21.3153851 21.7128205,18.7797147 C21.7128205,16.2044245 22.1927335,13.7975548 23.152574,11.5590333 C24.1124144,9.32051179 25.4921644,7.30983459 27.2918652,5.52694136 L27.2318755,5.52694136 C28.9115962,3.78366799 30.9312302,2.4267085 33.290838,1.45602219 C35.6504457,0.485335876 38.269971,1.42108547e-14 41.1494923,1.42108547e-14 C44.0290136,1.42108547e-14 46.6385407,0.485335876 48.9781518,1.45602219 C51.3177629,2.4267085 53.347395,3.78366799 55.0671092,5.52694136 C56.7868233,7.30983459 58.1465769,9.32051179 59.1464107,11.5590333 C60.1462444,13.7975548 60.6461538,16.2044245 60.6461538,18.7797147 C60.6461538,21.3153851 60.1562426,23.71235 59.1764055,25.9706815 C58.1965684,28.2290129 56.846813,30.2297853 55.1270989,31.9730586 C53.4073848,33.716332 51.3677544,35.0732915 49.0081467,36.0439778 C46.6485389,37.0146641 44.0290136,37.5 41.1494923,37.5 L41.1494923,37.5 Z M28.4512821,18.7798013 C28.4512821,20.6473603 28.7733081,22.3956872 29.4173697,24.0248344 C30.0614314,25.6539817 30.9671295,27.0744973 32.1344913,28.2864238 C33.3018531,29.4983504 34.6905902,30.461917 36.3007444,31.1771523 C37.9108986,31.8923877 39.661915,32.25 41.5538462,32.25 C43.4457773,32.25 45.1967937,31.8923877 46.8069479,31.1771523 C48.4171021,30.461917 49.8058392,29.4983504 50.973201,28.2864238 C52.1405628,27.0744973 53.0462609,25.6539817 53.6903226,24.0248344 C54.3343843,22.3956872 54.6564103,20.6473603 54.6564103,18.7798013 C54.6564103,16.9122423 54.3343843,15.1539818 53.6903226,13.5049669 C53.0462609,11.855952 52.1405628,10.4255027 50.973201,9.21357616 C49.8058392,8.00164957 48.4171021,7.03808305 46.8069479,6.32284768 C45.1967937,5.60761232 43.4457773,5.25 41.5538462,5.25 C39.661915,5.25 37.9108986,5.60761232 36.3007444,6.32284768 C34.6905902,7.03808305 33.3018531,8.00164957 32.1344913,9.21357616 C30.9671295,10.4255027 30.0614314,11.855952 29.4173697,13.5049669 C28.7733081,15.1539818 28.4512821,16.9122423 28.4512821,18.7798013 L28.4512821,18.7798013 Z" id="path-4"></path>
        <filter x="-50%" y="-50%" width="200%" height="200%" filterUnits="objectBoundingBox" id="filter-5">
            <feOffset dx="0" dy="19" in="SourceAlpha" result="shadowOffsetOuter1"></feOffset>
            <feGaussianBlur stdDeviation="19" in="shadowOffsetOuter1" result="shadowBlurOuter1"></feGaussianBlur>
            <feColorMatrix values="0 0 0 0 0   0 0 0 0 0   0 0 0 0 0  0 0 0 0.21 0" in="shadowBlurOuter1" type="matrix" result="shadowMatrixOuter1"></feColorMatrix>
            <feOffset dx="0" dy="15" in="SourceAlpha" result="shadowOffsetOuter2"></feOffset>
            <feGaussianBlur stdDeviation="6" in="shadowOffsetOuter2" result="shadowBlurOuter2"></feGaussianBlur>
            <feColorMatrix values="0 0 0 0 0   0 0 0 0 0   0 0 0 0 0  0 0 0 0.154 0" in="shadowBlurOuter2" type="matrix" result="shadowMatrixOuter2"></feColorMatrix>
            <feMerge>
                <feMergeNode in="shadowMatrixOuter1"></feMergeNode>
                <feMergeNode in="shadowMatrixOuter2"></feMergeNode>
                <feMergeNode in="SourceGraphic"></feMergeNode>
            </feMerge>
        </filter>
        <path id="path-6" d="M83.1076923,37.5 L58.4593935,37.5 L58.4,0.75 L81.8010355,0.75 L81.8010355,6.11188525 L64.814497,6.11188525 L64.814497,15.2692623 L78.7719675,15.2692623 L78.7719675,20.6311475 L64.814497,20.6311475 L64.814497,32.1381148 L83.1076923,32.1381148 L83.1076923,37.5 Z"></path>
        <filter x="-50%" y="-50%" width="200%" height="200%" filterUnits="objectBoundingBox" id="filter-7">
            <feOffset dx="0" dy="19" in="SourceAlpha" result="shadowOffsetOuter1"></feOffset>
            <feGaussianBlur stdDeviation="19" in="shadowOffsetOuter1" result="shadowBlurOuter1"></feGaussianBlur>
            <feColorMatrix values="0 0 0 0 0   0 0 0 0 0   0 0 0 0 0  0 0 0 0.21 0" in="shadowBlurOuter1" type="matrix" result="shadowMatrixOuter1"></feColorMatrix>
            <feOffset dx="0" dy="15" in="SourceAlpha" result="shadowOffsetOuter2"></feOffset>
            <feGaussianBlur stdDeviation="6" in="shadowOffsetOuter2" result="shadowBlurOuter2"></feGaussianBlur>
            <feColorMatrix values="0 0 0 0 0   0 0 0 0 0   0 0 0 0 0  0 0 0 0.154 0" in="shadowBlurOuter2" type="matrix" result="shadowMatrixOuter2"></feColorMatrix>
            <feMerge>
                <feMergeNode in="shadowMatrixOuter1"></feMergeNode>
                <feMergeNode in="shadowMatrixOuter2"></feMergeNode>
                <feMergeNode in="SourceGraphic"></feMergeNode>
            </feMerge>
        </filter>
        <path id="path-8" d="M106.317949,6.11188525 L96.6412844,6.11188525 L96.6412844,37.5 L90.2102094,37.5 L90.2102094,6.11188525 L80.1128205,6.11188525 L80.1128205,0.75 L106.317949,0.75 L106.317949,6.11188525 Z"></path>
        <filter x="-50%" y="-50%" width="200%" height="200%" filterUnits="objectBoundingBox" id="filter-9">
            <feOffset dx="0" dy="19" in="SourceAlpha" result="shadowOffsetOuter1"></feOffset>
            <feGaussianBlur stdDeviation="19" in="shadowOffsetOuter1" result="shadowBlurOuter1"></feGaussianBlur>
            <feColorMatrix values="0 0 0 0 0   0 0 0 0 0   0 0 0 0 0  0 0 0 0.21 0" in="shadowBlurOuter1" type="matrix" result="shadowMatrixOuter1"></feColorMatrix>
            <feOffset dx="0" dy="15" in="SourceAlpha" result="shadowOffsetOuter2"></feOffset>
            <feGaussianBlur stdDeviation="6" in="shadowOffsetOuter2" result="shadowBlurOuter2"></feGaussianBlur>
            <feColorMatrix values="0 0 0 0 0   0 0 0 0 0   0 0 0 0 0  0 0 0 0.154 0" in="shadowBlurOuter2" type="matrix" result="shadowMatrixOuter2"></feColorMatrix>
            <feMerge>
                <feMergeNode in="shadowMatrixOuter1"></feMergeNode>
                <feMergeNode in="shadowMatrixOuter2"></feMergeNode>
                <feMergeNode in="SourceGraphic"></feMergeNode>
            </feMerge>
        </filter>
        <path id="path-10" d="M110.810256,43.5 L104.071795,43.5 L104.071795,0.75 L110.810256,0.75 L110.810256,43.5 Z"></path>
        <filter x="-50%" y="-50%" width="200%" height="200%" filterUnits="objectBoundingBox" id="filter-11">
            <feOffset dx="0" dy="19" in="SourceAlpha" result="shadowOffsetOuter1"></feOffset>
            <feGaussianBlur stdDeviation="19" in="shadowOffsetOuter1" result="shadowBlurOuter1"></feGaussianBlur>
            <feColorMatrix values="0 0 0 0 0   0 0 0 0 0   0 0 0 0 0  0 0 0 0.21 0" in="shadowBlurOuter1" type="matrix" result="shadowMatrixOuter1"></feColorMatrix>
            <feOffset dx="0" dy="15" in="SourceAlpha" result="shadowOffsetOuter2"></feOffset>
            <feGaussianBlur stdDeviation="6" in="shadowOffsetOuter2" result="shadowBlurOuter2"></feGaussianBlur>
            <feColorMatrix values="0 0 0 0 0   0 0 0 0 0   0 0 0 0 0  0 0 0 0.154 0" in="shadowBlurOuter2" type="matrix" result="shadowMatrixOuter2"></feColorMatrix>
            <feMerge>
                <feMergeNode in="shadowMatrixOuter1"></feMergeNode>
                <feMergeNode in="shadowMatrixOuter2"></feMergeNode>
                <feMergeNode in="SourceGraphic"></feMergeNode>
            </feMerge>
        </filter>
        <path id="path-12" d="M143.005128,30.4873217 C140.867549,32.6267936 138.482601,34.3304216 135.850212,35.5982567 C133.217823,36.8660919 130.476617,37.5 127.626511,37.5 C124.81599,37.4207603 122.262809,36.9255196 119.966891,36.0142631 C117.670973,35.1030065 115.632386,33.7559519 113.85107,31.9730586 C112.148924,30.1901654 110.842645,28.1695834 109.932195,25.911252 C109.021745,23.6529206 108.566526,21.2757653 108.566526,18.7797147 C108.526941,16.2044245 108.972264,13.78765 109.902506,11.5293185 C110.832749,9.27098712 112.148924,7.25040511 113.85107,5.46751189 C115.513632,3.76385836 117.52253,2.4267085 119.877826,1.45602219 C122.233121,0.485335876 124.835783,2.84217094e-14 127.685888,2.84217094e-14 C130.535993,2.84217094e-14 133.257407,0.624003269 135.850212,1.87202853 C138.443016,3.12005378 140.808172,4.81377694 142.945751,6.95324881 L138.967499,11.2321712 C137.107013,9.37003823 135.216868,7.91403061 133.297005,6.8641046 C131.377142,5.81417859 129.506789,5.28922345 127.685888,5.28922345 C125.825402,5.28922345 124.10349,5.64579675 122.520098,6.35895404 C120.936706,7.07211133 119.571051,8.03287827 118.423092,9.24128368 C117.275132,10.4496891 116.384488,11.8759823 115.751131,13.520206 C115.117774,15.1644298 114.801101,16.9175818 114.801101,18.7797147 C114.801101,20.6418477 115.117774,22.3850949 115.751131,24.0095087 C116.384488,25.6339225 117.275132,27.0503109 118.423092,28.2587163 C119.571051,29.4671217 120.936706,30.4278887 122.520098,31.141046 C124.10349,31.8542032 125.825402,32.2107765 127.685888,32.2107765 C129.467204,32.2107765 131.327661,31.6759166 133.267317,30.6061807 C135.206972,29.5364447 137.087221,28.0903419 138.908122,26.2678288 L143.005128,30.4873217 Z"></path>
        <filter x="-50%" y="-50%" width="200%" height="200%" filterUnits="objectBoundingBox" id="filter-13">
            <feOffset dx="0" dy="19" in="SourceAlpha" result="shadowOffsetOuter1"></feOffset>
            <feGaussianBlur stdDeviation="19" in="shadowOffsetOuter1" result="shadowBlurOuter1"></feGaussianBlur>
            <feColorMatrix values="0 0 0 0 0   0 0 0 0 0   0 0 0 0 0  0 0 0 0.21 0" in="shadowBlurOuter1" type="matrix" result="shadowMatrixOuter1"></feColorMatrix>
            <feOffset dx="0" dy="15" in="SourceAlpha" result="shadowOffsetOuter2"></feOffset>
            <feGaussianBlur stdDeviation="6" in="shadowOffsetOuter2" result="shadowBlurOuter2"></feGaussianBlur>
            <feColorMatrix values="0 0 0 0 0   0 0 0 0 0   0 0 0 0 0  0 0 0 0.154 0" in="shadowBlurOuter2" type="matrix" result="shadowMatrixOuter2"></feColorMatrix>
            <feMerge>
                <feMergeNode in="shadowMatrixOuter1"></feMergeNode>
                <feMergeNode in="shadowMatrixOuter2"></feMergeNode>
                <feMergeNode in="SourceGraphic"></feMergeNode>
            </feMerge>
        </filter>
        <path id="path-14" d="M120.299862,39.821934 C118.55226,39.3698877 116.939113,38.7409631 115.460374,37.9351415 C113.981634,37.1293199 112.66423,36.1761061 111.508125,35.0754717 C110.352019,33.9748373 109.370688,32.7956038 108.564103,31.5377358 L114.613463,27.8820755 C114.98987,28.5503178 115.5948,29.3069926 116.428271,30.1521226 C117.261743,30.9972527 118.189302,31.8030622 119.210977,32.5695755 C120.232652,33.3360887 121.321526,33.9748402 122.477632,34.4858491 C123.633737,34.9968579 124.776383,35.2523585 125.905603,35.2523585 C127.680091,35.2523585 129.11848,35.0853004 130.220813,34.7511792 C131.323146,34.4170581 132.196934,33.9944994 132.842203,33.4834906 C133.487471,32.9724817 133.917643,32.4516536 134.132733,31.9209906 C134.347822,31.3903275 134.455365,30.9088072 134.455365,30.4764151 C134.455365,30.044023 134.388151,29.5625027 134.25372,29.0318396 C134.119289,28.5011766 133.756331,27.9312137 133.164835,27.321934 C132.573339,26.7126542 131.672666,26.0935566 130.462787,25.4646226 C129.252909,24.8356887 127.572548,24.2067642 125.421654,23.5778302 C122.302857,22.6344292 119.748708,21.7401772 117.75913,20.8950472 C115.769553,20.0499172 114.196735,19.2047998 113.040629,18.3596698 C111.884524,17.5145398 111.07795,16.6497686 110.620885,15.7653302 C110.16382,14.8808918 109.935291,13.9276781 109.935291,12.9056604 C109.935291,11.8443343 110.217592,10.7240625 110.782201,9.54481132 C111.346811,8.36556014 112.260928,7.29442305 113.524578,6.33136792 C114.788229,5.36831279 116.455147,4.57233019 118.525383,3.94339623 C120.595619,3.31446226 123.163211,3 126.228235,3 C130.368707,3 133.783201,3.73702093 136.471819,5.21108491 C139.160437,6.68514888 141.230642,8.75863443 142.682496,11.4316038 L135.342605,13.1415094 C133.675662,10.036148 130.637569,8.48349057 126.228235,8.48349057 C123.808479,8.48349057 122.007132,8.81760672 120.82414,9.48584906 C119.641148,10.1540914 119.049661,11.0385165 119.049661,12.1391509 C119.049661,12.8073933 119.358847,13.406837 119.977229,13.9375 C120.595611,14.468163 121.442513,14.9791642 122.517961,15.4705189 C123.593408,15.9618735 124.843597,16.4335669 126.268564,16.8856132 C127.693532,17.3376595 129.239464,17.8191798 130.906407,18.3301887 C133.70257,19.2342813 135.907204,20.177668 137.520375,21.1603774 C139.133546,22.1430867 140.343406,23.1454351 141.149991,24.1674528 C141.956576,25.1894705 142.467406,26.191819 142.682496,27.1745283 C142.897585,28.1572376 143.005128,29.0809705 143.005128,29.9457547 C143.005128,30.8498473 142.73627,31.9111574 142.198547,33.129717 C141.660823,34.3482765 140.746707,35.5078561 139.45617,36.6084906 C138.165633,37.709125 136.418058,38.6328579 134.213391,39.379717 C132.008724,40.1265761 129.239489,40.5 125.905603,40.5 C123.916025,40.5 122.047464,40.2739802 120.299862,39.821934 Z"></path>
        <filter x="-50%" y="-50%" width="200%" height="200%" filterUnits="objectBoundingBox" id="filter-15">
            <feOffset dx="0" dy="19" in="SourceAlpha" result="shadowOffsetOuter1"></feOffset>
            <feGaussianBlur stdDeviation="19" in="shadowOffsetOuter1" result="shadowBlurOuter1"></feGaussianBlur>
            <feColorMatrix values="0 0 0 0 0   0 0 0 0 0   0 0 0 0 0  0 0 0 0.21 0" in="shadowBlurOuter1" type="matrix" result="shadowMatrixOuter1"></feColorMatrix>
            <feOffset dx="0" dy="15" in="SourceAlpha" result="shadowOffsetOuter2"></feOffset>
            <feGaussianBlur stdDeviation="6" in="shadowOffsetOuter2" result="shadowBlurOuter2"></feGaussianBlur>
            <feColorMatrix values="0 0 0 0 0   0 0 0 0 0   0 0 0 0 0  0 0 0 0.154 0" in="shadowBlurOuter2" type="matrix" result="shadowMatrixOuter2"></feColorMatrix>
            <feMerge>
                <feMergeNode in="shadowMatrixOuter1"></feMergeNode>
                <feMergeNode in="shadowMatrixOuter2"></feMergeNode>
                <feMergeNode in="SourceGraphic"></feMergeNode>
            </feMerge>
        </filter>
        <path id="path-16" d="M110.810256,40.5 L104.134188,40.5 L104.071795,3.75 L110.810256,3.75 L110.810256,40.5 Z"></path>
        <filter x="-50%" y="-50%" width="200%" height="200%" filterUnits="objectBoundingBox" id="filter-17">
            <feOffset dx="0" dy="-19" in="SourceAlpha" result="shadowOffsetOuter1"></feOffset>
            <feGaussianBlur stdDeviation="19" in="shadowOffsetOuter1" result="shadowBlurOuter1"></feGaussianBlur>
            <feColorMatrix values="0 0 0 0 0   0 0 0 0 0   0 0 0 0 0  0 0 0 0.21 0" in="shadowBlurOuter1" type="matrix" result="shadowMatrixOuter1"></feColorMatrix>
            <feOffset dx="0" dy="-15" in="SourceAlpha" result="shadowOffsetOuter2"></feOffset>
            <feGaussianBlur stdDeviation="6" in="shadowOffsetOuter2" result="shadowBlurOuter2"></feGaussianBlur>
            <feColorMatrix values="0 0 0 0 0   0 0 0 0 0   0 0 0 0 0  0 0 0 0.154 0" in="shadowBlurOuter2" type="matrix" result="shadowMatrixOuter2"></feColorMatrix>
            <feMerge>
                <feMergeNode in="shadowMatrixOuter1"></feMergeNode>
                <feMergeNode in="shadowMatrixOuter2"></feMergeNode>
                <feMergeNode in="SourceGraphic"></feMergeNode>
            </feMerge>
        </filter>
        <polygon id="path-18" points="16.8461538 2.84217094e-14 26.2051282 15 7.48717949 15 "></polygon>
        <filter x="-50%" y="-50%" width="200%" height="200%" filterUnits="objectBoundingBox" id="filter-19">
            <feOffset dx="0" dy="19" in="SourceAlpha" result="shadowOffsetOuter1"></feOffset>
            <feGaussianBlur stdDeviation="19" in="shadowOffsetOuter1" result="shadowBlurOuter1"></feGaussianBlur>
            <feColorMatrix values="0 0 0 0 0   0 0 0 0 0   0 0 0 0 0  0 0 0 0.21 0" in="shadowBlurOuter1" type="matrix" result="shadowMatrixOuter1"></feColorMatrix>
            <feOffset dx="0" dy="15" in="SourceAlpha" result="shadowOffsetOuter2"></feOffset>
            <feGaussianBlur stdDeviation="6" in="shadowOffsetOuter2" result="shadowBlurOuter2"></feGaussianBlur>
            <feColorMatrix values="0 0 0 0 0   0 0 0 0 0   0 0 0 0 0  0 0 0 0.154 0" in="shadowBlurOuter2" type="matrix" result="shadowMatrixOuter2"></feColorMatrix>
            <feMerge>
                <feMergeNode in="shadowMatrixOuter1"></feMergeNode>
                <feMergeNode in="shadowMatrixOuter2"></feMergeNode>
                <feMergeNode in="SourceGraphic"></feMergeNode>
            </feMerge>
        </filter>
        <path id="path-20" d="M27.8258521,36.75 L17.021454,22.3512295 L7.24317192,36.75 L0,36.75 L13.158429,17.3508197 C12.232908,16.0254032 11.2269219,14.6096387 10.1404407,13.1034836 C9.05395947,11.5973285 7.94737483,10.0811552 6.82065356,8.55491803 C5.69393229,7.02868089 4.60746737,5.5325893 3.5612262,4.06659836 C2.51498502,2.60060742 1.54923842,1.24508819 0.663957426,0 L7.96748911,0 L17.0818138,12.5311475 C18.4499753,10.5229408 19.8784755,8.41435531 21.3673572,6.20532787 C22.8562388,3.99630043 24.2444996,1.92787849 25.532181,0 L32.7753529,0 L21.0051986,17.5315574 L35.1897436,36.75 L27.8258521,36.75 Z"></path>
        <filter x="-50%" y="-50%" width="200%" height="200%" filterUnits="objectBoundingBox" id="filter-21">
            <feOffset dx="0" dy="19" in="SourceAlpha" result="shadowOffsetOuter1"></feOffset>
            <feGaussianBlur stdDeviation="19" in="shadowOffsetOuter1" result="shadowBlurOuter1"></feGaussianBlur>
            <feColorMatrix values="0 0 0 0 0   0 0 0 0 0   0 0 0 0 0  0 0 0 0.21 0" in="shadowBlurOuter1" type="matrix" result="shadowMatrixOuter1"></feColorMatrix>
            <feOffset dx="0" dy="15" in="SourceAlpha" result="shadowOffsetOuter2"></feOffset>
            <feGaussianBlur stdDeviation="6" in="shadowOffsetOuter2" result="shadowBlurOuter2"></feGaussianBlur>
            <feColorMatrix values="0 0 0 0 0   0 0 0 0 0   0 0 0 0 0  0 0 0 0.154 0" in="shadowBlurOuter2" type="matrix" result="shadowMatrixOuter2"></feColorMatrix>
            <feMerge>
                <feMergeNode in="shadowMatrixOuter1"></feMergeNode>
                <feMergeNode in="shadowMatrixOuter2"></feMergeNode>
                <feMergeNode in="SourceGraphic"></feMergeNode>
            </feMerge>
        </filter>
        <path d="M28.450013,40.5 L24.2153151,30.5853116 L10.8551412,30.5853116 C10.1791767,32.1476339 9.47340075,33.8200949 8.73779226,35.6027448 C8.00218378,37.3853947 7.31628885,39.0177967 6.68008692,40.5 L0,40.5 L17.5352282,2.84217094e-14 L35.1897436,40.5 L28.450013,40.5 Z M21.7128205,25.5 C21.2793501,24.422867 20.8951434,23.475403 20.5601889,22.6575798 C20.2252345,21.8397565 19.9001365,21.0319189 19.5848853,20.2340426 C19.2696341,19.4361662 18.9248332,18.578462 18.5504723,17.6609043 C18.1761115,16.7433465 17.7327961,15.6063898 17.2205128,14.25 C16.5111975,16.0452217 15.78219,17.8503899 15.0334683,19.6655585 C14.2847466,21.4807272 13.5163332,23.4255215 12.7282051,25.5 L21.7128205,25.5 Z" id="path-22"></path>
        <filter x="-50%" y="-50%" width="200%" height="200%" filterUnits="objectBoundingBox" id="filter-23">
            <feOffset dx="0" dy="19" in="SourceAlpha" result="shadowOffsetOuter1"></feOffset>
            <feGaussianBlur stdDeviation="19" in="shadowOffsetOuter1" result="shadowBlurOuter1"></feGaussianBlur>
            <feColorMatrix values="0 0 0 0 0   0 0 0 0 0   0 0 0 0 0  0 0 0 0.21 0" in="shadowBlurOuter1" type="matrix" result="shadowMatrixOuter1"></feColorMatrix>
            <feOffset dx="0" dy="15" in="SourceAlpha" result="shadowOffsetOuter2"></feOffset>
            <feGaussianBlur stdDeviation="6" in="shadowOffsetOuter2" result="shadowBlurOuter2"></feGaussianBlur>
            <feColorMatrix values="0 0 0 0 0   0 0 0 0 0   0 0 0 0 0  0 0 0 0.154 0" in="shadowBlurOuter2" type="matrix" result="shadowMatrixOuter2"></feColorMatrix>
            <feMerge>
                <feMergeNode in="shadowMatrixOuter1"></feMergeNode>
                <feMergeNode in="shadowMatrixOuter2"></feMergeNode>
                <feMergeNode in="SourceGraphic"></feMergeNode>
            </feMerge>
        </filter>
        <polygon id="path-24" points="16.4717949 10.5 34.4410256 40.5 4.49230769 40.5 "></polygon>
        <filter x="-50%" y="-50%" width="200%" height="200%" filterUnits="objectBoundingBox" id="filter-25">
            <feOffset dx="0" dy="19" in="SourceAlpha" result="shadowOffsetOuter1"></feOffset>
            <feGaussianBlur stdDeviation="19" in="shadowOffsetOuter1" result="shadowBlurOuter1"></feGaussianBlur>
            <feColorMatrix values="0 0 0 0 0   0 0 0 0 0   0 0 0 0 0  0 0 0 0.21 0" in="shadowBlurOuter1" type="matrix" result="shadowMatrixOuter1"></feColorMatrix>
            <feOffset dx="0" dy="15" in="SourceAlpha" result="shadowOffsetOuter2"></feOffset>
            <feGaussianBlur stdDeviation="6" in="shadowOffsetOuter2" result="shadowBlurOuter2"></feGaussianBlur>
            <feColorMatrix values="0 0 0 0 0   0 0 0 0 0   0 0 0 0 0  0 0 0 0.154 0" in="shadowBlurOuter2" type="matrix" result="shadowMatrixOuter2"></feColorMatrix>
            <feMerge>
                <feMergeNode in="shadowMatrixOuter1"></feMergeNode>
                <feMergeNode in="shadowMatrixOuter2"></feMergeNode>
                <feMergeNode in="SourceGraphic"></feMergeNode>
            </feMerge>
        </filter>
        <path d="M44.4366487,40.5 L31.8721759,26.0409836 L30.4828352,26.0409836 L30.4828352,40.5 L24.0193805,40.5 L23.9589744,3.75 L34.1072024,3.75 C36.4026464,3.75 38.4362987,4.01106296 40.2082204,4.53319672 C41.9801421,5.05533048 43.4500096,5.77827407 44.6178671,6.70204918 C45.9065374,7.78648083 46.862958,9.05163211 47.4871577,10.497541 C48.1113574,11.9434499 48.4234526,13.4897459 48.4234526,15.1364754 C48.4637235,16.9840256 48.0710877,18.6106487 47.2455332,20.0163934 C46.4199788,21.4221382 45.3830175,22.6069624 44.1346181,23.5709016 C43.6916377,23.8922147 43.0875825,24.2235639 42.3224345,24.564959 C41.5572865,24.9063542 40.5303928,25.2176215 39.2417225,25.4987705 C40.2082252,26.7036945 41.2854569,27.9588049 42.4734498,29.2641393 C43.6614428,30.5694737 44.8393503,31.8848294 46.0072078,33.2102459 C47.1750653,34.5356624 48.3227701,35.8208954 49.4503566,37.0659836 C50.5779431,38.3110718 51.5645665,39.4557325 52.4102564,40.5 L44.4366487,40.5 Z M35.8718217,21 C37.9102263,21 39.4096072,20.510209 40.3700094,19.5306122 C41.3304116,18.5510155 41.849805,17.1836822 41.9282051,15.4285714 C41.889005,14.163259 41.6930075,13.1122491 41.3402067,12.2755102 C40.9874059,11.4387713 40.4876123,10.7857166 39.8408108,10.3163265 C39.1940094,9.84693643 38.4002195,9.52040908 37.4594174,9.33673469 C36.5186152,9.15306031 35.440629,9.04081653 34.2254262,9 L30.6974359,9 L30.6974359,21 L35.8718217,21 Z" id="path-26"></path>
        <filter x="-50%" y="-50%" width="200%" height="200%" filterUnits="objectBoundingBox" id="filter-27">
            <feOffset dx="0" dy="19" in="SourceAlpha" result="shadowOffsetOuter1"></feOffset>
            <feGaussianBlur stdDeviation="19" in="shadowOffsetOuter1" result="shadowBlurOuter1"></feGaussianBlur>
            <feColorMatrix values="0 0 0 0 0   0 0 0 0 0   0 0 0 0 0  0 0 0 0.21 0" in="shadowBlurOuter1" type="matrix" result="shadowMatrixOuter1"></feColorMatrix>
            <feOffset dx="0" dy="15" in="SourceAlpha" result="shadowOffsetOuter2"></feOffset>
            <feGaussianBlur stdDeviation="6" in="shadowOffsetOuter2" result="shadowBlurOuter2"></feGaussianBlur>
            <feColorMatrix values="0 0 0 0 0   0 0 0 0 0   0 0 0 0 0  0 0 0 0.154 0" in="shadowBlurOuter2" type="matrix" result="shadowMatrixOuter2"></feColorMatrix>
            <feMerge>
                <feMergeNode in="shadowMatrixOuter1"></feMergeNode>
                <feMergeNode in="shadowMatrixOuter2"></feMergeNode>
                <feMergeNode in="SourceGraphic"></feMergeNode>
            </feMerge>
        </filter>
        <path d="M21.0493779,6.70204918 C22.2679288,7.7463167 23.1818282,8.99138621 23.7911036,10.4372951 C24.400379,11.883204 24.7050122,13.4495817 24.7050122,15.1364754 C24.7443203,16.9438615 24.3512452,18.5504028 23.5257753,19.9561475 C22.7003054,21.3618923 21.6783103,22.5467165 20.4597595,23.5106557 C20.1059867,23.7918047 19.683431,24.0829903 19.1920799,24.3842213 C18.7007287,24.6854523 18.0619818,24.9565562 17.27582,25.197541 C16.4896581,25.4385258 15.5364512,25.6393435 14.4161706,25.8 C13.29589,25.9606565 11.9692618,26.0409836 10.4362462,26.0409836 L6.36787903,26.0409836 L6.36787903,40.5 L0.0589618429,40.5 L7.10542736e-14,3.75 L10.6720936,3.75 C12.991271,3.75 15.0057805,4.01106296 16.7156825,4.53319672 C18.4255845,5.05533048 19.8504814,5.77827407 20.9904161,6.70204918 L21.0493779,6.70204918 Z M16.964853,18.895288 C18.0167157,18.1492109 18.6010751,16.8534124 18.7179487,15.0078534 C18.640033,12.9659584 18.1530668,11.5130933 17.2570356,10.6492147 C16.6337096,10.1780081 15.7863885,9.78534188 14.7150469,9.47120419 C13.6437053,9.15706649 12.4068113,9 11.0043277,9 L6.73846154,9 L6.73846154,20.25 L12.6989869,20.25 C13.4002286,20.25 14.1306779,20.1420168 14.8903565,19.9260471 C15.6500351,19.7100775 16.341527,19.3664945 16.964853,18.895288 L16.964853,18.895288 Z" id="path-28"></path>
        <filter x="-50%" y="-50%" width="200%" height="200%" filterUnits="objectBoundingBox" id="filter-29">
            <feOffset dx="0" dy="19" in="SourceAlpha" result="shadowOffsetOuter1"></feOffset>
            <feGaussianBlur stdDeviation="19" in="shadowOffsetOuter1" result="shadowBlurOuter1"></feGaussianBlur>
            <feColorMatrix values="0 0 0 0 0   0 0 0 0 0   0 0 0 0 0  0 0 0 0.21 0" in="shadowBlurOuter1" type="matrix" result="shadowMatrixOuter1"></feColorMatrix>
            <feOffset dx="0" dy="15" in="SourceAlpha" result="shadowOffsetOuter2"></feOffset>
            <feGaussianBlur stdDeviation="6" in="shadowOffsetOuter2" result="shadowBlurOuter2"></feGaussianBlur>
            <feColorMatrix values="0 0 0 0 0   0 0 0 0 0   0 0 0 0 0  0 0 0 0.154 0" in="shadowBlurOuter2" type="matrix" result="shadowMatrixOuter2"></feColorMatrix>
            <feMerge>
                <feMergeNode in="shadowMatrixOuter1"></feMergeNode>
                <feMergeNode in="shadowMatrixOuter2"></feMergeNode>
                <feMergeNode in="SourceGraphic"></feMergeNode>
            </feMerge>
        </filter>
        <path id="path-30" d="M0,36.2962963 L16.0116219,2.27373675e-13 L32.1321664,36.2962963 L0,36.2962963 Z"></path>
        <filter x="-50%" y="-50%" width="200%" height="200%" filterUnits="objectBoundingBox" id="filter-31">
            <feOffset dx="0" dy="-19" in="SourceAlpha" result="shadowOffsetOuter1"></feOffset>
            <feGaussianBlur stdDeviation="19" in="shadowOffsetOuter1" result="shadowBlurOuter1"></feGaussianBlur>
            <feColorMatrix values="0 0 0 0 0   0 0 0 0 0   0 0 0 0 0  0 0 0 0.21 0" in="shadowBlurOuter1" type="matrix" result="shadowMatrixOuter1"></feColorMatrix>
            <feOffset dx="0" dy="-15" in="SourceAlpha" result="shadowOffsetOuter2"></feOffset>
            <feGaussianBlur stdDeviation="6" in="shadowOffsetOuter2" result="shadowBlurOuter2"></feGaussianBlur>
            <feColorMatrix values="0 0 0 0 0   0 0 0 0 0   0 0 0 0 0  0 0 0 0.154 0" in="shadowBlurOuter2" type="matrix" result="shadowMatrixOuter2"></feColorMatrix>
            <feMerge>
                <feMergeNode in="shadowMatrixOuter1"></feMergeNode>
                <feMergeNode in="shadowMatrixOuter2"></feMergeNode>
                <feMergeNode in="SourceGraphic"></feMergeNode>
            </feMerge>
        </filter>
        <path id="path-32" d="M19.5890411,40 L37.234502,0 L55,40 L19.5890411,40 Z"></path>
    </defs>
    <g id="Page-1" stroke="none" stroke-width="1" fill="none" fill-rule="evenodd" sketch:type="MSPage">
        <g id="Logo" sketch:type="MSArtboardGroup" transform="translate(-171.000000, -101.000000)">
            <g id="Logo-+-Sign" sketch:type="MSLayerGroup" transform="translate(205.000000, 119.000000)">
                <g id="Logo" transform="translate(59.000000, 0.000000)">
                    <g id="POETIC" transform="translate(-0.000000, 0.000000)">
                        <g id="P" filter="url(#filter-1)">
                            <use fill="#212121" fill-rule="evenodd" sketch:type="MSShapeGroup" xlink:href="#path-2"></use>
                            <use fill="none" xlink:href="#path-2"></use>
                        </g>
                        <g id="o" filter="url(#filter-3)">
                            <use fill="#212121" fill-rule="evenodd" sketch:type="MSShapeGroup" xlink:href="#path-4"></use>
                            <use fill="none" xlink:href="#path-4"></use>
                        </g>
                        <g id="E" filter="url(#filter-5)">
                            <use fill="#212121" fill-rule="evenodd" sketch:type="MSShapeGroup" xlink:href="#path-6"></use>
                            <use fill="none" xlink:href="#path-6"></use>
                        </g>
                        <g id="T" filter="url(#filter-7)">
                            <use fill="#212121" fill-rule="evenodd" sketch:type="MSShapeGroup" xlink:href="#path-8"></use>
                            <use fill="none" xlink:href="#path-8"></use>
                        </g>
                        <g id="I" filter="url(#filter-9)">
                            <use fill="#212121" fill-rule="evenodd" sketch:type="MSShapeGroup" xlink:href="#path-10"></use>
                            <use fill="none" xlink:href="#path-10"></use>
                        </g>
                        <g id="C" filter="url(#filter-11)">
                            <use fill="#212121" fill-rule="evenodd" sketch:type="MSShapeGroup" xlink:href="#path-12"></use>
                            <use fill="none" xlink:href="#path-12"></use>
                        </g>
                    </g>
                    <g id="PRAXIS" transform="translate(0.000000, 37.500000)">
                        <g id="S" filter="url(#filter-13)">
                            <use fill="#212121" fill-rule="evenodd" sketch:type="MSShapeGroup" xlink:href="#path-14"></use>
                            <use fill="none" xlink:href="#path-14"></use>
                        </g>
                        <g id="I" filter="url(#filter-15)">
                            <use fill="#212121" fill-rule="evenodd" sketch:type="MSShapeGroup" xlink:href="#path-16"></use>
                            <use fill="none" xlink:href="#path-16"></use>
                        </g>
                        <g id="X" transform="translate(74.871795, 3.750000)">
                            <g id="Triangle-7" filter="url(#filter-17)">
                                <use fill="#E53935" fill-rule="evenodd" sketch:type="MSShapeGroup" transform="translate(16.846154, 7.500000) scale(1, -1) translate(-16.846154, -7.500000) " xlink:href="#path-18"></use>
                                <use fill="none" xlink:href="#path-18"></use>
                            </g>
                            <g id="x" filter="url(#filter-19)">
                                <use fill="#212121" fill-rule="evenodd" sketch:type="MSShapeGroup" xlink:href="#path-20"></use>
                                <use fill="none" xlink:href="#path-20"></use>
                            </g>
                        </g>
                        <g id="A" transform="translate(45.671795, 0.000000)">
                            <g filter="url(#filter-21)">
                                <use fill="#212121" fill-rule="evenodd" sketch:type="MSShapeGroup" xlink:href="#path-22"></use>
                                <use fill="none" xlink:href="#path-22"></use>
                            </g>
                            <g id="Triangle-4-Copy-2" filter="url(#filter-23)">
                                <use fill="#212121" fill-rule="evenodd" sketch:type="MSShapeGroup" xlink:href="#path-24"></use>
                                <use fill="none" xlink:href="#path-24"></use>
                            </g>
                        </g>
                        <g id="R" filter="url(#filter-25)">
                            <use fill="#212121" fill-rule="evenodd" sketch:type="MSShapeGroup" xlink:href="#path-26"></use>
                            <use fill="none" xlink:href="#path-26"></use>
                        </g>
                        <g id="P" filter="url(#filter-27)">
                            <use fill="#212121" fill-rule="evenodd" sketch:type="MSShapeGroup" xlink:href="#path-28"></use>
                            <use fill="none" xlink:href="#path-28"></use>
                        </g>
                    </g>
                </g>
                <g id="Sign" transform="translate(-0.000000, 1.000000)">
                    <g id="Black" filter="url(#filter-29)">
                        <use fill="#212121" fill-rule="evenodd" sketch:type="MSShapeGroup" xlink:href="#path-30"></use>
                        <use fill="none" xlink:href="#path-30"></use>
                    </g>
                    <g id="Red" filter="url(#filter-31)">
                        <use fill="#E53935" fill-rule="evenodd" sketch:type="MSShapeGroup" transform="translate(37.294521, 20.000000) scale(1, -1) translate(-37.294521, -20.000000) " xlink:href="#path-32"></use>
                        <use fill="none" xlink:href="#path-32"></use>
                    </g>
                </g>
            </g>
        </g>
    </g>
</svg>