<?xml version="1.0" encoding="UTF-8" standalone="no"?>
<svg width="498px" height="156px" viewBox="0 0 498 156" version="1.1" xmlns="http://www.w3.org/2000/svg" xmlns:xlink="http://www.w3.org/1999/xlink">
    <!-- Generator: Sketch 46.2 (44496) - http://www.bohemiancoding.com/sketch -->
    <title>Logo Copy 2</title>
    <desc>Created with Sketch.</desc>
    <defs></defs>
    <g id="Page-1" stroke="none" stroke-width="1" fill="none" fill-rule="evenodd">
        <g id="New-Logo-Copy-2" transform="translate(-75.000000, -79.000000)">
            <g id="Logo" transform="translate(255.000000, 79.000000)" fill="#212121">
                <g transform="translate(0.000000, 0.000000)">
                    <g id="POETIC">
                        <path d="M51.2383805,14.7003756 C52.5505637,17.5545252 53.2066455,20.6464741 53.2066455,23.9763153 C53.2913024,27.5440022 52.4447453,30.7152319 50.6669488,33.4900995 C48.8891522,36.2649671 46.6881038,38.603749 44.0637374,40.5065154 C43.3018246,41.0614889 42.3917757,41.6362743 41.3335635,42.2308888 C40.2753512,42.8255032 38.899696,43.3606483 37.2065564,43.8363398 C35.5134168,44.3120314 33.4605158,44.7084351 31.0477919,45.0255629 C28.635068,45.3426906 25.7779378,45.5012521 22.4763156,45.5012521 L13.7143621,45.5012521 L13.7143626,84 L0,84 L0,1.5 L22.984255,1.5 C27.9790167,1.5 32.3176218,2.01532483 36.0002004,3.04598994 C39.682779,4.07665505 42.7515485,5.50370841 45.2066009,7.32719284 C47.9579521,9.38852307 49.9261974,11.8462261 51.2383805,14.7003756 Z M36.7982572,31.7905759 C39.1344238,30.2984219 40.4322747,27.7068247 40.6918488,24.0157068 C40.5187994,19.9319168 39.437257,17.0261866 37.4471891,15.2984293 C36.0627941,14.3560162 34.1809104,13.5706838 31.8014814,12.9424084 C29.4220525,12.314133 26.6749348,12 23.560046,12 L14.08564,12 L14.08564,34.5 L27.3238512,34.5 C28.8812956,34.5 30.5036091,34.2840336 32.1908406,33.8520942 C33.878072,33.4201549 35.4138622,32.732989 36.7982572,31.7905759 L36.7982572,31.7905759 Z" id="P"></path>
                        <path d="M90.8905409,80 C84.747562,80 79.1592415,78.9646168 74.1254116,76.8938193 C69.0915817,74.8230219 64.7830293,71.928175 61.1996249,68.2091918 L61.327603,68.2091918 C57.4882412,64.4056862 54.5661042,60.1162415 52.5611041,55.340729 C50.5561041,50.5652165 49.5109602,45.4728216 49.425641,40.0633914 C49.425641,34.569439 50.4494555,29.4347835 52.4971151,24.659271 C54.5447747,19.8837585 57.4882412,15.5943138 61.327603,11.7908082 L61.1996249,11.7908082 C64.7830293,8.07182504 69.0915817,5.17697813 74.1254116,3.10618067 C79.1592415,1.0353832 84.747562,0 90.8905409,0 C97.0335197,0 102.600511,1.0353832 107.591681,3.10618067 C112.582851,5.17697813 116.912733,8.07182504 120.581457,11.7908082 C124.25018,15.5943138 127.150988,19.8837585 129.283967,24.659271 C131.416945,29.4347835 132.483419,34.569439 132.483419,40.0633914 C132.483419,45.4728216 131.438275,50.5863468 129.347956,55.4041204 C127.257637,60.2218941 124.378158,64.4902086 120.709435,68.2091918 C117.040711,71.928175 112.6895,74.8230219 107.65567,76.8938193 C102.62184,78.9646168 97.0335197,80 90.8905409,80 L90.8905409,80 Z M63.425641,40.5629139 C63.425641,44.5055385 64.1019413,48.1964508 65.454562,51.6357616 C66.8071828,55.0750724 68.7092773,58.0739386 71.1609024,60.6324503 C73.6125276,63.190962 76.5290724,65.225158 79.9106243,66.7350993 C83.2921763,68.2450407 86.9695589,69 90.9428824,69 C94.9162059,69 98.5935885,68.2450407 101.97514,66.7350993 C105.356692,65.225158 108.273237,63.190962 110.724862,60.6324503 C113.176488,58.0739386 115.078582,55.0750724 116.431203,51.6357616 C117.783824,48.1964508 118.460124,44.5055385 118.460124,40.5629139 C118.460124,36.6202893 117.783824,32.9084059 116.431203,29.4271523 C115.078582,25.9458987 113.176488,22.9260614 110.724862,20.3675497 C108.273237,17.809038 105.356692,15.774842 101.97514,14.2649007 C98.5935885,12.7549593 94.9162059,12 90.9428824,12 C86.9695589,12 83.2921763,12.7549593 79.9106243,14.2649007 C76.5290724,15.774842 73.6125276,17.809038 71.1609024,20.3675497 C68.7092773,22.9260614 66.8071828,25.9458987 65.454562,29.4271523 C64.1019413,32.9084059 63.425641,36.6202893 63.425641,40.5629139 L63.425641,40.5629139 Z" id="o"></path>
                        <polygon id="E" points="184.012418 75 130.918787 75 130.8 1.5 182.063466 1.5 182.063466 12.2237701 143.628994 12.2237705 143.628994 30.5385246 176.049348 30.5385246 176.049348 41.2622948 143.628994 41.2622951 143.628994 64.2762295 184.012418 64.2762299"></polygon>
                        <polygon id="T" points="240.179704 12.2237701 217.282569 12.2237705 217.282569 75 204.420419 75 204.420419 12.2237705 179.963373 12.2237701 179.963373 1.5 240.179704 1.5"></polygon>
                        <polygon id="I" points="251.620513 75 238.14359 75 238.14359 1.5 251.620512 1.5"></polygon>
                        <path d="M316,63.4136292 C311.725478,67.8637306 306.956292,71.4072768 301.692298,74.044374 C296.428304,76.6814712 290.946708,78 285.247345,78 C279.627141,77.8351814 274.521539,76.8050808 269.930386,74.9096672 C265.339233,73.0142536 261.262667,70.2123799 257.700566,66.503962 C254.29678,62.7955441 251.684612,58.5927335 249.863982,53.8954041 C248.043353,49.1980748 247.133052,44.2535917 247.133052,39.0618067 C247.053894,33.705203 247.944406,28.6783119 249.804614,23.9809826 C251.664823,19.2836532 254.29678,15.0808426 257.700566,11.3724247 C261.025194,7.82882539 265.042392,5.04755368 269.752282,3.02852615 C274.462172,1.00949862 279.666719,0 285.366082,0 C291.065444,0 296.507461,1.2979268 301.692298,3.89381933 C306.877134,6.48971187 311.606742,10.012656 315.881264,14.4627575 L307.925944,23.362916 C304.205527,19.4896795 300.425798,16.4611837 296.586645,14.2773376 C292.747491,12.0934915 289.007341,11.0015848 285.366082,11.0015848 C281.645665,11.0015848 278.202352,11.7432572 275.036039,13.2266244 C271.869727,14.7099916 269.138824,16.7083868 266.843247,19.22187 C264.547671,21.7353533 262.766647,24.7020431 261.500122,28.1220285 C260.233597,31.5420139 259.600344,35.1885702 259.600344,39.0618067 C259.600344,42.9350431 260.233597,46.5609974 261.500122,49.9397781 C262.766647,53.3185589 264.547671,56.2646467 266.843247,58.77813 C269.138824,61.2916132 271.869727,63.2900084 275.036039,64.7733756 C278.202352,66.2567428 281.645665,66.9984152 285.366082,66.9984152 C288.928183,66.9984152 292.648544,65.8859065 296.527277,63.6608558 C300.406009,61.435805 304.165949,58.4279112 307.807208,54.637084 L316,63.4136292 Z" id="C"></path>
                    </g>
                    <g id="PRAXIS" transform="translate(0.000000, 74.000000)">
                        <path d="M270.599724,80.5715409 C267.10452,79.61923 263.878227,78.2942957 260.920747,76.5966981 C257.963267,74.8991005 255.328461,72.8909969 253.016249,70.572327 C250.704038,68.2536572 248.741376,65.7694053 247.128205,63.1194969 L259.226926,55.418239 C259.979739,56.8260028 261.189599,58.4200645 262.856542,60.2004717 C264.523486,61.9808789 266.378604,63.678451 268.421954,65.293239 C270.465304,66.9080269 272.643052,68.2536634 274.955263,69.3301887 C277.267475,70.406714 279.552766,70.9449686 281.811205,70.9449686 C285.360181,70.9449686 288.236959,70.5930329 290.441626,69.8891509 C292.646293,69.185269 294.393869,68.2950788 295.684405,67.2185535 C296.974942,66.1420282 297.835287,65.0448169 298.265466,63.9268868 C298.695645,62.8089567 298.910731,61.7945538 298.910731,60.8836478 C298.910731,59.9727418 298.776302,58.9583389 298.50744,57.8404088 C298.238578,56.7224787 297.512662,55.5217569 296.32967,54.2382075 C295.146678,52.9546582 293.345331,51.6504259 290.925575,50.3254717 C288.505819,49.0005175 285.145096,47.6755831 280.843308,46.3506289 C274.605714,44.3631976 269.497416,42.4793066 265.518261,40.6988994 C261.539106,38.9184921 258.39347,37.1381116 256.081259,35.3577044 C253.769047,33.5772972 252.1559,31.7555125 251.24177,29.8922956 C250.32764,28.0290787 249.870582,26.0209751 249.870582,23.8679245 C249.870582,21.6320643 250.435183,19.272025 251.564403,16.7877358 C252.693622,14.3034467 254.521855,12.0469179 257.049156,10.0180818 C259.576457,7.98924562 262.910294,6.3123756 267.050766,4.98742138 C271.191238,3.66246717 276.326421,3 282.45647,3 C290.737414,3 297.566402,4.55265743 302.943638,7.65801887 C308.320874,10.7633803 312.461284,15.1315232 315.364991,20.7625786 L300.68521,24.3647799 C297.351323,17.8228184 291.275138,14.5518868 282.45647,14.5518868 C277.616958,14.5518868 274.014264,15.2557582 271.64828,16.663522 C269.282296,18.0712859 268.099321,19.9344748 268.099321,22.2531447 C268.099321,23.6609085 268.717694,24.9237365 269.954459,26.0416667 C271.191223,27.1595968 272.885027,28.2361059 275.035921,29.2712264 C277.186816,30.3063469 279.687193,31.3000476 282.537128,32.2523585 C285.387064,33.2046693 288.478928,34.2190722 291.812815,35.2955975 C297.40514,37.2002192 301.814408,39.1876207 305.040749,41.2578616 C308.267091,43.3281026 310.686811,45.4397167 312.299982,47.5927673 C313.913153,49.7458179 314.934812,51.857432 315.364991,53.927673 C315.79517,55.9979139 316.010256,57.9439112 316.010256,59.7657233 C316.010256,61.670345 315.472541,63.9061717 314.397094,66.4732704 C313.321646,69.0403692 311.493413,71.4832169 308.91234,73.8018868 C306.331267,76.1205567 302.836116,78.066554 298.426782,79.6399371 C294.017448,81.2133202 288.478978,82 281.811205,82 C277.83205,82 274.094927,81.5238517 270.599724,80.5715409 Z" id="S"></path>
                        <polygon id="I" points="251.620513 82 238.268376 82 238.14359 8.5 251.620513 8.5"></polygon>
                        <g id="X" transform="translate(175.743590, 8.500000)">
                            <path d="M55.6517043,73.5 L34.042908,44.702459 L14.4863438,73.5 L0,73.5 L26.316858,34.7016393 C24.4658159,32.0508064 22.4538438,29.2192774 20.2808814,26.2069672 C18.1079189,23.1946571 15.8947497,20.1623103 13.6413071,17.1098361 C11.3878646,14.0573618 9.21493474,11.0651786 7.12245239,8.13319672 C5.02997004,5.20121485 3.09847684,2.49017639 1.32791485,0 L15.9349782,0 L34.1636276,25.0622951 C36.8999506,21.0458816 39.756951,16.8287106 42.7347143,12.4106557 C45.7124777,7.99260086 48.4889992,3.85575698 51.0643621,0 L65.5507059,0 L42.0103972,35.0631148 L70.3794872,73.5 L55.6517043,73.5 Z" id="x"></path>
                        </g>
                        <path d="M89.999999,82 L65.7443519,53.0819672 L62.9656704,53.0819672 L62.9656704,82 L50.038761,82 L49.9179487,8.5 L70.2144047,8.5 C74.8052927,8.5 78.8725974,9.02212593 82.4164407,10.0663934 C85.9602841,11.110661 88.9000192,12.5565481 91.2357341,14.4040984 C93.8130747,16.5729617 95.7259161,19.1032642 96.9743154,21.995082 C98.2227148,24.8868997 98.8469051,27.9794917 98.8469051,31.2729508 C98.927447,34.9680513 98.1421753,38.2212974 96.4910665,41.0327869 C94.8399576,43.8442764 92.7660349,46.2139248 90.2692362,48.1418033 C89.3832754,48.7844294 88.1751651,49.4471277 86.6448691,50.129918 C85.1145731,50.8127083 83.0607856,51.4352431 80.4834449,51.997541 C82.4164504,54.4073891 84.5709138,56.9176099 86.9468997,59.5282787 C89.3228856,62.1389475 91.6787006,64.7696589 94.0144156,67.4204918 C96.3501305,70.0713247 98.6455401,72.6417908 100.900713,75.1319672 C103.155886,77.6221436 105.129133,79.911465 106.820513,82 L89.999999,82 Z M73.7436434,43 C77.8204527,43 80.8192145,42.020418 82.7400188,40.0612245 C84.6608231,38.102031 85.6996099,35.3673645 85.8564103,31.8571429 C85.7780101,29.326518 85.3860151,27.2244982 84.6804135,25.5510204 C83.9748119,23.8775427 82.9752246,22.5714333 81.6816217,21.6326531 C80.3880188,20.6938729 78.800439,20.0408182 76.9188347,19.6734694 C75.0372305,19.3061206 72.881258,19.0816331 70.4508525,19 L63.3948718,19 L63.3948718,43 L73.7436434,43 Z" id="R"></path>
                        <path d="M44.4375756,14.4040984 C47.0100718,16.4926334 48.9394151,18.9827724 50.2256632,21.8745902 C51.5119113,24.7664079 52.1550257,27.8991635 52.1550257,31.2729508 C52.2380095,34.887723 51.4081844,38.1008056 49.6655257,40.9122951 C47.9228669,43.7237845 45.7653218,46.093433 43.1928256,48.0213115 C42.4459718,48.5836094 41.5539099,49.1659806 40.516613,49.7684426 C39.4793162,50.3709047 38.1308505,50.9131123 36.4711755,51.395082 C34.8115005,51.8770516 32.7991748,52.2786869 30.4341379,52.6 C28.0691011,52.9213131 25.2684415,53.0819672 22.0320753,53.0819672 L13.4433002,53.0819672 L13.4433002,82 L0.124475002,82 L0,8.5 L22.5299753,8.5 C27.4260165,8.5 31.6788699,9.02212593 35.288663,10.0663934 C38.8984561,11.110661 41.9065719,12.5565481 44.3131006,14.4040984 L44.4375756,14.4040984 Z M35.8146897,38.7905759 C38.0352887,37.2984219 39.2689363,34.7068247 39.5156695,31.0157068 C39.3511807,26.9319168 38.323141,24.0261866 36.4315197,22.2984293 C35.1156092,21.3560162 33.3268202,20.5706838 31.065099,19.9424084 C28.8033778,19.314133 26.1921571,19 23.2313585,19 L14.225641,19 L14.225641,41.5 L26.8089723,41.5 C28.2893716,41.5 29.8314311,41.2840336 31.435197,40.8520942 C33.0389629,40.4201549 34.4987792,39.732989 35.8146897,38.7905759 L35.8146897,38.7905759 Z" id="P"></path>
                        <g id="A" transform="translate(90.000000, -0.000000)">
                            <g id="Sign" transform="translate(4.000000, 0.000000)">
                                <path d="M46,0 L92,82 L-1.77635684e-15,82 L46,0 Z M46,25 L19.75,70 L72.25,70 L46,25 Z" id="Combined-Shape"></path>
                            </g>
                        </g>
                    </g>
                </g>
            </g>
            <g id="Sign" transform="translate(75.000000, 79.000000)">
                <polygon id="Polygon" fill="#212121" points="90 0 180 156 4.4941828e-13 156"></polygon>
                <polygon id="Polygon-Copy" fill="#E53935" points="90 42 144 134 36 134"></polygon>
            </g>
        </g>
    </g>
</svg>