<?xml version="1.0" encoding="UTF-8" standalone="no"?>
<svg xmlns="http://www.w3.org/2000/svg" height="148px" width="148px" version="1.1" xmlns:xlink="http://www.w3.org/1999/xlink" viewBox="0 0 148 148"><!-- Generator: Sketch 48.2 (47327) - http://www.bohemiancoding.com/sketch -->
 <title>Group</title>
 <desc>Created with Sketch.</desc>
 <g id="New-Logo-Copy-3" fill-rule="evenodd" transform="translate(-556 -285)" fill="none">
  <g id="Group" transform="translate(630 359) scale(1 -1) translate(-74 -74)">
   <path id="Combined-Shape" fill="#212121" d="m74 148c-40.869 0-74-33.13-74-74 0-40.869 33.131-74 74-74 40.87 0 74 33.131 74 74 0 40.87-33.13 74-74 74zm0.5-9c35.62 0 64.5-28.88 64.5-64.5 0-35.622-28.88-64.5-64.5-64.5-35.622 0-64.5 28.878-64.5 64.5 0 35.62 28.878 64.5 64.5 64.5z"/>
   <polygon id="Combined-Shape" points="74.5 9.1951 129.44 108.34 19.556 108.34" fill="#212121"/>
   <polygon id="Polygon-Copy" points="74.5 29 113.44 99 35.562 99" fill="#E53935"/>
  </g>
 </g>
</svg>
